<?xml version="1.0" encoding="UTF-8"?>
<svg width="9px" height="13px" viewBox="0 0 9 13" version="1.1" xmlns="http://www.w3.org/2000/svg" xmlns:xlink="http://www.w3.org/1999/xlink">
    <!-- Generator: Sketch 47.1 (45422) - http://www.bohemiancoding.com/sketch -->
    <title></title>
    <desc>Created with Sketch.</desc>
    <defs></defs>
    <g id="色彩调整" stroke="none" stroke-width="1" fill="none" fill-rule="evenodd">
        <g id="1.1提交订单" transform="translate(-462.000000, -518.000000)" fill="#F19707">
            <g id="Group-6" transform="translate(446.000000, 507.000000)">
                <path d="M22.285,18.425 C22.7150022,18.1349985 23.0474988,17.7650023 23.2825,17.315 C23.5175012,16.8649978 23.635,16.3850025 23.635,15.875 C23.635,15.3049971 23.4950014,14.7800024 23.215,14.3 C22.9349986,13.8199976 22.5550024,13.4400014 22.075,13.16 C21.5949976,12.8799986 21.0700029,12.74 20.5,12.74 C19.9299972,12.74 19.4050024,12.8799986 18.925,13.16 C18.4449976,13.4400014 18.0650014,13.8199976 17.785,14.3 C17.5049986,14.7800024 17.365,15.3049971 17.365,15.875 C17.365,16.3850025 17.4824988,16.8649978 17.7175,17.315 C17.9525012,17.7650023 18.2849979,18.1349985 18.715,18.425 L19.24,18.8 L19.24,20.24 L21.76,20.24 L21.76,18.8 L22.285,18.425 Z M20.5,11.51 C21.290004,11.51 22.0249966,11.709998 22.705,12.11 C23.3550033,12.500002 23.8749981,13.0199968 24.265,13.67 C24.665002,14.3500034 24.865,15.084996 24.865,15.875 C24.865,16.6150037 24.6950017,17.2999968 24.355,17.93 C24.0249984,18.530003 23.5700029,19.034998 22.99,19.445 L22.99,20.885 C22.99,21.0550008 22.9300006,21.1999994 22.81,21.32 C22.6899994,21.4400006 22.5450009,21.5 22.375,21.5 L18.625,21.5 C18.4549992,21.5 18.3100006,21.4400006 18.19,21.32 C18.0699994,21.1999994 18.01,21.0550008 18.01,20.885 L18.01,19.445 C17.4299971,19.034998 16.9750017,18.530003 16.645,17.93 C16.3049983,17.2999968 16.135,16.6150037 16.135,15.875 C16.135,15.084996 16.334998,14.3500034 16.735,13.67 C17.125002,13.0199968 17.6449968,12.500002 18.295,12.11 C18.9750034,11.709998 19.7099961,11.51 20.5,11.51 Z M18.625,23.375 L18.625,22.76 L22.375,22.76 L22.375,23.375 C22.375,23.5450009 22.3150006,23.6899994 22.195,23.81 C22.0749994,23.9300006 21.9300009,23.99 21.76,23.99 L19.24,23.99 C19.0699992,23.99 18.9250006,23.9300006 18.805,23.81 C18.6849994,23.6899994 18.625,23.5450009 18.625,23.375 Z" id=""></path>
            </g>
        </g>
    </g>
</svg>