<?xml version="1.0" encoding="UTF-8"?>
<svg width="13px" height="13px" viewBox="0 0 13 13" version="1.1" xmlns="http://www.w3.org/2000/svg" xmlns:xlink="http://www.w3.org/1999/xlink">
    <!-- Generator: Sketch 47.1 (45422) - http://www.bohemiancoding.com/sketch -->
    <title>help - material</title>
    <desc>Created with Sketch.</desc>
    <defs></defs>
    <g id="色彩调整" stroke="none" stroke-width="1" fill="none" fill-rule="evenodd">
        <g id="1.1提交订单" transform="translate(-429.000000, -551.000000)" fill="#FF3645">
            <path d="M437.484375,557.015625 C437.671876,556.817707 437.820312,556.593751 437.929688,556.34375 C438.039063,556.093749 438.09375,555.828126 438.09375,555.546875 C438.09375,555.078123 437.976564,554.645835 437.742188,554.25 C437.507811,553.854165 437.19271,553.539064 436.796875,553.304688 C436.40104,553.070311 435.968752,552.953125 435.5,552.953125 C435.031248,552.953125 434.59896,553.070311 434.203125,553.304688 C433.80729,553.539064 433.492189,553.854165 433.257812,554.25 C433.023436,554.645835 432.90625,555.078123 432.90625,555.546875 L434.1875,555.546875 C434.1875,555.192707 434.317707,554.885418 434.578125,554.625 C434.838543,554.364582 435.145832,554.234375 435.5,554.234375 C435.854168,554.234375 436.161457,554.364582 436.421875,554.625 C436.682293,554.885418 436.8125,555.187498 436.8125,555.53125 C436.8125,555.875002 436.682293,556.187499 436.421875,556.46875 L435.625,557.28125 C435.385415,557.541668 435.203126,557.822915 435.078125,558.125 C434.932291,558.447918 434.859375,558.77604 434.859375,559.109375 L434.859375,559.453125 L436.140625,559.453125 C436.140625,559.005206 436.213541,558.635418 436.359375,558.34375 C436.453125,558.156249 436.635415,557.916668 436.90625,557.625 L437.484375,557.015625 Z M436.140625,562.046875 L436.140625,560.765625 L434.859375,560.765625 L434.859375,562.046875 L436.140625,562.046875 Z M435.5,551 C436.687506,551 437.786453,551.296872 438.796875,551.890625 C439.776047,552.453128 440.546872,553.223953 441.109375,554.203125 C441.703128,555.213547 442,556.312494 442,557.5 C442,558.687506 441.703128,559.786453 441.109375,560.796875 C440.546872,561.776047 439.776047,562.546872 438.796875,563.109375 C437.786453,563.703128 436.687506,564 435.5,564 C434.312494,564 433.213547,563.703128 432.203125,563.109375 C431.223953,562.536455 430.453128,561.760422 429.890625,560.78125 C429.296872,559.770828 429,558.677089 429,557.5 C429,556.322911 429.296872,555.229172 429.890625,554.21875 C430.463545,553.239578 431.239578,552.463545 432.21875,551.890625 C433.229172,551.296872 434.322911,551 435.5,551 Z" id="help---material"></path>
        </g>
    </g>
</svg>