<?xml version="1.0" encoding="UTF-8"?>
<svg width="38px" height="38px" viewBox="0 0 38 38" version="1.1" xmlns="http://www.w3.org/2000/svg" xmlns:xlink="http://www.w3.org/1999/xlink">
    <!-- Generator: Sketch 47.1 (45422) - http://www.bohemiancoding.com/sketch -->
    <title>成功</title>
    <desc>Created with Sketch.</desc>
    <defs></defs>
    <g id="5.WMS订单old" stroke="none" stroke-width="1" fill="none" fill-rule="evenodd">
        <path d="M31.5268233,14.879482 C31.5268233,14.4620708 31.3795017,14.0446596 31.0848585,13.7500164 L28.8504808,11.5401923 C28.5558376,11.2455491 28.16298,11.0736739 27.7455688,11.0736739 C27.3281576,11.0736739 26.9353,11.2455491 26.6406568,11.5401923 L16.6227877,21.5335078 L11.0736739,15.9843941 C10.7790307,15.6897508 10.3861731,15.5178756 9.96876188,15.5178756 C9.55135067,15.5178756 9.15849306,15.6897508 8.86384985,15.9843941 L6.62947219,18.1942181 C6.33482898,18.4888613 6.18750738,18.9062725 6.18750738,19.3236837 C6.18750738,19.741095 6.33482898,20.1339526 6.62947219,20.4285958 L15.5178756,29.3169992 C15.8125188,29.6116424 16.2299301,29.7835176 16.6227877,29.7835176 C17.0401989,29.7835176 17.4576101,29.6116424 17.7522533,29.3169992 L31.0848585,15.9843941 C31.3795017,15.6897508 31.5268233,15.2968932 31.5268233,14.879482 Z M37.7143307,18.8571653 C37.7143307,29.267892 29.267892,37.7143307 18.8571653,37.7143307 C8.44643864,37.7143307 0,29.267892 0,18.8571653 C0,8.44643864 8.44643864,0 18.8571653,0 C29.267892,0 37.7143307,8.44643864 37.7143307,18.8571653 Z" id="成功" fill="#56C538"></path>
    </g>
</svg>