<?xml version="1.0" encoding="UTF-8"?>
<svg width="44px" height="44px" viewBox="0 0 44 44" version="1.1" xmlns="http://www.w3.org/2000/svg" xmlns:xlink="http://www.w3.org/1999/xlink">
    <!-- Generator: Sketch 47.1 (45422) - http://www.bohemiancoding.com/sketch -->
    <title>Group 18</title>
    <desc>Created with Sketch.</desc>
    <defs></defs>
    <g id="5.WMS订单old" stroke="none" stroke-width="1" fill="none" fill-rule="evenodd">
        <g id="5.1.账号开通（开通中）" transform="translate(-287.000000, -438.000000)">
            <g id="Group-14" transform="translate(287.000000, 438.000000)">
                <g id="Group-18">
                    <circle id="Oval-2" fill="#F9A300" cx="22" cy="22" r="22"></circle>
                    <path d="M29.7143044,13.2856956 C29.7143044,17.4151648 27.7388557,20.4062398 25.5513531,21.8571343 C27.7388557,23.3080289 29.7143044,26.2991039 29.7143044,30.4285731 L30.7857343,30.4285731 C30.9866274,30.4285731 31.1428776,30.5848233 31.1428776,30.7857164 L31.1428776,31.500003 C31.1428776,31.7008961 30.9866274,31.8571463 30.7857343,31.8571463 L14.3571433,31.8571463 C14.1562502,31.8571463 14,31.7008961 14,31.500003 L14,30.7857164 C14,30.5848233 14.1562502,30.4285731 14.3571433,30.4285731 L15.4285731,30.4285731 C15.4285731,26.2991039 17.4040219,23.3080289 19.5915245,21.8571343 C17.4040219,20.4062398 15.4285731,17.4151648 15.4285731,13.2856956 L14.3571433,13.2856956 C14.1562502,13.2856956 14,13.1294454 14,12.9285523 L14,12.2142657 C14,12.0133726 14.1562502,11.8571224 14.3571433,11.8571224 L30.7857343,11.8571224 C30.9866274,11.8571224 31.1428776,12.0133726 31.1428776,12.2142657 L31.1428776,12.9285523 C31.1428776,13.1294454 30.9866274,13.2856956 30.7857343,13.2856956 L29.7143044,13.2856956 Z M28.2857313,13.2856956 L16.8571463,13.2856956 C16.8571463,14.9151618 17.2254503,16.3548956 17.8058081,17.5714149 L27.3370695,17.5714149 C27.9174273,16.3548956 28.2857313,14.9151618 28.2857313,13.2856956 Z M27.6495698,26.8571403 C26.823676,24.7031199 25.3392992,23.1741002 23.8549225,22.5714209 L21.2879551,22.5714209 C19.8035783,23.1741002 18.3192016,24.7031199 17.4933077,26.8571403 L27.6495698,26.8571403 Z" id="Hourglass-Half---FontAwesome" fill="#FFFFFF"></path>
                </g>
            </g>
        </g>
    </g>
</svg>