<svg xmlns="http://www.w3.org/2000/svg" width="14" height="15" viewBox="0 0 14 15">
    <path fill="#F19707" fill-rule="evenodd" d="M7 12.744c.96 0 1.856-.245 2.688-.736.81-.47 1.45-1.11 1.92-1.92.49-.832.736-1.728.736-2.688 0-.96-.245-1.856-.736-2.688a5.182 5.182 0 0 0-1.92-1.92A5.201 5.201 0 0 0 7 2.056c-.96 0-1.856.245-2.688.736-.81.47-1.45 1.11-1.92 1.92A5.201 5.201 0 0 0 1.656 7.4c0 .96.245 1.856.736 2.688.47.81 1.11 1.45 1.92 1.92.832.49 1.728.736 2.688.736zm0-12c1.216 0 2.341.304 3.376.912a6.308 6.308 0 0 1 2.368 2.368 6.546 6.546 0 0 1 .912 3.376 6.546 6.546 0 0 1-.912 3.376 6.308 6.308 0 0 1-2.368 2.368A6.546 6.546 0 0 1 7 14.056a6.546 6.546 0 0 1-3.376-.912 6.428 6.428 0 0 1-2.368-2.384A6.517 6.517 0 0 1 .344 7.4c0-1.205.304-2.325.912-3.36A6.55 6.55 0 0 1 3.64 1.656 6.517 6.517 0 0 1 7 .744zm-.656 3.312h1.312v4H6.344v-4zm0 5.344h1.312v1.344H6.344V9.4z"/>
</svg>
