<?xml version="1.0" encoding="UTF-8"?>
<svg width="23px" height="23px" viewBox="0 0 23 23" version="1.1" xmlns="http://www.w3.org/2000/svg" xmlns:xlink="http://www.w3.org/1999/xlink">
    <!-- Generator: Sketch 46.2 (44496) - http://www.bohemiancoding.com/sketch -->
    <title>刷新button</title>
    <desc>Created with Sketch.</desc>
    <defs></defs>
    <g id="1.注册/登录" stroke="none" stroke-width="1" fill="none" fill-rule="evenodd">
        <path d="M11.5320207,0 C5.16301378,0 0,5.14867778 0,11.5 C0,17.8513222 5.16301378,23 11.5320207,23 C17.1477623,23 21.9198406,18.9696333 22.887217,13.5162375 C22.932288,13.2625667 22.968806,13.0068833 22.9967071,12.7496986 C23.0300218,12.4416264 22.8067811,12.1648278 22.4978191,12.1316375 C22.1890172,12.0983194 21.9114799,12.3210681 21.8780691,12.6290444 C21.8528908,12.8612486 21.8199925,13.0919833 21.7793422,13.3208333 C20.9066565,18.2405333 16.5995429,21.8780792 11.5318925,21.8780792 C5.78426936,21.8780792 1.12491658,17.2316639 1.12491658,11.5 C1.12491658,5.76846389 5.78426936,1.12204861 11.5318925,1.12204861 C15.7222765,1.12204861 19.4535258,3.61435417 21.088478,7.38415 C21.2118707,7.66855139 21.5429678,7.79942778 21.828129,7.67640972 C22.1132903,7.55335972 22.244435,7.22318194 22.1211705,6.9388125 C20.3095541,2.76182083 16.1749723,0 11.5318925,0 L11.5320207,0 Z M21.5874942,7.86695833 L22.1499685,7.30591806 L16.3136449,7.30591806 C16.002921,7.30591806 15.7510424,7.55709722 15.7510424,7.86695833 C15.7510424,8.1767875 16.002921,8.42783889 16.3136449,8.42783889 L22.1499685,8.42783889 C22.4606604,8.42783889 22.7125389,8.1767875 22.7125389,7.86695833 L22.7125389,1.68296111 C22.7125389,1.3731 22.4606604,1.12192083 22.1499685,1.12192083 C21.8392766,1.12192083 21.5874942,1.3731 21.5874942,1.68296111 L21.5874942,7.86695833 Z" id="Fill-1" fill="#3A3A3A"></path>
    </g>
</svg>