<?xml version="1.0" encoding="UTF-8"?>
<svg width="17px" height="17px" viewBox="0 0 17 17" version="1.1" xmlns="http://www.w3.org/2000/svg" xmlns:xlink="http://www.w3.org/1999/xlink">
    <!-- Generator: Sketch 47.1 (45422) - http://www.bohemiancoding.com/sketch -->
    <title>成功</title>
    <desc>Created with Sketch.</desc>
    <defs></defs>
    <g id="1.注册/登录" stroke="none" stroke-width="1" fill="none" fill-rule="evenodd">
        <g id="Group-22">
            <g id="成功">
                <circle id="Oval" fill="#F9A300" cx="8.5" cy="8.5" r="8.5"></circle>
                <path d="M13.6897455,6.50445654 C13.6897455,6.33704563 13.6227811,6.16963471 13.5022453,6.04909886 L12.5915299,5.13838349 C12.470994,5.01784763 12.3035831,4.95088326 12.1361722,4.95088326 C11.9687613,4.95088326 11.8013504,5.01784763 11.6808145,5.13838349 L7.28795214,9.5379423 L5.31919979,7.56249352 C5.19866393,7.44195766 5.03125302,7.37499329 4.8638421,7.37499329 C4.69643119,7.37499329 4.52902028,7.44195766 4.40848442,7.56249352 L3.49776905,8.47320889 C3.37723319,8.59374475 3.31026882,8.76115566 3.31026882,8.92856658 C3.31026882,9.09597749 3.37723319,9.2633884 3.49776905,9.38392426 L6.83259445,12.7187497 C6.95313031,12.8392855 7.12054122,12.9062499 7.28795214,12.9062499 C7.45536305,12.9062499 7.62277396,12.8392855 7.74330982,12.7187497 L13.5022453,6.95981423 C13.6227811,6.83927837 13.6897455,6.67186746 13.6897455,6.50445654 Z" id="" fill="#FFFFFF"></path>
            </g>
        </g>
    </g>
</svg>