<!-- Generated by IcoMoon.io -->
<svg version="1.1" xmlns="http://www.w3.org/2000/svg" width="17" height="16" viewBox="0 0 17 16">
<title>invalid-name</title>
<path fill="#fff" d="M12.684 15h-11.5v-12.5h7.032l1.015-0.969-0.031-0.031h-8.016c-0.003-0-0.006-0-0.009-0-0.273 0-0.519 0.114-0.695 0.297-0.197 0.198-0.297 0.433-0.297 0.703v12.5l0-0.001c-0 0.006-0 0.013-0 0.020 0 0.272 0.114 0.517 0.297 0.691l0 0c0.177 0.179 0.422 0.29 0.693 0.29 0.004 0 0.007-0 0.011-0l11.499-0c0.007 0 0.014 0 0.021 0 0.27 0 0.515-0.111 0.69-0.29l0-0c0.178-0.175 0.289-0.419 0.289-0.689 0-0.007-0-0.015-0-0.021v-7.313l-1 0.953v6.36zM15.42 0.64c0.26 0.25 0.455 0.506 0.586 0.766 0.13 0.26 0.2 0.531 0.21 0.813 0 0.27-0.062 0.541-0.187 0.812s-0.318 0.542-0.578 0.813c-0.115 0.125-0.526 0.536-1.234 1.234s-1.47 1.445-2.282 2.242c-1.193 1.169-2.293 2.257-3.388 3.349l0.013-0.013c-0.030 0.021-0.060 0.042-0.086 0.063-0.024 0.020-0.053 0.036-0.084 0.046l-0.002 0.001c-0.125 0.030-0.38 0.109-0.765 0.234-0.386 0.125-0.787 0.253-1.203 0.383s-0.787 0.25-1.11 0.36c-0.323 0.109-0.49 0.163-0.5 0.163-0.022 0-0.043 0.003-0.064 0.008l0.002-0c-0.019 0.005-0.041 0.008-0.063 0.008h-0c-0.116-0-0.221-0.048-0.297-0.125l-0-0c-0.052-0.053-0.090-0.118-0.108-0.192l-0.001-0.003c-0.400-890-0505.034-0.016-0.073-0.016-0.114s0.006-0.079 0.016-0.116l-0.001 0.003c0-0.010 0.050-0.174 0.149-0.492s0.21-0.682 0.335-1.094c0.126-0.411 0.245-0.815 0.36-1.21 0.114-0.397 0.198-0.678 0.25-0.845 0.013-0.037 0.026-0.067 0.041-0.097l-0.002 0.004c0.019-0.036 0.042-0.067 0.070-0.094l1.040-1.040c0.692-0.692 1.46-1.458 2.304-2.296 0.844-0.839 1.625-1.62 2.344-2.344 0.386-0.396 0.767-0.776 1.154-1.149l0.016-0.015c0.083-0.083 0.268-0.221 0.554-0.414 0.287-0.193 0.633-0.289 1.040-0.289 0.27 0 0.53 0.055 0.78 0.164 0.25 0.11 0.485 0.268 0.704 0.477zM14.732 3.14c0.167-0.166 0.29-0.325 0.367-0.476 0.070-0.124 0.113-0.271 0.118-0.429l0-0.001c-0.016-0.157-0.063-0.3-0.136-0.426l0.003 0.005c-0.096-0.169-0.214-0.314-0.35-0.437l-0.002-0.001c-0.115-0.11-0.246-0.203-0.389-0.277l-0.009-0.004c-0.123-0.058-0.267-0.093-0.419-0.093-0.218 0-0.419 0.070-0.583 0.189l0.003-0.002c-0.112 0.078-0.207 0.149-0.298 0.225l0.008-0.007-3.132 3.134c-0.73 0.73-1.458 1.456-2.187 2.181l-0.047 0.046c-0.714 0.708-1.175 1.166-1.383 1.375-0.459 1.688-0.71 2.512-0.97 3.332l0.236-0.863c0.416-0.136 0.861-0.28 1.335-0.43l1.055-0.336 0.312-0.297c1-0.99 1.889-1.867 2.665-2.633l1.976-1.953c0.542-0.537 0.966-0.956 1.274-1.258 0.307-0.302 0.492-0.49 0.554-0.562z"></path>
</svg>
