<svg id="svg" version="1.1" width="400" height="419.7530864197531" xmlns="http://www.w3.org/2000/svg" xmlns:xlink="http://www.w3.org/1999/xlink" style="display: block;"><g id="svgg"><path id="path0" d="M195.800 26.801 C 187.929 27.504,188.425 27.288,184.828 31.594 C 182.458 34.431,179.264 35.911,172.314 37.391 L 169.229 38.048 167.780 40.433 C 166.983 41.745,165.672 43.268,164.866 43.818 C 163.520 44.735,154.337 48.000,153.101 48.000 C 152.429 48.000,149.583 50.637,148.657 52.119 C 147.659 53.714,145.999 54.608,141.074 56.202 C 137.082 57.494,136.506 57.815,133.623 60.355 C 129.466 64.019,127.657 65.016,123.148 66.133 C 118.427 67.303,118.477 67.273,116.205 70.302 C 114.037 73.194,110.643 75.112,105.789 76.189 C 99.876 77.502,99.934 77.472,98.200 80.125 C 95.887 83.665,93.411 84.950,84.600 87.184 C 83.052 87.577,82.466 88.063,78.305 92.400 C 76.754 94.017,76.093 94.353,71.789 95.705 C 67.127 97.169,66.910 97.290,63.600 100.248 C 59.980 103.482,57.532 104.953,54.978 105.428 C 51.224 106.125,50.160 106.914,49.238 109.687 C 48.085 113.151,46.886 114.771,44.561 116.005 C 39.692 118.589,39.942 113.507,40.082 207.235 L 40.200 286.271 41.512 288.381 C 42.234 289.542,43.445 291.236,44.205 292.146 C 44.964 293.056,46.317 294.675,47.210 295.745 C 48.104 296.815,49.567 299.194,50.461 301.032 C 52.408 305.035,52.210 304.856,56.173 306.182 C 63.402 308.600,66.628 310.533,68.044 313.294 C 69.080 315.314,69.913 315.773,74.754 316.994 C 80.697 318.492,85.450 321.237,86.201 323.604 C 86.568 324.758,89.657 326.343,93.291 327.240 C 97.401 328.255,99.216 329.294,101.973 332.209 C 104.234 334.600,107.044 336.009,113.103 337.792 C 116.067 338.664,118.350 340.472,119.385 342.767 C 120.075 344.297,120.305 344.455,122.961 345.218 C 132.610 347.987,135.458 349.428,137.101 352.372 C 138.479 354.839,138.670 354.951,144.017 356.404 C 150.449 358.153,154.046 360.182,155.417 362.832 C 156.231 364.408,158.795 365.791,162.772 366.799 C 167.145 367.908,167.880 368.315,171.321 371.541 C 174.346 374.376,176.498 375.485,182.223 377.153 C 185.703 378.168,187.288 379.210,189.378 381.856 C 193.158 386.642,213.211 387.464,215.636 382.932 C 216.894 380.581,221.899 377.637,226.341 376.635 C 229.309 375.966,233.200 374.272,233.200 373.650 C 233.200 371.552,239.210 367.799,244.800 366.406 C 249.117 365.330,251.123 364.473,251.405 363.584 C 252.539 360.013,257.518 357.268,267.141 354.908 C 268.157 354.659,268.890 354.000,270.155 352.195 C 271.977 349.596,273.758 348.376,277.200 347.370 C 282.039 345.954,284.906 344.429,287.589 341.841 C 290.679 338.860,291.653 338.313,295.731 337.268 C 299.822 336.220,302.037 334.977,303.672 332.811 C 305.859 329.917,312.833 326.400,316.387 326.400 C 317.871 326.400,320.355 324.849,321.037 323.496 C 322.799 320.004,328.284 317.209,336.891 315.416 C 337.653 315.258,338.397 314.541,339.356 313.042 C 341.034 310.419,342.714 309.118,345.600 308.205 C 348.795 307.195,352.451 305.027,353.588 303.468 C 354.131 302.724,355.080 301.756,355.696 301.318 C 357.295 300.182,359.957 296.480,360.371 294.815 C 361.227 291.378,362.367 287.646,363.126 285.800 C 365.478 280.074,365.389 282.989,365.518 207.800 C 365.646 132.653,365.600 130.848,363.431 125.883 C 362.931 124.737,362.132 122.341,361.656 120.557 C 360.748 117.151,357.512 108.658,356.792 107.791 C 356.561 107.512,355.703 107.161,354.886 107.012 C 350.778 106.259,344.652 102.719,342.394 99.792 C 340.367 97.165,339.409 96.601,335.611 95.802 C 332.034 95.050,329.481 93.754,326.756 91.308 C 322.580 87.560,322.012 87.227,317.273 85.744 C 312.326 84.195,312.091 84.033,307.735 79.159 C 306.765 78.074,305.941 77.625,304.206 77.236 C 296.744 75.566,293.256 73.700,290.998 70.170 C 289.425 67.711,288.972 67.447,284.929 66.633 C 278.980 65.436,275.453 63.510,272.994 60.117 C 271.080 57.476,271.087 57.480,266.199 56.210 C 261.327 54.944,259.334 53.856,255.800 50.532 C 253.109 48.002,252.805 47.836,248.000 46.279 C 243.200 44.724,242.917 44.571,240.932 42.430 C 239.794 41.203,238.444 39.776,237.932 39.257 C 237.307 38.626,235.416 37.859,232.200 36.933 C 225.760 35.080,224.166 34.268,222.649 32.065 C 219.819 27.955,220.057 28.081,213.446 27.197 C 207.468 26.397,201.755 26.269,195.800 26.801 M203.449 47.266 C 204.522 47.742,206.930 48.360,208.800 48.639 C 217.501 49.939,224.579 53.230,226.415 56.830 C 227.394 58.748,227.681 58.899,233.174 60.393 C 239.399 62.085,244.800 65.431,244.800 67.593 C 244.800 68.183,248.721 69.966,251.362 70.578 C 255.556 71.549,257.197 72.442,260.017 75.289 C 262.663 77.959,265.826 79.642,270.400 80.812 C 273.324 81.561,275.784 83.106,276.839 84.856 C 278.532 87.666,278.833 87.844,285.536 89.974 C 292.453 92.172,295.155 93.887,295.809 96.494 C 296.141 97.816,296.979 98.235,302.044 99.612 C 311.367 102.147,313.462 104.088,317.043 113.511 C 318.532 117.430,318.558 117.719,317.591 119.645 C 315.918 122.977,314.467 124.007,309.239 125.573 C 306.176 126.491,305.565 126.951,302.692 130.505 C 300.890 132.735,296.687 134.897,292.277 135.863 C 288.589 136.670,287.967 137.085,286.472 139.733 C 284.937 142.454,283.694 143.349,279.462 144.779 C 275.031 146.277,274.574 146.535,272.000 148.988 C 267.481 153.295,266.434 153.865,259.528 155.777 C 257.416 156.362,257.166 156.561,256.004 158.594 C 253.927 162.223,250.068 164.469,243.047 166.136 C 241.472 166.510,240.774 166.978,239.447 168.547 C 235.503 173.209,235.145 173.442,229.508 175.013 C 227.200 175.657,226.978 175.834,223.399 179.903 C 220.090 183.665,214.438 185.201,203.917 185.198 C 190.789 185.193,185.536 183.720,182.354 179.152 C 180.416 176.369,180.170 176.240,174.400 174.967 C 168.085 173.575,165.292 171.926,162.933 168.197 C 161.740 166.312,161.848 166.358,155.046 164.802 C 150.040 163.657,147.129 162.001,144.709 158.922 C 142.589 156.224,142.263 156.066,135.841 154.623 C 132.107 153.783,128.443 151.659,126.153 149.007 C 124.114 146.646,122.988 146.065,118.067 144.840 C 113.753 143.767,112.149 142.886,108.579 139.632 C 105.869 137.162,105.209 136.773,102.081 135.807 C 100.167 135.215,97.700 134.451,96.600 134.109 C 95.011 133.614,93.984 132.852,91.600 130.397 C 89.495 128.228,87.924 127.003,86.333 126.291 C 83.981 125.236,78.937 120.532,77.754 118.289 C 76.617 116.133,82.372 111.197,88.120 109.401 C 92.407 108.060,92.996 107.693,93.928 105.774 C 95.334 102.879,101.788 99.657,109.109 98.194 C 110.127 97.991,110.721 97.461,111.774 95.813 C 113.654 92.875,117.439 90.400,120.054 90.400 C 121.743 90.400,126.824 87.524,129.073 85.295 C 131.946 82.447,133.751 81.432,137.473 80.569 C 141.609 79.609,143.988 78.263,145.524 76.013 C 147.207 73.549,150.937 71.513,156.120 70.230 C 160.916 69.042,162.131 68.378,163.266 66.326 C 164.989 63.211,169.471 60.964,178.300 58.788 C 179.695 58.444,180.143 58.087,180.802 56.795 C 182.323 53.815,184.026 52.550,188.294 51.231 C 194.081 49.442,197.245 48.114,197.880 47.207 C 198.640 46.122,200.926 46.146,203.449 47.266 M340.426 132.506 C 346.165 136.373,346.070 134.974,345.898 213.800 C 345.742 285.197,345.904 280.768,343.259 286.142 C 341.306 290.108,332.725 294.800,327.424 294.800 C 327.333 294.800,326.698 295.781,326.012 296.979 C 323.921 300.635,322.319 301.571,314.317 303.821 C 310.617 304.861,310.586 304.880,307.400 308.154 C 304.269 311.372,304.127 311.464,300.800 312.393 C 295.697 313.818,294.440 314.472,291.624 317.165 C 288.261 320.381,285.718 321.793,281.531 322.770 C 276.850 323.861,276.232 324.205,274.539 326.663 C 272.171 330.101,268.713 331.923,261.746 333.404 C 257.860 334.230,258.103 334.079,256.446 336.699 C 254.155 340.320,252.326 341.361,244.629 343.423 C 240.890 344.425,239.465 345.394,237.493 348.275 C 236.382 349.899,233.842 351.308,230.199 352.321 C 226.349 353.392,224.941 354.099,222.485 356.195 C 219.566 358.686,218.712 358.623,215.780 355.700 C 213.075 353.003,211.801 350.471,211.202 346.595 C 210.368 341.207,210.861 215.867,211.726 213.294 C 212.697 210.407,214.331 208.689,217.314 207.421 C 219.468 206.506,219.977 206.080,220.917 204.408 C 222.278 201.987,223.813 200.672,226.284 199.809 C 230.747 198.251,234.133 196.339,235.889 194.385 C 238.227 191.785,241.533 189.835,245.405 188.773 C 249.977 187.519,251.021 186.927,251.832 185.128 C 253.166 182.170,258.544 179.087,266.651 176.635 C 267.119 176.493,268.149 175.403,268.939 174.212 C 270.581 171.739,272.703 170.327,276.111 169.440 C 279.581 168.536,282.055 167.032,283.118 165.179 C 284.710 162.405,289.450 159.756,295.603 158.202 C 298.744 157.408,299.245 157.064,300.318 154.961 C 301.524 152.596,303.539 151.018,306.625 150.021 C 310.815 148.668,312.962 147.411,315.717 144.699 C 318.681 141.782,321.188 140.322,324.800 139.412 C 329.478 138.233,330.747 137.600,331.917 135.858 C 334.497 132.016,337.780 130.723,340.426 132.506 M75.118 142.498 C 75.954 143.051,77.071 144.320,77.599 145.316 C 78.747 147.481,79.811 148.053,84.878 149.233 C 91.110 150.684,95.319 152.990,96.372 155.531 C 97.027 157.114,99.101 158.169,103.888 159.353 C 109.483 160.737,113.252 162.795,114.681 165.245 C 115.691 166.976,121.127 169.572,123.800 169.600 C 125.447 169.617,128.964 171.682,131.538 174.145 C 134.248 176.738,137.431 178.285,142.800 179.618 C 145.627 180.320,147.808 181.811,149.804 184.406 C 150.818 185.723,151.911 186.800,152.233 186.800 C 152.777 186.800,159.567 188.892,163.516 190.277 C 165.817 191.084,167.359 192.450,168.404 194.608 C 169.193 196.238,169.473 196.455,171.535 197.031 C 184.914 200.770,186.452 202.033,187.581 210.200 C 188.344 215.723,188.181 344.047,187.407 346.651 C 185.031 354.652,175.585 354.654,166.948 346.655 C 164.429 344.322,163.703 343.890,160.748 342.966 C 153.788 340.788,153.448 340.570,149.973 336.083 C 149.112 334.971,148.329 334.585,144.957 333.607 C 136.549 331.170,135.156 330.398,132.948 326.945 C 131.324 324.407,130.912 324.161,127.053 323.423 C 120.694 322.206,117.089 320.240,114.606 316.635 C 112.942 314.218,113.468 314.478,106.000 312.389 C 102.561 311.427,99.671 309.614,96.967 306.723 C 95.021 304.643,93.175 303.765,87.434 302.189 C 85.351 301.617,84.678 301.148,81.808 298.270 L 78.548 295.000 74.006 293.609 C 66.138 291.201,65.022 289.955,63.405 281.769 L 62.383 276.600 62.499 214.400 C 62.592 164.450,62.719 151.711,63.147 149.715 C 64.709 142.433,70.104 139.180,75.118 142.498 " stroke="none" fill="#4c4c4c" fill-rule="evenodd"></path><path id="path1" d="M193.000 23.199 C 185.050 24.894,183.161 25.752,177.200 30.376 C 175.515 31.683,173.438 32.814,171.296 33.590 C 166.708 35.253,165.293 36.035,162.356 38.531 C 159.641 40.838,155.618 43.036,152.000 44.189 C 148.911 45.174,146.633 46.564,143.812 49.189 C 141.666 51.185,140.678 51.733,135.491 53.798 C 130.135 55.931,129.335 56.383,126.590 58.834 C 124.054 61.099,122.955 61.763,119.687 63.010 C 114.777 64.882,112.087 66.366,109.104 68.848 C 106.487 71.026,104.905 71.916,101.108 73.345 C 97.189 74.820,95.645 75.710,92.588 78.257 C 89.701 80.663,87.418 81.872,81.747 84.001 C 79.249 84.939,77.856 85.786,75.747 87.652 C 72.742 90.310,70.645 91.476,64.626 93.836 C 61.333 95.126,60.186 95.821,57.936 97.886 C 56.443 99.257,54.181 100.906,52.910 101.551 C 49.289 103.391,47.387 104.969,45.574 107.638 C 44.651 108.997,42.846 111.095,41.561 112.301 C 36.491 117.061,36.806 110.847,36.810 206.000 C 36.813 299.644,36.387 292.360,42.214 298.400 C 43.806 300.050,45.783 302.480,46.608 303.800 C 48.887 307.447,49.454 307.922,54.200 310.174 C 56.870 311.441,59.779 313.212,61.600 314.678 C 64.632 317.120,68.069 319.066,71.000 320.000 C 73.815 320.896,76.356 322.368,78.602 324.402 C 80.896 326.479,84.064 328.258,88.330 329.863 C 92.389 331.391,94.035 332.365,96.731 334.834 C 98.544 336.493,100.134 337.505,102.331 338.397 C 110.179 341.584,111.377 342.214,114.286 344.686 C 117.377 347.313,119.082 348.337,121.800 349.199 C 125.050 350.231,129.066 352.410,131.400 354.409 C 133.837 356.497,137.698 358.675,140.600 359.599 C 143.416 360.497,145.956 361.968,148.202 364.002 C 150.496 366.079,153.664 367.858,157.930 369.463 C 162.017 371.002,163.649 371.969,166.243 374.388 C 168.264 376.273,169.439 376.966,173.043 378.398 C 179.264 380.872,181.579 382.095,184.037 384.207 C 192.290 391.302,215.074 391.178,223.006 383.995 C 225.497 381.739,226.738 381.052,231.974 379.031 C 236.322 377.352,237.824 376.510,240.600 374.193 C 243.496 371.777,245.451 370.635,248.710 369.460 C 252.802 367.983,254.337 367.132,257.454 364.605 C 260.342 362.265,263.890 360.368,268.665 358.611 C 270.771 357.836,272.255 356.916,274.265 355.139 C 277.702 352.101,279.043 351.342,285.022 349.045 C 289.335 347.389,290.171 346.901,292.955 344.415 C 295.584 342.067,296.667 341.406,299.933 340.155 C 305.573 337.994,307.915 336.730,310.534 334.431 C 313.083 332.193,314.601 331.320,318.492 329.855 C 322.347 328.404,324.038 327.449,327.054 325.016 C 330.114 322.549,333.009 320.987,337.870 319.181 C 340.472 318.213,341.725 317.440,344.008 315.393 C 346.068 313.545,348.323 312.085,352.005 310.213 C 358.749 306.783,358.929 306.609,363.399 299.181 C 368.089 291.388,369.929 287.583,370.486 284.529 C 371.041 281.483,371.385 144.538,370.865 133.600 C 370.413 124.094,369.290 119.801,366.222 115.850 C 365.238 114.583,363.955 112.522,363.372 111.273 C 362.789 110.023,362.041 108.413,361.708 107.695 C 360.912 105.975,359.489 104.823,355.601 102.752 C 353.834 101.810,351.207 99.991,349.763 98.709 C 346.975 96.235,343.800 94.458,338.532 92.427 C 336.096 91.487,334.613 90.576,332.547 88.749 C 329.464 86.023,328.244 85.325,323.200 83.400 C 318.126 81.464,316.632 80.620,314.006 78.205 C 311.309 75.726,310.812 75.443,305.350 73.279 C 300.861 71.499,298.722 70.267,296.254 68.038 C 293.968 65.972,292.351 65.061,288.097 63.437 C 283.907 61.838,283.105 61.377,279.829 58.687 C 277.276 56.591,274.121 54.861,270.057 53.332 C 266.294 51.915,265.373 51.366,262.800 49.000 C 260.111 46.528,259.562 46.216,254.015 44.006 C 248.242 41.706,247.147 41.088,244.732 38.768 C 242.313 36.444,241.292 35.863,236.093 33.857 C 231.631 32.134,229.693 31.033,226.839 28.596 C 220.092 22.837,205.565 20.520,193.000 23.199 M213.446 27.197 C 220.057 28.081,219.819 27.955,222.649 32.065 C 224.166 34.268,225.760 35.080,232.200 36.933 C 235.416 37.859,237.307 38.626,237.932 39.257 C 238.444 39.776,239.794 41.203,240.932 42.430 C 242.917 44.571,243.200 44.724,248.000 46.279 C 252.805 47.836,253.109 48.002,255.800 50.532 C 259.334 53.856,261.327 54.944,266.199 56.210 C 271.087 57.480,271.080 57.476,272.994 60.117 C 275.453 63.510,278.980 65.436,284.929 66.633 C 288.972 67.447,289.425 67.711,290.998 70.170 C 293.256 73.700,296.744 75.566,304.206 77.236 C 305.941 77.625,306.765 78.074,307.735 79.159 C 312.091 84.033,312.326 84.195,317.273 85.744 C 322.012 87.227,322.580 87.560,326.756 91.308 C 329.481 93.754,332.034 95.050,335.611 95.802 C 339.409 96.601,340.367 97.165,342.394 99.792 C 344.652 102.719,350.778 106.259,354.886 107.012 C 355.703 107.161,356.561 107.512,356.792 107.791 C 357.512 108.658,360.748 117.151,361.656 120.557 C 362.132 122.341,362.931 124.737,363.431 125.883 C 365.600 130.848,365.646 132.653,365.518 207.800 C 365.389 282.989,365.478 280.074,363.126 285.800 C 362.367 287.646,361.227 291.378,360.371 294.815 C 359.957 296.480,357.295 300.182,355.696 301.318 C 355.080 301.756,354.131 302.724,353.588 303.468 C 352.451 305.027,348.795 307.195,345.600 308.205 C 342.714 309.118,341.034 310.419,339.356 313.042 C 338.397 314.541,337.653 315.258,336.891 315.416 C 328.284 317.209,322.799 320.004,321.037 323.496 C 320.355 324.849,317.871 326.400,316.387 326.400 C 312.833 326.400,305.859 329.917,303.672 332.811 C 302.037 334.977,299.822 336.220,295.731 337.268 C 291.653 338.313,290.679 338.860,287.589 341.841 C 284.906 344.429,282.039 345.954,277.200 347.370 C 273.758 348.376,271.977 349.596,270.155 352.195 C 268.890 354.000,268.157 354.659,267.141 354.908 C 257.518 357.268,252.539 360.013,251.405 363.584 C 251.123 364.473,249.117 365.330,244.800 366.406 C 239.210 367.799,233.200 371.552,233.200 373.650 C 233.200 374.272,229.309 375.966,226.341 376.635 C 221.899 377.637,216.894 380.581,215.636 382.932 C 213.211 387.464,193.158 386.642,189.378 381.856 C 187.288 379.210,185.703 378.168,182.223 377.153 C 176.498 375.485,174.346 374.376,171.321 371.541 C 167.880 368.315,167.145 367.908,162.772 366.799 C 158.795 365.791,156.231 364.408,155.417 362.832 C 154.046 360.182,150.449 358.153,144.017 356.404 C 138.670 354.951,138.479 354.839,137.101 352.372 C 135.458 349.428,132.610 347.987,122.961 345.218 C 120.305 344.455,120.075 344.297,119.385 342.767 C 118.350 340.472,116.067 338.664,113.103 337.792 C 107.044 336.009,104.234 334.600,101.973 332.209 C 99.216 329.294,97.401 328.255,93.291 327.240 C 89.657 326.343,86.568 324.758,86.201 323.604 C 85.450 321.237,80.697 318.492,74.754 316.994 C 69.913 315.773,69.080 315.314,68.044 313.294 C 66.628 310.533,63.402 308.600,56.173 306.182 C 52.210 304.856,52.408 305.035,50.461 301.032 C 49.567 299.194,48.104 296.815,47.210 295.745 C 46.317 294.675,44.964 293.056,44.205 292.146 C 43.445 291.236,42.234 289.542,41.512 288.381 L 40.200 286.271 40.082 207.235 C 39.942 113.507,39.692 118.589,44.561 116.005 C 46.886 114.771,48.085 113.151,49.238 109.687 C 50.160 106.914,51.224 106.125,54.978 105.428 C 57.532 104.953,59.980 103.482,63.600 100.248 C 66.910 97.290,67.127 97.169,71.789 95.705 C 76.093 94.353,76.754 94.017,78.305 92.400 C 82.466 88.063,83.052 87.577,84.600 87.184 C 93.411 84.950,95.887 83.665,98.200 80.125 C 99.934 77.472,99.876 77.502,105.789 76.189 C 110.643 75.112,114.037 73.194,116.205 70.302 C 118.477 67.273,118.427 67.303,123.148 66.133 C 127.657 65.016,129.466 64.019,133.623 60.355 C 136.506 57.815,137.082 57.494,141.074 56.202 C 145.999 54.608,147.659 53.714,148.657 52.119 C 149.583 50.637,152.429 48.000,153.101 48.000 C 154.337 48.000,163.520 44.735,164.866 43.818 C 165.672 43.268,166.983 41.745,167.780 40.433 L 169.229 38.048 172.314 37.391 C 179.264 35.911,182.458 34.431,184.828 31.594 C 187.962 27.843,188.137 27.712,190.435 27.390 C 198.532 26.257,205.956 26.194,213.446 27.197 M197.880 47.207 C 197.245 48.114,194.081 49.442,188.294 51.231 C 184.026 52.550,182.323 53.815,180.802 56.795 C 180.143 58.087,179.695 58.444,178.300 58.788 C 169.471 60.964,164.989 63.211,163.266 66.326 C 162.131 68.378,160.916 69.042,156.120 70.230 C 150.937 71.513,147.207 73.549,145.524 76.013 C 143.988 78.263,141.609 79.609,137.473 80.569 C 133.751 81.432,131.946 82.447,129.073 85.295 C 126.824 87.524,121.743 90.400,120.054 90.400 C 117.439 90.400,113.654 92.875,111.774 95.813 C 110.721 97.461,110.127 97.991,109.109 98.194 C 101.788 99.657,95.334 102.879,93.928 105.774 C 92.996 107.693,92.407 108.060,88.120 109.401 C 82.372 111.197,76.617 116.133,77.754 118.289 C 78.937 120.532,83.981 125.236,86.333 126.291 C 87.924 127.003,89.495 128.228,91.600 130.397 C 93.984 132.852,95.011 133.614,96.600 134.109 C 97.700 134.451,100.167 135.215,102.081 135.807 C 105.209 136.773,105.869 137.162,108.579 139.632 C 112.149 142.886,113.753 143.767,118.067 144.840 C 122.988 146.065,124.114 146.646,126.153 149.007 C 128.443 151.659,132.107 153.783,135.841 154.623 C 142.263 156.066,142.589 156.224,144.709 158.922 C 147.129 162.001,150.040 163.657,155.046 164.802 C 161.848 166.358,161.740 166.312,162.933 168.197 C 165.292 171.926,168.085 173.575,174.400 174.967 C 180.170 176.240,180.416 176.369,182.354 179.152 C 188.003 187.262,216.469 187.783,223.399 179.903 C 226.978 175.834,227.200 175.657,229.508 175.013 C 235.145 173.442,235.503 173.209,239.447 168.547 C 240.774 166.978,241.472 166.510,243.047 166.136 C 250.068 164.469,253.927 162.223,256.004 158.594 C 257.166 156.561,257.416 156.362,259.528 155.777 C 266.434 153.865,267.481 153.295,272.000 148.988 C 274.574 146.535,275.031 146.277,279.462 144.779 C 283.694 143.349,284.937 142.454,286.472 139.733 C 287.967 137.085,288.589 136.670,292.277 135.863 C 296.687 134.897,300.890 132.735,302.692 130.505 C 305.565 126.951,306.176 126.491,309.239 125.573 C 314.467 124.007,315.918 122.977,317.591 119.645 C 318.558 117.719,318.532 117.430,317.043 113.511 C 313.462 104.088,311.367 102.147,302.044 99.612 C 296.979 98.235,296.141 97.816,295.809 96.494 C 295.155 93.887,292.453 92.172,285.536 89.974 C 278.833 87.844,278.532 87.666,276.839 84.856 C 275.784 83.106,273.324 81.561,270.400 80.812 C 265.826 79.642,262.663 77.959,260.017 75.289 C 257.197 72.442,255.556 71.549,251.362 70.578 C 248.721 69.966,244.800 68.183,244.800 67.593 C 244.800 65.431,239.399 62.085,233.174 60.393 C 227.681 58.899,227.394 58.748,226.415 56.830 C 224.579 53.230,217.501 49.939,208.800 48.639 C 206.930 48.360,204.522 47.742,203.449 47.266 C 200.926 46.146,198.640 46.122,197.880 47.207 M209.894 53.017 C 213.054 53.738,216.858 55.586,219.412 57.642 C 223.057 60.575,224.572 61.476,228.393 62.981 C 233.467 64.980,233.970 65.263,236.672 67.636 C 239.272 69.919,241.702 71.251,247.238 73.429 C 251.434 75.079,252.422 75.691,255.611 78.616 C 257.354 80.214,258.753 81.011,262.211 82.376 C 268.503 84.860,270.155 85.768,272.791 88.191 C 275.373 90.566,276.292 91.115,280.057 92.532 C 284.091 94.050,287.195 95.760,289.952 97.983 C 292.605 100.123,295.854 101.930,298.600 102.793 C 303.259 104.258,306.562 106.942,310.081 112.121 C 314.055 117.969,313.713 118.699,304.999 122.971 C 300.598 125.129,298.324 126.515,296.469 128.170 C 294.689 129.758,292.491 131.123,289.053 132.774 C 285.419 134.520,283.479 135.746,281.482 137.555 C 278.657 140.115,277.249 140.937,271.411 143.436 C 268.554 144.658,267.249 145.516,265.011 147.641 C 262.759 149.780,261.285 150.745,257.600 152.494 C 254.471 153.979,252.064 155.467,250.074 157.147 C 247.187 159.583,244.041 161.376,239.459 163.196 C 237.813 163.850,236.143 165.028,233.836 167.163 C 231.531 169.295,229.846 170.485,228.177 171.157 C 223.561 173.014,219.613 175.294,216.975 177.622 C 209.892 183.875,196.317 183.667,188.234 177.182 C 184.913 174.518,183.202 173.599,178.480 171.943 C 174.512 170.551,173.170 169.815,169.800 167.180 C 167.019 165.005,163.704 163.275,159.950 162.040 C 156.919 161.043,153.381 159.018,151.157 157.008 C 149.305 155.335,146.961 154.129,142.200 152.400 C 137.302 150.622,136.174 150.006,133.472 147.634 C 130.641 145.150,129.881 144.747,123.848 142.528 C 118.769 140.660,117.820 140.116,114.417 137.117 C 112.955 135.830,111.203 134.798,109.117 133.997 C 107.403 133.339,104.560 132.247,102.800 131.571 C 100.298 130.610,99.001 129.792,96.857 127.825 C 95.348 126.440,93.000 124.714,91.639 123.989 C 83.029 119.399,83.114 115.905,91.926 112.252 C 94.036 111.378,96.655 109.888,98.213 108.677 C 102.259 105.530,104.496 104.233,108.734 102.575 C 112.817 100.977,114.207 100.134,117.663 97.162 C 118.996 96.015,121.154 94.759,123.400 93.823 C 130.215 90.983,132.204 89.953,133.800 88.439 C 136.559 85.820,138.185 84.824,142.330 83.208 C 147.856 81.054,149.099 80.372,152.044 77.870 C 154.657 75.651,157.355 74.106,160.200 73.200 C 163.057 72.290,166.142 70.534,168.995 68.192 C 171.958 65.760,174.556 64.375,179.886 62.382 C 182.446 61.424,183.748 60.630,185.783 58.786 C 192.335 52.849,200.543 50.885,209.894 53.017 M334.734 132.918 C 333.784 133.643,332.516 134.966,331.917 135.858 C 330.747 137.600,329.478 138.233,324.800 139.412 C 321.188 140.322,318.681 141.782,315.717 144.699 C 312.962 147.411,310.815 148.668,306.625 150.021 C 303.539 151.018,301.524 152.596,300.318 154.961 C 299.245 157.064,298.744 157.408,295.603 158.202 C 289.450 159.756,284.710 162.405,283.118 165.179 C 282.055 167.032,279.581 168.536,276.111 169.440 C 272.703 170.327,270.581 171.739,268.939 174.212 C 268.149 175.403,267.119 176.493,266.651 176.635 C 258.544 179.087,253.166 182.170,251.832 185.128 C 251.021 186.927,249.977 187.519,245.405 188.773 C 241.533 189.835,238.227 191.785,235.889 194.385 C 234.133 196.339,230.747 198.251,226.284 199.809 C 223.813 200.672,222.278 201.987,220.917 204.408 C 219.977 206.080,219.468 206.506,217.314 207.421 C 214.331 208.689,212.697 210.407,211.726 213.294 C 210.861 215.867,210.368 341.207,211.202 346.595 C 211.801 350.471,213.075 353.003,215.780 355.700 C 218.712 358.623,219.566 358.686,222.485 356.195 C 224.941 354.099,226.349 353.392,230.199 352.321 C 233.842 351.308,236.382 349.899,237.493 348.275 C 239.465 345.394,240.890 344.425,244.629 343.423 C 252.326 341.361,254.155 340.320,256.446 336.699 C 258.103 334.079,257.860 334.230,261.746 333.404 C 268.713 331.923,272.171 330.101,274.539 326.663 C 276.232 324.205,276.850 323.861,281.531 322.770 C 285.718 321.793,288.261 320.381,291.624 317.165 C 294.440 314.472,295.697 313.818,300.800 312.393 C 304.127 311.464,304.269 311.372,307.400 308.154 C 310.586 304.880,310.617 304.861,314.317 303.821 C 322.319 301.571,323.921 300.635,326.012 296.979 C 326.698 295.781,327.333 294.800,327.424 294.800 C 327.515 294.800,329.296 294.357,331.382 293.815 C 339.978 291.581,343.257 288.552,345.124 281.119 C 345.931 277.904,346.369 151.900,345.596 145.094 C 344.324 133.887,339.926 128.958,334.734 132.918 M338.804 140.700 C 339.577 141.399,340.379 142.822,341.002 144.600 L 341.983 147.400 341.992 211.285 C 342.001 283.578,342.315 276.641,338.792 281.917 C 335.188 287.314,334.312 287.977,325.600 291.895 C 324.170 292.539,321.920 294.019,320.600 295.185 C 318.175 297.327,314.206 299.437,308.939 301.383 C 306.784 302.179,305.354 303.083,303.139 305.047 C 299.765 308.040,299.224 308.359,294.430 310.189 C 289.141 312.207,287.061 313.378,284.267 315.910 C 282.149 317.829,280.945 318.520,276.957 320.105 C 272.282 321.962,271.000 322.710,266.098 326.438 C 264.769 327.449,262.448 328.779,260.941 329.394 C 255.066 331.793,253.314 332.740,251.000 334.772 C 248.334 337.113,245.531 338.655,240.718 340.430 C 237.092 341.767,235.963 342.473,232.739 345.419 C 230.228 347.714,222.442 351.200,219.829 351.200 C 218.156 351.200,216.269 349.470,215.035 346.804 L 214.200 345.000 214.200 281.000 C 214.200 220.221,214.236 216.927,214.919 215.557 C 215.964 213.458,217.771 211.768,220.545 210.296 C 221.888 209.583,224.178 207.879,225.633 206.509 C 227.645 204.614,229.278 203.551,232.456 202.067 C 234.754 200.994,237.310 199.795,238.136 199.404 C 238.961 199.012,240.979 197.472,242.619 195.983 C 244.847 193.959,246.385 192.951,248.700 191.995 C 252.671 190.356,254.073 189.520,256.906 187.102 C 259.897 184.550,262.839 182.797,266.833 181.187 C 269.378 180.161,270.705 179.291,273.154 177.044 C 276.387 174.078,276.621 173.934,282.800 171.090 C 285.314 169.932,287.668 168.448,289.756 166.703 C 291.492 165.253,293.472 163.793,294.156 163.460 C 294.840 163.127,297.110 162.047,299.200 161.060 C 302.035 159.723,303.508 158.733,305.000 157.165 C 306.668 155.411,308.016 154.577,313.132 152.133 C 318.154 149.735,319.712 148.778,321.732 146.852 C 324.667 144.056,325.923 143.369,330.331 142.155 C 332.162 141.650,334.322 140.892,335.131 140.471 C 337.140 139.423,337.410 139.440,338.804 140.700 M68.258 141.963 C 65.752 143.268,63.941 146.016,63.147 149.715 C 62.719 151.711,62.592 164.450,62.499 214.400 L 62.383 276.600 63.405 281.769 C 65.022 289.955,66.138 291.201,74.006 293.609 L 78.548 295.000 81.808 298.270 C 84.678 301.148,85.351 301.617,87.434 302.189 C 93.175 303.765,95.021 304.643,96.967 306.723 C 99.671 309.614,102.561 311.427,106.000 312.389 C 113.468 314.478,112.942 314.218,114.606 316.635 C 117.089 320.240,120.694 322.206,127.053 323.423 C 130.912 324.161,131.324 324.407,132.948 326.945 C 135.156 330.398,136.549 331.170,144.957 333.607 C 148.329 334.585,149.112 334.971,149.973 336.083 C 153.448 340.570,153.788 340.788,160.748 342.966 C 163.703 343.890,164.429 344.322,166.948 346.655 C 175.585 354.654,185.031 354.652,187.407 346.651 C 188.181 344.047,188.344 215.723,187.581 210.200 C 186.452 202.033,184.914 200.770,171.535 197.031 C 169.473 196.455,169.193 196.238,168.404 194.608 C 167.359 192.450,165.817 191.084,163.516 190.277 C 159.567 188.892,152.777 186.800,152.233 186.800 C 151.911 186.800,150.818 185.723,149.804 184.406 C 147.808 181.811,145.627 180.320,142.800 179.618 C 137.431 178.285,134.248 176.738,131.538 174.145 C 128.964 171.682,125.447 169.617,123.800 169.600 C 121.127 169.572,115.691 166.976,114.681 165.245 C 113.252 162.795,109.483 160.737,103.888 159.353 C 99.101 158.169,97.027 157.114,96.372 155.531 C 95.319 152.990,91.110 150.684,84.878 149.233 C 79.811 148.053,78.747 147.481,77.599 145.316 C 75.629 141.601,71.677 140.183,68.258 141.963 M74.977 149.639 C 76.687 150.540,79.282 151.684,80.743 152.181 C 84.381 153.418,87.034 154.838,89.380 156.802 C 92.184 159.150,94.052 160.164,98.848 161.943 C 104.290 163.962,104.908 164.302,107.952 166.950 C 110.449 169.120,112.134 169.973,119.042 172.561 C 122.137 173.720,124.305 175.054,127.413 177.712 C 128.973 179.046,130.723 179.920,135.182 181.593 C 138.776 182.941,141.551 184.249,142.569 185.075 C 147.566 189.125,148.934 189.978,152.099 191.018 C 157.228 192.702,160.784 194.516,163.400 196.783 C 166.084 199.108,167.585 199.963,170.800 200.999 C 177.979 203.313,181.133 205.757,183.236 210.636 L 184.600 213.800 184.600 278.200 C 184.600 347.539,184.699 344.232,182.542 346.797 C 180.493 349.232,178.023 348.745,174.047 345.124 C 171.579 342.875,170.457 342.254,164.785 339.994 C 159.221 337.777,158.561 337.403,156.012 335.023 C 153.257 332.450,152.532 332.006,148.800 330.606 C 143.994 328.803,140.650 326.978,138.164 324.803 C 135.808 322.741,133.269 321.373,128.149 319.407 C 126.580 318.805,124.420 317.612,123.349 316.757 C 119.889 313.996,116.906 312.134,114.122 310.998 C 108.344 308.639,106.525 307.633,104.400 305.615 C 101.923 303.264,100.976 302.725,95.620 300.620 C 90.189 298.486,89.009 297.812,86.258 295.271 C 83.829 293.027,82.730 292.418,76.733 289.993 C 70.580 287.505,68.967 285.820,67.025 279.849 L 66.000 276.698 66.009 216.249 L 66.019 155.800 66.979 153.466 C 69.386 147.612,70.300 147.175,74.977 149.639 " stroke="none" fill="#858585" fill-rule="evenodd"></path><path id="path2" d="M199.800 17.113 C 199.140 17.198,198.317 17.520,197.972 17.830 C 197.077 18.633,193.356 19.862,187.785 21.195 C 180.347 22.975,178.572 23.764,175.825 26.511 C 172.632 29.704,171.244 30.535,167.000 31.796 C 162.744 33.061,160.517 34.277,157.800 36.819 C 154.967 39.470,152.916 40.645,148.778 41.986 C 144.443 43.391,142.901 44.294,140.907 46.596 C 139.361 48.379,136.221 49.998,129.251 52.605 C 126.391 53.674,125.620 54.271,121.926 58.281 C 121.468 58.779,119.433 59.717,117.257 60.436 C 109.994 62.833,107.068 64.431,105.372 66.927 C 104.271 68.548,101.249 70.216,97.563 71.237 C 93.647 72.322,91.266 73.613,88.534 76.129 C 85.383 79.032,83.448 80.183,79.950 81.230 C 75.773 82.482,74.119 83.407,71.783 85.799 C 69.708 87.925,65.570 90.116,60.480 91.783 C 57.924 92.620,55.339 94.512,54.054 96.484 C 53.397 97.492,52.297 98.326,50.454 99.215 C 46.398 101.170,45.009 102.253,43.384 104.728 C 42.564 105.978,40.676 108.170,39.190 109.600 C 33.663 114.916,33.925 109.798,34.105 209.000 C 34.276 303.569,33.794 296.232,40.191 301.707 C 42.099 303.341,43.417 304.851,44.014 306.088 C 45.393 308.944,47.024 310.352,51.200 312.294 C 54.203 313.691,55.505 314.580,57.408 316.531 C 60.061 319.251,63.338 321.073,67.874 322.350 C 72.241 323.580,72.696 323.845,75.723 326.926 C 78.732 329.990,80.727 331.003,88.550 333.444 C 90.518 334.059,91.231 334.559,92.945 336.529 C 95.123 339.034,96.629 339.971,100.792 341.415 C 105.484 343.041,107.758 344.293,110.523 346.769 C 113.687 349.602,115.093 350.384,119.200 351.594 C 122.909 352.687,124.523 353.643,126.686 356.027 C 128.794 358.352,132.547 360.336,137.998 362.008 C 141.556 363.099,142.380 363.513,143.398 364.724 C 146.779 368.746,148.660 369.866,156.019 372.241 C 160.144 373.573,160.335 373.687,162.476 376.111 C 164.838 378.785,165.619 379.228,172.810 381.979 C 176.320 383.322,177.482 384.000,179.797 386.056 C 185.069 390.735,189.428 391.792,203.400 391.779 C 218.656 391.765,224.952 389.833,228.107 384.195 C 228.286 383.875,230.270 383.044,232.516 382.348 C 240.139 379.985,242.223 378.782,246.035 374.544 C 247.254 373.188,247.976 372.808,250.835 372.020 C 256.058 370.579,259.608 368.730,262.480 365.953 C 265.411 363.120,265.983 362.788,270.000 361.585 C 274.280 360.302,275.857 359.409,278.800 356.600 C 281.455 354.067,281.842 353.868,290.956 350.367 C 293.195 349.506,294.964 348.089,297.208 345.355 C 297.985 344.408,299.130 343.826,302.208 342.813 C 309.104 340.542,311.512 339.238,314.230 336.302 C 316.602 333.740,316.761 333.647,320.830 332.399 C 326.264 330.733,329.041 329.227,331.882 326.406 C 334.553 323.753,335.854 323.011,339.704 321.944 C 343.537 320.882,345.107 320.005,348.392 317.088 C 350.279 315.413,352.743 313.799,355.753 312.267 C 360.915 309.640,362.074 308.589,364.427 304.400 C 365.354 302.750,367.238 300.202,368.613 298.738 C 371.376 295.797,372.295 293.834,373.480 288.338 C 374.160 285.187,374.200 280.568,374.200 206.000 C 374.200 112.442,374.527 118.529,369.204 113.023 C 367.354 111.108,366.009 109.237,365.026 107.210 C 363.246 103.539,362.136 102.344,359.245 100.991 C 356.006 99.475,354.201 98.143,353.070 96.434 C 351.578 94.179,339.965 88.400,336.926 88.400 C 336.878 88.400,336.277 87.584,335.591 86.587 C 333.982 84.248,332.279 83.160,327.573 81.466 C 321.939 79.437,319.706 78.182,316.709 75.363 C 314.285 73.082,313.670 72.726,310.509 71.773 C 306.344 70.517,303.202 68.825,301.465 66.901 C 299.271 64.472,296.405 62.841,291.782 61.392 C 287.084 59.919,285.256 58.850,283.797 56.722 C 282.530 54.873,279.372 53.116,274.000 51.269 C 267.804 49.139,267.384 48.917,266.231 47.175 C 264.791 44.998,262.950 43.745,259.168 42.364 C 252.976 40.105,250.016 38.531,248.306 36.589 C 246.479 34.513,244.762 33.542,240.169 31.990 C 236.478 30.742,234.094 29.371,231.800 27.178 C 229.004 24.505,225.907 22.943,221.147 21.805 C 218.731 21.227,215.010 20.120,212.877 19.344 C 207.740 17.474,203.126 16.688,199.800 17.113 M214.582 23.390 C 221.436 24.925,223.630 25.857,226.839 28.596 C 229.693 31.033,231.631 32.134,236.093 33.857 C 241.292 35.863,242.313 36.444,244.732 38.768 C 247.147 41.088,248.242 41.706,254.015 44.006 C 259.562 46.216,260.111 46.528,262.800 49.000 C 265.373 51.366,266.294 51.915,270.057 53.332 C 274.121 54.861,277.276 56.591,279.829 58.687 C 283.105 61.377,283.907 61.838,288.097 63.437 C 292.351 65.061,293.968 65.972,296.254 68.038 C 298.722 70.267,300.861 71.499,305.350 73.279 C 310.812 75.443,311.309 75.726,314.006 78.205 C 316.632 80.620,318.126 81.464,323.200 83.400 C 328.244 85.325,329.464 86.023,332.547 88.749 C 334.613 90.576,336.096 91.487,338.532 92.427 C 343.800 94.458,346.975 96.235,349.763 98.709 C 351.207 99.991,353.834 101.810,355.601 102.752 C 359.489 104.823,360.912 105.975,361.708 107.695 C 362.041 108.413,362.789 110.023,363.372 111.273 C 363.955 112.522,365.238 114.583,366.222 115.850 C 369.290 119.801,370.413 124.094,370.865 133.600 C 371.385 144.538,371.041 281.483,370.486 284.529 C 369.929 287.583,368.089 291.388,363.399 299.181 C 358.929 306.609,358.749 306.783,352.005 310.213 C 348.323 312.085,346.068 313.545,344.008 315.393 C 341.725 317.440,340.472 318.213,337.870 319.181 C 333.009 320.987,330.114 322.549,327.054 325.016 C 324.038 327.449,322.347 328.404,318.492 329.855 C 314.601 331.320,313.083 332.193,310.534 334.431 C 307.915 336.730,305.573 337.994,299.933 340.155 C 296.667 341.406,295.584 342.067,292.955 344.415 C 290.171 346.901,289.335 347.389,285.022 349.045 C 279.043 351.342,277.702 352.101,274.265 355.139 C 272.255 356.916,270.771 357.836,268.665 358.611 C 263.890 360.368,260.342 362.265,257.454 364.605 C 254.337 367.132,252.802 367.983,248.710 369.460 C 245.451 370.635,243.496 371.777,240.600 374.193 C 237.824 376.510,236.322 377.352,231.974 379.031 C 226.738 381.052,225.497 381.739,223.006 383.995 C 215.074 391.178,192.290 391.302,184.037 384.207 C 181.579 382.095,179.264 380.872,173.043 378.398 C 169.439 376.966,168.264 376.273,166.243 374.388 C 163.649 371.969,162.017 371.002,157.930 369.463 C 153.664 367.858,150.496 366.079,148.202 364.002 C 145.956 361.968,143.416 360.497,140.600 359.599 C 137.698 358.675,133.837 356.497,131.400 354.409 C 129.066 352.410,125.050 350.231,121.800 349.199 C 119.082 348.337,117.377 347.313,114.286 344.686 C 111.377 342.214,110.179 341.584,102.331 338.397 C 100.134 337.505,98.544 336.493,96.731 334.834 C 94.035 332.365,92.389 331.391,88.330 329.863 C 84.064 328.258,80.896 326.479,78.602 324.402 C 76.356 322.368,73.815 320.896,71.000 320.000 C 68.069 319.066,64.632 317.120,61.600 314.678 C 59.779 313.212,56.870 311.441,54.200 310.174 C 49.454 307.922,48.887 307.447,46.608 303.800 C 45.783 302.480,43.806 300.050,42.214 298.400 C 36.387 292.360,36.813 299.644,36.810 206.000 C 36.806 110.847,36.491 117.061,41.561 112.301 C 42.846 111.095,44.651 108.997,45.574 107.638 C 47.387 104.969,49.289 103.391,52.910 101.551 C 54.181 100.906,56.443 99.257,57.936 97.886 C 60.186 95.821,61.333 95.126,64.626 93.836 C 70.645 91.476,72.742 90.310,75.747 87.652 C 77.856 85.786,79.249 84.939,81.747 84.001 C 87.418 81.872,89.701 80.663,92.588 78.257 C 95.645 75.710,97.189 74.820,101.108 73.345 C 104.905 71.916,106.487 71.026,109.104 68.848 C 112.087 66.366,114.777 64.882,119.687 63.010 C 122.955 61.763,124.054 61.099,126.590 58.834 C 129.335 56.383,130.135 55.931,135.491 53.798 C 140.678 51.733,141.666 51.185,143.812 49.189 C 146.633 46.564,148.911 45.174,152.000 44.189 C 155.618 43.036,159.641 40.838,162.356 38.531 C 165.293 36.035,166.708 35.253,171.296 33.590 C 173.438 32.814,175.515 31.683,177.200 30.376 C 183.161 25.752,185.050 24.894,193.000 23.199 C 200.884 21.518,206.445 21.567,214.582 23.390 M195.400 53.329 C 190.278 55.234,188.738 56.108,185.783 58.786 C 183.748 60.630,182.446 61.424,179.886 62.382 C 174.556 64.375,171.958 65.760,168.995 68.192 C 166.142 70.534,163.057 72.290,160.200 73.200 C 157.355 74.106,154.657 75.651,152.044 77.870 C 149.099 80.372,147.856 81.054,142.330 83.208 C 138.185 84.824,136.559 85.820,133.800 88.439 C 132.204 89.953,130.215 90.983,123.400 93.823 C 121.154 94.759,118.996 96.015,117.663 97.162 C 114.207 100.134,112.817 100.977,108.734 102.575 C 104.496 104.233,102.259 105.530,98.213 108.677 C 96.655 109.888,94.036 111.378,91.926 112.252 C 83.114 115.905,83.029 119.399,91.639 123.989 C 93.000 124.714,95.348 126.440,96.857 127.825 C 99.001 129.792,100.298 130.610,102.800 131.571 C 104.560 132.247,107.403 133.339,109.117 133.997 C 111.203 134.798,112.955 135.830,114.417 137.117 C 117.820 140.116,118.769 140.660,123.848 142.528 C 129.881 144.747,130.641 145.150,133.472 147.634 C 136.174 150.006,137.302 150.622,142.200 152.400 C 146.961 154.129,149.305 155.335,151.157 157.008 C 153.381 159.018,156.919 161.043,159.950 162.040 C 163.704 163.275,167.019 165.005,169.800 167.180 C 173.170 169.815,174.512 170.551,178.480 171.943 C 183.202 173.599,184.913 174.518,188.234 177.182 C 196.317 183.667,209.892 183.875,216.975 177.622 C 219.613 175.294,223.561 173.014,228.177 171.157 C 229.846 170.485,231.531 169.295,233.836 167.163 C 236.143 165.028,237.813 163.850,239.459 163.196 C 244.041 161.376,247.187 159.583,250.074 157.147 C 252.064 155.467,254.471 153.979,257.600 152.494 C 261.285 150.745,262.759 149.780,265.011 147.641 C 267.249 145.516,268.554 144.658,271.411 143.436 C 277.249 140.937,278.657 140.115,281.482 137.555 C 283.479 135.746,285.419 134.520,289.053 132.774 C 292.491 131.123,294.689 129.758,296.469 128.170 C 298.324 126.515,300.598 125.129,304.999 122.971 C 313.713 118.699,314.055 117.969,310.081 112.121 C 306.562 106.942,303.259 104.258,298.600 102.793 C 295.854 101.930,292.605 100.123,289.952 97.983 C 287.195 95.760,284.091 94.050,280.057 92.532 C 276.292 91.115,275.373 90.566,272.791 88.191 C 270.155 85.768,268.503 84.860,262.211 82.376 C 258.753 81.011,257.354 80.214,255.611 78.616 C 252.422 75.691,251.434 75.079,247.238 73.429 C 241.702 71.251,239.272 69.919,236.672 67.636 C 233.970 65.263,233.467 64.980,228.393 62.981 C 224.572 61.476,223.057 60.575,219.412 57.642 C 213.063 52.531,202.597 50.651,195.400 53.329 M210.427 56.245 C 211.836 56.663,213.214 57.609,215.579 59.781 C 218.961 62.885,221.392 64.275,225.400 65.394 C 230.131 66.715,231.056 67.210,232.999 69.460 C 235.644 72.524,237.141 73.390,243.668 75.633 C 246.820 76.717,249.632 77.918,249.917 78.302 C 252.570 81.888,254.145 82.887,261.800 85.838 C 265.178 87.140,266.211 87.765,268.446 89.854 C 271.378 92.596,272.866 93.456,277.000 94.800 C 281.084 96.128,282.648 97.018,285.097 99.409 C 287.754 102.003,291.550 104.061,295.757 105.188 C 300.400 106.433,300.982 106.840,302.775 110.107 C 303.649 111.698,305.182 113.802,306.182 114.783 C 308.560 117.116,308.496 117.415,305.300 118.877 C 295.770 123.236,296.018 123.089,293.059 126.127 C 290.537 128.715,289.850 129.183,287.394 129.992 C 283.191 131.375,281.220 132.493,278.269 135.167 C 275.696 137.498,272.715 139.255,268.000 141.215 C 265.165 142.394,263.434 143.684,261.967 145.709 C 260.490 147.748,259.117 148.587,255.258 149.806 C 251.377 151.032,247.911 153.088,245.548 155.567 C 243.394 157.827,241.075 159.273,237.800 160.400 C 234.319 161.598,232.237 162.970,230.677 165.095 C 229.367 166.877,228.881 167.167,223.139 169.594 C 217.219 172.095,213.200 174.827,213.200 176.350 C 213.200 176.563,212.091 177.292,210.736 177.969 C 205.265 180.703,196.427 179.388,192.621 175.274 C 190.682 173.179,186.601 171.057,182.373 169.948 C 178.422 168.910,175.858 167.452,174.067 165.223 C 172.532 163.314,168.510 161.258,163.800 159.976 C 159.422 158.784,158.038 158.006,155.116 155.091 C 152.479 152.461,150.677 151.557,144.200 149.611 C 140.085 148.374,138.334 147.389,137.076 145.602 C 135.586 143.486,133.501 142.324,127.335 140.175 C 121.236 138.050,119.200 137.193,119.200 136.753 C 119.200 135.223,115.054 132.380,110.800 130.994 C 105.211 129.172,102.255 127.591,99.544 124.974 C 97.574 123.072,95.991 121.991,93.490 120.842 C 87.554 118.112,87.621 116.832,93.800 114.992 C 98.376 113.630,101.582 111.839,104.544 108.989 C 106.952 106.672,108.751 105.697,112.722 104.554 C 116.118 103.577,117.609 102.701,120.694 99.870 C 123.128 97.636,124.056 97.089,127.845 95.649 C 134.333 93.184,136.188 92.148,137.852 90.058 C 139.936 87.442,140.017 87.393,144.957 85.758 C 151.385 83.631,153.061 82.699,156.000 79.616 C 158.541 76.949,158.695 76.858,162.800 75.598 C 168.411 73.874,170.395 72.810,173.590 69.809 C 176.715 66.875,177.545 66.398,181.600 65.209 C 185.372 64.104,187.606 62.822,190.411 60.152 C 192.507 58.158,194.581 56.986,198.200 55.752 C 200.158 55.085,207.519 55.381,210.427 56.245 M335.131 140.471 C 334.322 140.892,332.162 141.650,330.331 142.155 C 325.923 143.369,324.667 144.056,321.732 146.852 C 319.712 148.778,318.154 149.735,313.132 152.133 C 308.016 154.577,306.668 155.411,305.000 157.165 C 303.508 158.733,302.035 159.723,299.200 161.060 C 297.110 162.047,294.840 163.127,294.156 163.460 C 293.472 163.793,291.492 165.253,289.756 166.703 C 287.668 168.448,285.314 169.932,282.800 171.090 C 276.621 173.934,276.387 174.078,273.154 177.044 C 270.705 179.291,269.378 180.161,266.833 181.187 C 262.839 182.797,259.897 184.550,256.906 187.102 C 254.073 189.520,252.671 190.356,248.700 191.995 C 246.385 192.951,244.847 193.959,242.619 195.983 C 240.979 197.472,238.961 199.012,238.136 199.404 C 237.310 199.795,234.754 200.994,232.456 202.067 C 229.278 203.551,227.645 204.614,225.633 206.509 C 224.178 207.879,221.888 209.583,220.545 210.296 C 217.771 211.768,215.964 213.458,214.919 215.557 C 214.236 216.927,214.200 220.221,214.200 281.000 L 214.200 345.000 215.035 346.804 C 216.269 349.470,218.156 351.200,219.829 351.200 C 222.442 351.200,230.228 347.714,232.739 345.419 C 235.963 342.473,237.092 341.767,240.718 340.430 C 245.531 338.655,248.334 337.113,251.000 334.772 C 253.314 332.740,255.066 331.793,260.941 329.394 C 262.448 328.779,264.769 327.449,266.098 326.438 C 271.000 322.710,272.282 321.962,276.957 320.105 C 280.945 318.520,282.149 317.829,284.267 315.910 C 287.061 313.378,289.141 312.207,294.430 310.189 C 299.224 308.359,299.765 308.040,303.139 305.047 C 305.354 303.083,306.784 302.179,308.939 301.383 C 314.206 299.437,318.175 297.327,320.600 295.185 C 321.920 294.019,324.170 292.539,325.600 291.895 C 334.312 287.977,335.188 287.314,338.792 281.917 C 342.315 276.641,342.001 283.578,341.992 211.285 L 341.983 147.400 341.002 144.600 C 339.445 140.155,337.866 139.044,335.131 140.471 M337.256 146.365 L 338.200 147.129 338.307 210.971 C 338.399 265.803,338.333 274.966,337.840 275.906 C 337.525 276.508,336.444 277.877,335.439 278.949 C 334.434 280.022,333.163 281.847,332.614 283.007 C 331.065 286.280,329.808 287.117,323.600 289.005 C 320.781 289.862,317.132 292.071,315.711 293.781 C 314.353 295.415,310.234 297.703,307.000 298.620 C 303.535 299.604,302.054 300.463,299.800 302.801 C 297.705 304.973,294.791 306.559,289.190 308.573 C 285.079 310.052,282.965 311.367,281.751 313.202 C 280.365 315.297,279.540 315.776,274.080 317.655 C 268.042 319.733,265.866 320.941,263.849 323.333 C 261.770 325.799,259.841 326.906,255.707 328.007 C 251.871 329.029,248.380 330.965,246.400 333.171 C 244.725 335.036,240.709 337.285,237.400 338.211 C 234.203 339.105,232.113 340.354,230.028 342.616 C 225.705 347.306,218.684 348.782,217.243 345.304 C 216.457 343.406,216.805 217.790,217.601 216.200 C 218.201 215.001,219.444 214.243,224.095 212.238 C 225.541 211.615,227.465 210.240,229.295 208.524 C 231.865 206.114,232.797 205.547,237.386 203.600 C 242.642 201.370,243.498 200.762,246.800 196.915 C 247.977 195.544,248.727 195.123,251.508 194.272 C 255.830 192.950,259.380 190.931,262.046 188.279 C 264.570 185.767,266.745 184.464,270.599 183.152 C 273.377 182.207,275.026 180.910,278.000 177.331 C 278.685 176.506,279.881 175.835,281.800 175.198 C 287.846 173.193,290.869 171.496,293.417 168.676 C 295.627 166.231,299.184 164.010,300.911 163.996 C 302.269 163.985,305.972 161.717,308.338 159.448 C 311.099 156.799,313.030 155.654,318.196 153.602 C 322.227 152.000,322.849 151.553,325.184 148.583 C 327.398 145.765,327.428 145.754,332.856 145.660 C 335.720 145.610,336.473 145.731,337.256 146.365 M69.024 149.566 C 68.427 150.427,67.506 152.182,66.979 153.466 L 66.019 155.800 66.009 216.249 L 66.000 276.698 67.025 279.849 C 68.967 285.820,70.580 287.505,76.733 289.993 C 82.730 292.418,83.829 293.027,86.258 295.271 C 89.009 297.812,90.189 298.486,95.620 300.620 C 100.976 302.725,101.923 303.264,104.400 305.615 C 106.525 307.633,108.344 308.639,114.122 310.998 C 116.906 312.134,119.889 313.996,123.349 316.757 C 124.420 317.612,126.580 318.805,128.149 319.407 C 133.269 321.373,135.808 322.741,138.164 324.803 C 140.650 326.978,143.994 328.803,148.800 330.606 C 152.532 332.006,153.257 332.450,156.012 335.023 C 158.561 337.403,159.221 337.777,164.785 339.994 C 170.457 342.254,171.579 342.875,174.047 345.124 C 178.023 348.745,180.493 349.232,182.542 346.797 C 184.699 344.232,184.600 347.539,184.600 278.200 L 184.600 213.800 183.236 210.636 C 181.133 205.757,177.979 203.313,170.800 200.999 C 167.585 199.963,166.084 199.108,163.400 196.783 C 160.784 194.516,157.228 192.702,152.099 191.018 C 148.934 189.978,147.566 189.125,142.569 185.075 C 141.551 184.249,138.776 182.941,135.182 181.593 C 130.723 179.920,128.973 179.046,127.413 177.712 C 124.305 175.054,122.137 173.720,119.042 172.561 C 112.134 169.973,110.449 169.120,107.952 166.950 C 104.908 164.302,104.290 163.962,98.848 161.943 C 94.052 160.164,92.184 159.150,89.380 156.802 C 87.034 154.838,84.381 153.418,80.743 152.181 C 79.282 151.684,76.687 150.540,74.977 149.639 C 71.065 147.578,70.407 147.570,69.024 149.566 M77.200 154.287 C 82.329 155.747,83.356 156.294,85.393 158.654 C 87.570 161.175,90.188 162.625,95.403 164.199 C 101.783 166.125,102.170 166.321,103.729 168.409 C 105.648 170.979,107.703 172.120,114.587 174.436 C 120.145 176.305,120.387 176.434,122.458 178.624 C 124.903 181.209,126.152 181.922,131.533 183.800 C 137.512 185.886,138.090 186.192,140.934 188.769 C 143.918 191.474,145.511 192.386,149.000 193.388 C 153.523 194.687,156.135 196.034,158.613 198.347 C 161.386 200.935,164.082 202.352,168.537 203.564 C 174.358 205.148,180.567 210.815,181.953 215.808 C 182.665 218.370,182.557 333.403,181.838 338.400 C 181.057 343.834,179.446 346.393,178.215 344.154 C 176.990 341.927,174.149 339.699,171.400 338.809 C 164.885 336.701,161.924 335.171,158.952 332.378 C 156.354 329.936,155.755 329.585,152.152 328.384 C 147.592 326.866,145.132 325.461,142.437 322.836 C 140.280 320.736,136.665 318.850,132.800 317.809 C 129.404 316.894,127.376 315.665,125.344 313.289 C 123.503 311.137,120.351 309.394,115.800 308.012 C 111.163 306.603,108.938 305.391,107.781 303.643 C 106.418 301.583,104.486 300.290,100.800 298.970 C 95.405 297.038,91.426 295.001,90.181 293.534 C 88.265 291.275,86.319 290.057,82.635 288.812 C 76.079 286.596,71.196 282.529,69.352 277.751 C 68.169 274.682,68.179 157.908,69.363 155.282 C 70.143 153.552,71.835 152.588,73.200 153.096 C 73.530 153.219,75.330 153.755,77.200 154.287 " stroke="none" fill="#bebebe" fill-rule="evenodd"></path><path id="path3" d="M196.400 12.221 C 193.621 12.994,191.389 14.521,189.838 16.714 C 189.172 17.657,188.260 18.496,187.813 18.579 C 173.837 21.165,172.067 22.065,170.054 27.612 C 169.726 28.516,169.349 28.674,166.538 29.083 C 158.311 30.283,153.882 32.573,152.552 36.318 C 151.711 38.686,151.447 38.828,146.200 39.753 C 139.784 40.884,135.700 43.151,134.113 46.462 C 133.110 48.553,132.571 48.833,127.244 50.033 C 124.042 50.755,120.793 52.249,120.116 53.310 C 119.942 53.582,119.113 54.317,118.273 54.944 C 117.433 55.570,116.552 56.506,116.317 57.023 C 115.888 57.964,115.489 58.117,106.885 60.632 C 104.134 61.436,102.281 63.106,101.172 65.782 L 100.278 67.939 97.639 68.384 C 88.033 70.005,82.800 73.067,82.800 77.064 C 82.800 77.872,81.419 78.403,77.787 78.991 C 70.542 80.164,65.880 82.716,64.687 86.161 C 64.093 87.877,62.557 88.634,57.838 89.533 C 54.425 90.184,52.560 91.292,49.400 94.544 C 47.860 96.129,45.738 97.927,44.684 98.539 C 43.630 99.151,42.167 100.181,41.431 100.826 C 40.696 101.472,39.921 102.000,39.709 102.000 C 38.812 102.000,36.345 105.001,35.027 107.696 C 31.454 115.000,31.400 116.467,31.400 206.000 C 31.400 303.583,31.205 300.877,38.574 305.356 C 39.970 306.204,40.678 306.982,41.232 308.275 C 42.910 312.190,44.866 313.663,49.140 314.230 C 51.046 314.483,53.200 316.429,53.200 317.899 C 53.200 320.194,56.709 322.384,62.400 323.640 C 64.710 324.150,67.271 324.980,68.092 325.484 C 68.913 325.988,69.752 326.400,69.956 326.400 C 70.161 326.400,70.719 327.206,71.195 328.191 C 72.705 331.310,73.846 331.954,81.064 333.765 C 83.221 334.306,83.817 334.686,85.859 336.827 C 89.851 341.013,92.669 342.503,98.344 343.430 C 102.180 344.056,102.480 344.244,104.043 347.015 C 106.355 351.111,109.961 352.852,118.072 353.788 C 120.514 354.070,121.615 355.026,122.751 357.847 C 123.862 360.605,125.507 361.600,131.274 363.001 C 138.104 364.660,139.290 365.241,140.451 367.499 C 140.955 368.479,142.066 369.879,142.919 370.609 C 144.413 371.888,145.023 372.101,150.459 373.237 C 152.356 373.633,153.092 374.067,155.059 375.948 C 159.595 380.287,162.492 382.108,165.600 382.575 C 171.463 383.455,171.425 383.437,173.145 386.159 C 176.135 390.894,178.505 391.955,188.505 393.036 C 192.029 393.417,195.408 394.012,196.515 394.447 C 198.949 395.404,201.785 395.399,207.600 394.427 C 210.130 394.004,214.360 393.458,217.000 393.214 C 226.319 392.353,227.185 392.007,233.000 386.826 C 236.440 383.761,236.733 383.591,239.600 382.992 C 244.372 381.995,246.003 381.211,247.502 379.193 C 250.441 375.236,250.823 374.859,252.487 374.278 C 253.429 373.949,255.986 373.301,258.169 372.837 C 263.609 371.683,265.245 370.659,266.778 367.446 C 268.341 364.172,268.583 363.999,272.262 363.542 C 279.277 362.671,283.341 360.548,285.621 356.564 C 287.046 354.073,287.404 353.874,291.607 353.237 C 295.941 352.581,298.946 350.962,302.786 347.214 C 305.737 344.333,306.229 344.011,308.313 343.600 C 314.627 342.355,315.638 341.779,318.269 337.924 C 319.764 335.734,321.334 334.941,326.800 333.614 C 333.360 332.023,334.645 331.227,336.185 327.800 C 337.461 324.962,338.118 324.528,341.930 324.008 C 349.128 323.026,352.265 321.363,354.745 317.219 C 356.373 314.495,356.305 314.538,361.118 313.226 C 363.817 312.490,365.131 311.036,366.026 307.799 C 366.867 304.756,367.287 304.297,370.907 302.460 C 373.430 301.180,374.946 298.924,375.654 295.400 C 376.289 292.236,376.646 126.136,376.032 119.289 C 375.443 112.721,374.335 110.621,370.394 108.605 C 368.752 107.766,368.461 107.382,367.198 104.396 C 365.536 100.464,364.505 99.504,360.746 98.384 L 357.924 97.544 356.782 95.024 C 355.424 92.029,353.984 90.706,351.347 90.033 C 346.774 88.864,342.800 87.547,342.800 87.201 C 342.800 85.314,336.068 80.694,332.000 79.790 C 326.166 78.493,325.403 78.105,324.505 75.980 C 323.126 72.716,318.436 70.285,311.408 69.190 C 307.529 68.586,306.775 68.134,306.165 66.046 C 305.093 62.376,300.992 60.191,292.422 58.721 C 289.546 58.228,287.600 56.654,287.600 54.822 C 287.600 54.605,287.052 53.804,286.382 53.041 C 285.135 51.620,284.052 51.170,277.037 49.155 C 274.043 48.295,273.708 48.078,270.803 45.130 C 267.449 41.726,265.656 40.723,261.634 40.001 C 257.387 39.239,256.106 38.556,255.235 36.586 C 253.825 33.398,248.474 30.610,241.800 29.586 C 238.443 29.071,237.360 28.439,236.996 26.784 C 236.125 22.818,227.243 19.027,218.308 18.807 C 218.148 18.803,217.666 18.113,217.237 17.273 C 216.211 15.260,213.634 12.971,211.728 12.377 C 209.238 11.602,199.005 11.498,196.400 12.221 M207.200 17.600 C 208.190 17.783,210.745 18.568,212.877 19.344 C 215.010 20.120,218.731 21.227,221.147 21.805 C 225.907 22.943,229.004 24.505,231.800 27.178 C 234.094 29.371,236.478 30.742,240.169 31.990 C 244.762 33.542,246.479 34.513,248.306 36.589 C 250.016 38.531,252.976 40.105,259.168 42.364 C 262.950 43.745,264.791 44.998,266.231 47.175 C 267.384 48.917,267.804 49.139,274.000 51.269 C 279.372 53.116,282.530 54.873,283.797 56.722 C 285.256 58.850,287.084 59.919,291.782 61.392 C 296.405 62.841,299.271 64.472,301.465 66.901 C 303.202 68.825,306.344 70.517,310.509 71.773 C 313.670 72.726,314.285 73.082,316.709 75.363 C 319.706 78.182,321.939 79.437,327.573 81.466 C 332.279 83.160,333.982 84.248,335.591 86.587 C 336.277 87.584,336.878 88.400,336.926 88.400 C 339.965 88.400,351.578 94.179,353.070 96.434 C 354.201 98.143,356.006 99.475,359.245 100.991 C 362.136 102.344,363.246 103.539,365.026 107.210 C 366.009 109.237,367.354 111.108,369.204 113.023 C 374.527 118.529,374.200 112.442,374.200 206.000 C 374.200 280.568,374.160 285.187,373.480 288.338 C 372.295 293.834,371.376 295.797,368.613 298.738 C 367.238 300.202,365.354 302.750,364.427 304.400 C 362.074 308.589,360.915 309.640,355.753 312.267 C 352.743 313.799,350.279 315.413,348.392 317.088 C 345.107 320.005,343.537 320.882,339.704 321.944 C 335.854 323.011,334.553 323.753,331.882 326.406 C 329.041 329.227,326.264 330.733,320.830 332.399 C 316.761 333.647,316.602 333.740,314.230 336.302 C 311.512 339.238,309.104 340.542,302.208 342.813 C 299.130 343.826,297.985 344.408,297.208 345.355 C 294.964 348.089,293.195 349.506,290.956 350.367 C 281.842 353.868,281.455 354.067,278.800 356.600 C 275.857 359.409,274.280 360.302,270.000 361.585 C 265.983 362.788,265.411 363.120,262.480 365.953 C 259.608 368.730,256.058 370.579,250.835 372.020 C 247.976 372.808,247.254 373.188,246.035 374.544 C 242.223 378.782,240.139 379.985,232.516 382.348 C 230.270 383.044,228.286 383.875,228.107 384.195 C 224.952 389.833,218.656 391.765,203.400 391.779 C 189.428 391.792,185.069 390.735,179.797 386.056 C 177.482 384.000,176.320 383.322,172.810 381.979 C 165.619 379.228,164.838 378.785,162.476 376.111 C 160.335 373.687,160.144 373.573,156.019 372.241 C 148.660 369.866,146.779 368.746,143.398 364.724 C 142.380 363.513,141.556 363.099,137.998 362.008 C 132.547 360.336,128.794 358.352,126.686 356.027 C 124.523 353.643,122.909 352.687,119.200 351.594 C 115.093 350.384,113.687 349.602,110.523 346.769 C 107.758 344.293,105.484 343.041,100.792 341.415 C 96.629 339.971,95.123 339.034,92.945 336.529 C 91.231 334.559,90.518 334.059,88.550 333.444 C 80.727 331.003,78.732 329.990,75.723 326.926 C 72.696 323.845,72.241 323.580,67.874 322.350 C 63.338 321.073,60.061 319.251,57.408 316.531 C 55.505 314.580,54.203 313.691,51.200 312.294 C 47.024 310.352,45.393 308.944,44.014 306.088 C 43.417 304.851,42.099 303.341,40.191 301.707 C 33.794 296.232,34.276 303.569,34.105 209.000 C 33.925 109.798,33.663 114.916,39.190 109.600 C 40.676 108.170,42.564 105.978,43.384 104.728 C 45.009 102.253,46.398 101.170,50.454 99.215 C 52.297 98.326,53.397 97.492,54.054 96.484 C 55.339 94.512,57.924 92.620,60.480 91.783 C 65.570 90.116,69.708 87.925,71.783 85.799 C 74.119 83.407,75.773 82.482,79.950 81.230 C 83.448 80.183,85.383 79.032,88.534 76.129 C 91.266 73.613,93.647 72.322,97.563 71.237 C 101.249 70.216,104.271 68.548,105.372 66.927 C 107.068 64.431,109.994 62.833,117.257 60.436 C 119.433 59.717,121.468 58.779,121.926 58.281 C 125.620 54.271,126.391 53.674,129.251 52.605 C 136.221 49.998,139.361 48.379,140.907 46.596 C 142.901 44.294,144.443 43.391,148.778 41.986 C 152.916 40.645,154.967 39.470,157.800 36.819 C 160.517 34.277,162.744 33.061,167.000 31.796 C 171.244 30.535,172.632 29.704,175.825 26.511 C 178.572 23.764,180.347 22.975,187.785 21.195 C 193.356 19.862,197.077 18.633,197.972 17.830 C 199.034 16.877,202.788 16.784,207.200 17.600 M198.200 55.752 C 194.581 56.986,192.507 58.158,190.411 60.152 C 187.606 62.822,185.372 64.104,181.600 65.209 C 177.545 66.398,176.715 66.875,173.590 69.809 C 170.395 72.810,168.411 73.874,162.800 75.598 C 158.695 76.858,158.541 76.949,156.000 79.616 C 153.061 82.699,151.385 83.631,144.957 85.758 C 140.017 87.393,139.936 87.442,137.852 90.058 C 136.188 92.148,134.333 93.184,127.845 95.649 C 124.056 97.089,123.128 97.636,120.694 99.870 C 117.609 102.701,116.118 103.577,112.722 104.554 C 108.751 105.697,106.952 106.672,104.544 108.989 C 101.582 111.839,98.376 113.630,93.800 114.992 C 87.621 116.832,87.554 118.112,93.490 120.842 C 95.991 121.991,97.574 123.072,99.544 124.974 C 102.255 127.591,105.211 129.172,110.800 130.994 C 115.054 132.380,119.200 135.223,119.200 136.753 C 119.200 137.193,121.236 138.050,127.335 140.175 C 133.501 142.324,135.586 143.486,137.076 145.602 C 138.334 147.389,140.085 148.374,144.200 149.611 C 150.677 151.557,152.479 152.461,155.116 155.091 C 158.038 158.006,159.422 158.784,163.800 159.976 C 168.510 161.258,172.532 163.314,174.067 165.223 C 175.858 167.452,178.422 168.910,182.373 169.948 C 186.601 171.057,190.682 173.179,192.621 175.274 C 196.427 179.388,205.265 180.703,210.736 177.969 C 212.091 177.292,213.200 176.563,213.200 176.350 C 213.200 174.827,217.219 172.095,223.139 169.594 C 228.881 167.167,229.367 166.877,230.677 165.095 C 232.237 162.970,234.319 161.598,237.800 160.400 C 241.075 159.273,243.394 157.827,245.548 155.567 C 247.911 153.088,251.377 151.032,255.258 149.806 C 259.117 148.587,260.490 147.748,261.967 145.709 C 263.434 143.684,265.165 142.394,268.000 141.215 C 272.715 139.255,275.696 137.498,278.269 135.167 C 281.220 132.493,283.191 131.375,287.394 129.992 C 289.850 129.183,290.537 128.715,293.059 126.127 C 296.018 123.089,295.770 123.236,305.300 118.877 C 308.496 117.415,308.560 117.116,306.182 114.783 C 305.182 113.802,303.649 111.698,302.775 110.107 C 300.982 106.840,300.400 106.433,295.757 105.188 C 291.550 104.061,287.754 102.003,285.097 99.409 C 282.648 97.018,281.084 96.128,277.000 94.800 C 272.866 93.456,271.378 92.596,268.446 89.854 C 266.211 87.765,265.178 87.140,261.800 85.838 C 254.145 82.887,252.570 81.888,249.917 78.302 C 249.632 77.918,246.820 76.717,243.668 75.633 C 237.141 73.390,235.644 72.524,232.999 69.460 C 231.056 67.210,230.131 66.715,225.400 65.394 C 221.392 64.275,218.961 62.885,215.579 59.781 C 211.265 55.820,203.370 53.990,198.200 55.752 M209.566 58.600 C 209.999 59.040,210.955 60.478,211.691 61.795 C 213.353 64.770,214.871 65.687,220.000 66.817 C 225.257 67.975,228.275 69.406,229.231 71.192 C 231.078 74.643,232.951 75.799,238.654 77.007 C 241.565 77.623,242.093 77.882,243.654 79.457 C 248.053 83.894,251.842 86.162,255.600 86.608 C 259.551 87.077,262.400 88.816,262.400 90.759 C 262.400 92.946,267.787 95.683,274.310 96.809 C 278.881 97.598,279.190 97.818,281.095 101.641 C 282.396 104.251,284.295 105.312,289.600 106.393 C 295.719 107.641,297.695 108.672,298.588 111.082 C 298.979 112.137,299.806 113.959,300.428 115.131 L 301.557 117.263 299.479 118.180 C 298.335 118.684,296.770 119.232,296.000 119.397 C 292.559 120.136,290.431 121.995,288.876 125.622 L 288.096 127.443 285.302 127.876 C 278.310 128.958,273.381 131.582,271.977 134.970 C 270.961 137.422,270.171 137.911,265.800 138.790 C 262.943 139.365,260.414 140.739,259.132 142.413 C 257.503 144.540,254.797 147.200,254.263 147.200 C 253.491 147.200,245.425 149.863,244.062 150.568 C 242.709 151.268,241.318 153.312,240.953 155.137 C 240.605 156.873,240.206 157.102,235.955 158.003 C 229.913 159.283,225.220 162.025,223.585 165.230 C 222.776 166.815,220.887 167.781,216.501 168.852 C 212.863 169.741,210.603 171.735,209.450 175.072 L 208.922 176.600 205.199 176.911 C 199.519 177.386,198.484 177.064,197.536 174.523 C 196.101 170.675,193.249 169.201,184.115 167.585 C 179.177 166.711,179.412 166.845,178.620 164.460 C 177.369 160.695,172.785 158.517,162.900 156.992 C 161.965 156.848,161.200 156.593,161.200 156.427 C 161.200 155.700,157.951 151.186,156.960 150.537 C 156.360 150.144,153.305 149.167,150.171 148.366 C 144.778 146.988,144.400 146.826,143.138 145.355 C 139.588 141.216,137.137 139.549,133.800 139.000 C 128.944 138.203,126.600 137.194,125.475 135.416 C 123.655 132.539,116.944 128.800,113.600 128.800 C 111.163 128.800,107.762 127.203,107.263 125.824 C 106.410 123.465,103.994 121.662,97.127 118.263 L 95.255 117.335 100.284 116.088 C 105.987 114.674,107.021 113.989,108.673 110.534 C 110.034 107.688,110.561 107.326,114.040 106.845 C 121.528 105.810,124.578 104.245,127.407 99.990 C 128.427 98.455,129.383 97.199,129.531 97.199 C 134.057 97.177,139.633 94.956,142.978 91.841 C 144.888 90.062,147.399 87.988,148.264 87.473 C 148.519 87.321,150.139 86.907,151.864 86.552 C 156.414 85.616,157.611 84.878,159.518 81.837 C 161.416 78.809,162.170 78.390,168.219 77.001 C 175.030 75.437,176.280 74.700,177.901 71.288 C 179.294 68.358,180.146 67.813,184.221 67.243 C 190.147 66.414,194.710 64.286,195.992 61.753 C 196.313 61.119,197.102 59.911,197.746 59.069 L 198.917 57.537 203.848 57.669 C 208.148 57.783,208.881 57.903,209.566 58.600 M328.285 145.888 C 327.492 146.008,326.596 146.786,325.184 148.583 C 322.849 151.553,322.227 152.000,318.196 153.602 C 313.030 155.654,311.099 156.799,308.338 159.448 C 305.972 161.717,302.269 163.985,300.911 163.996 C 299.184 164.010,295.627 166.231,293.417 168.676 C 290.869 171.496,287.846 173.193,281.800 175.198 C 279.881 175.835,278.685 176.506,278.000 177.331 C 275.026 180.910,273.377 182.207,270.599 183.152 C 266.745 184.464,264.570 185.767,262.046 188.279 C 259.380 190.931,255.830 192.950,251.508 194.272 C 248.727 195.123,247.977 195.544,246.800 196.915 C 243.498 200.762,242.642 201.370,237.386 203.600 C 232.797 205.547,231.865 206.114,229.295 208.524 C 227.465 210.240,225.541 211.615,224.095 212.238 C 219.444 214.243,218.201 215.001,217.601 216.200 C 216.805 217.790,216.457 343.406,217.243 345.304 C 218.684 348.782,225.705 347.306,230.028 342.616 C 232.113 340.354,234.203 339.105,237.400 338.211 C 240.709 337.285,244.725 335.036,246.400 333.171 C 248.380 330.965,251.871 329.029,255.707 328.007 C 259.841 326.906,261.770 325.799,263.849 323.333 C 265.866 320.941,268.042 319.733,274.080 317.655 C 279.540 315.776,280.365 315.297,281.751 313.202 C 282.965 311.367,285.079 310.052,289.190 308.573 C 294.791 306.559,297.705 304.973,299.800 302.801 C 302.054 300.463,303.535 299.604,307.000 298.620 C 310.234 297.703,314.353 295.415,315.711 293.781 C 317.132 292.071,320.781 289.862,323.600 289.005 C 329.808 287.117,331.065 286.280,332.614 283.007 C 333.163 281.847,334.434 280.022,335.439 278.949 C 336.444 277.877,337.525 276.508,337.840 275.906 C 338.333 274.966,338.399 265.803,338.307 210.971 L 338.200 147.129 337.256 146.365 C 336.326 145.612,331.734 145.368,328.285 145.888 M330.800 154.600 L 331.800 156.600 331.905 215.713 L 332.010 274.826 330.425 278.113 C 329.553 279.921,328.612 282.261,328.333 283.314 C 327.782 285.395,327.976 285.284,323.600 286.018 C 314.934 287.471,310.042 290.566,310.004 294.620 C 309.999 295.192,307.985 295.840,304.422 296.417 C 298.170 297.428,293.562 300.093,292.123 303.527 C 291.492 305.032,290.005 305.804,286.487 306.455 C 281.970 307.290,280.060 308.303,276.765 311.611 C 273.692 314.696,269.595 316.789,266.599 316.804 C 263.677 316.818,259.719 320.393,258.986 323.680 C 258.778 324.614,258.494 324.793,256.873 325.008 C 247.422 326.262,243.310 328.244,241.455 332.437 C 240.386 334.854,239.622 335.283,235.435 335.818 C 229.660 336.555,224.548 339.291,223.116 342.413 C 222.137 344.548,221.474 344.984,219.834 344.573 L 218.800 344.313 218.800 285.372 C 218.800 211.877,218.476 216.172,224.071 215.413 C 226.158 215.130,229.773 213.936,232.032 212.784 C 233.609 211.979,234.498 211.002,236.535 207.833 L 237.800 205.866 241.686 205.008 C 243.909 204.517,245.953 203.818,246.463 203.375 C 247.943 202.089,249.186 200.660,249.799 199.540 C 250.610 198.058,253.545 196.504,258.000 195.199 C 264.443 193.312,264.878 193.011,266.819 189.098 C 268.259 186.196,268.339 186.133,270.981 185.795 C 275.434 185.225,280.781 182.675,282.736 180.191 C 285.538 176.628,285.853 176.416,289.854 175.376 C 294.385 174.199,295.828 173.291,296.854 170.972 C 298.008 168.363,299.924 166.400,301.316 166.400 C 306.765 166.400,313.101 163.085,315.354 159.055 L 316.789 156.489 320.187 155.859 C 323.871 155.175,325.373 154.556,326.581 153.222 C 327.965 151.692,329.615 152.231,330.800 154.600 M71.363 153.232 C 68.410 154.088,68.600 149.748,68.600 216.387 C 68.600 284.281,68.205 277.494,72.440 282.414 C 75.134 285.545,77.662 287.131,82.635 288.812 C 86.319 290.057,88.265 291.275,90.181 293.534 C 91.426 295.001,95.405 297.038,100.800 298.970 C 104.486 300.290,106.418 301.583,107.781 303.643 C 108.938 305.391,111.163 306.603,115.800 308.012 C 120.351 309.394,123.503 311.137,125.344 313.289 C 127.376 315.665,129.404 316.894,132.800 317.809 C 136.665 318.850,140.280 320.736,142.437 322.836 C 145.132 325.461,147.592 326.866,152.152 328.384 C 155.755 329.585,156.354 329.936,158.952 332.378 C 161.924 335.171,164.885 336.701,171.400 338.809 C 174.149 339.699,176.990 341.927,178.215 344.154 C 179.446 346.393,181.057 343.834,181.838 338.400 C 182.557 333.403,182.665 218.370,181.953 215.808 C 180.567 210.815,174.358 205.148,168.537 203.564 C 164.082 202.352,161.386 200.935,158.613 198.347 C 156.135 196.034,153.523 194.687,149.000 193.388 C 145.511 192.386,143.918 191.474,140.934 188.769 C 138.090 186.192,137.512 185.886,131.533 183.800 C 126.152 181.922,124.903 181.209,122.458 178.624 C 120.387 176.434,120.145 176.305,114.587 174.436 C 107.703 172.120,105.648 170.979,103.729 168.409 C 102.170 166.321,101.783 166.125,95.403 164.199 C 90.188 162.625,87.570 161.175,85.393 158.654 C 83.356 156.294,82.329 155.747,77.200 154.287 C 75.330 153.755,73.530 153.219,73.200 153.096 C 72.870 152.974,72.043 153.034,71.363 153.232 M77.873 157.550 C 79.702 158.327,80.496 158.915,80.924 159.811 C 82.605 163.330,84.216 164.361,89.928 165.573 C 94.402 166.522,96.332 167.655,100.534 171.798 C 102.801 174.033,104.204 174.652,109.093 175.578 L 112.853 176.290 115.394 179.073 C 118.716 182.714,122.244 184.551,127.501 185.379 C 132.097 186.102,132.026 186.061,134.355 189.426 C 136.653 192.744,139.950 194.471,145.433 195.226 C 150.694 195.949,150.875 196.028,152.283 198.211 C 155.643 203.423,157.702 204.503,166.311 205.570 C 170.038 206.032,171.169 206.849,172.067 209.730 C 172.656 211.619,175.572 214.283,177.431 214.632 C 178.168 214.771,179.003 215.162,179.286 215.503 C 179.986 216.347,180.290 332.269,179.601 335.474 L 179.154 337.548 177.559 336.986 C 176.682 336.676,175.027 336.311,173.882 336.174 C 168.733 335.560,167.347 334.909,166.200 332.564 C 164.555 329.203,160.396 327.040,153.200 325.804 C 148.990 325.081,148.734 324.918,148.063 322.545 C 147.097 319.128,143.186 317.107,134.225 315.392 C 132.480 315.058,131.006 314.740,130.951 314.684 C 130.896 314.629,130.302 313.477,129.631 312.125 C 128.113 309.066,127.048 308.216,123.448 307.194 C 114.788 304.734,115.655 305.158,112.191 301.694 C 108.743 298.246,107.361 297.476,103.000 296.571 C 98.804 295.701,98.134 295.329,97.171 293.339 C 95.627 290.151,90.239 287.228,84.368 286.395 C 80.421 285.836,79.642 285.371,78.773 283.056 C 77.819 280.514,77.031 279.677,74.545 278.567 C 73.415 278.063,72.110 277.116,71.645 276.463 L 70.800 275.277 70.800 216.438 C 70.800 157.766,70.802 157.598,71.615 156.785 C 72.610 155.790,74.181 155.982,77.873 157.550 " stroke="none" fill="#e2e2e2" fill-rule="evenodd"></path><path id="path4" d="M0.000 209.800 L 0.000 419.600 200.000 419.600 L 400.000 419.600 400.000 209.800 L 400.000 0.000 200.000 0.000 L 0.000 0.000 0.000 209.800 M211.728 12.377 C 213.634 12.971,216.211 15.260,217.237 17.273 C 217.666 18.113,218.148 18.803,218.308 18.807 C 227.243 19.027,236.125 22.818,236.996 26.784 C 237.360 28.439,238.443 29.071,241.800 29.586 C 248.474 30.610,253.825 33.398,255.235 36.586 C 256.106 38.556,257.387 39.239,261.634 40.001 C 265.656 40.723,267.449 41.726,270.803 45.130 C 273.708 48.078,274.043 48.295,277.037 49.155 C 284.052 51.170,285.135 51.620,286.382 53.041 C 287.052 53.804,287.600 54.605,287.600 54.822 C 287.600 56.654,289.546 58.228,292.422 58.721 C 300.992 60.191,305.093 62.376,306.165 66.046 C 306.775 68.134,307.529 68.586,311.408 69.190 C 318.436 70.285,323.126 72.716,324.505 75.980 C 325.403 78.105,326.166 78.493,332.000 79.790 C 336.068 80.694,342.800 85.314,342.800 87.201 C 342.800 87.547,346.774 88.864,351.347 90.033 C 353.984 90.706,355.424 92.029,356.782 95.024 L 357.924 97.544 360.746 98.384 C 364.505 99.504,365.536 100.464,367.198 104.396 C 368.461 107.382,368.752 107.766,370.394 108.605 C 374.335 110.621,375.443 112.721,376.032 119.289 C 376.646 126.136,376.289 292.236,375.654 295.400 C 374.946 298.924,373.430 301.180,370.907 302.460 C 367.287 304.297,366.867 304.756,366.026 307.799 C 365.131 311.036,363.817 312.490,361.118 313.226 C 356.305 314.538,356.373 314.495,354.745 317.219 C 352.265 321.363,349.128 323.026,341.930 324.008 C 338.118 324.528,337.461 324.962,336.185 327.800 C 334.645 331.227,333.360 332.023,326.800 333.614 C 321.334 334.941,319.764 335.734,318.269 337.924 C 315.638 341.779,314.627 342.355,308.313 343.600 C 306.229 344.011,305.737 344.333,302.786 347.214 C 298.946 350.962,295.941 352.581,291.607 353.237 C 287.404 353.874,287.046 354.073,285.621 356.564 C 283.341 360.548,279.277 362.671,272.262 363.542 C 268.583 363.999,268.341 364.172,266.778 367.446 C 265.245 370.659,263.609 371.683,258.169 372.837 C 255.986 373.301,253.429 373.949,252.487 374.278 C 250.823 374.859,250.441 375.236,247.502 379.193 C 246.003 381.211,244.372 381.995,239.600 382.992 C 236.733 383.591,236.440 383.761,233.000 386.826 C 227.185 392.007,226.319 392.353,217.000 393.214 C 214.360 393.458,210.130 394.004,207.600 394.427 C 201.785 395.399,198.949 395.404,196.515 394.447 C 195.408 394.012,192.029 393.417,188.505 393.036 C 178.505 391.955,176.135 390.894,173.145 386.159 C 171.425 383.437,171.463 383.455,165.600 382.575 C 162.492 382.108,159.595 380.287,155.059 375.948 C 153.092 374.067,152.356 373.633,150.459 373.237 C 145.023 372.101,144.413 371.888,142.919 370.609 C 142.066 369.879,140.955 368.479,140.451 367.499 C 139.290 365.241,138.104 364.660,131.274 363.001 C 125.507 361.600,123.862 360.605,122.751 357.847 C 121.615 355.026,120.514 354.070,118.072 353.788 C 109.961 352.852,106.355 351.111,104.043 347.015 C 102.480 344.244,102.180 344.056,98.344 343.430 C 92.669 342.503,89.851 341.013,85.859 336.827 C 83.817 334.686,83.221 334.306,81.064 333.765 C 73.846 331.954,72.705 331.310,71.195 328.191 C 70.719 327.206,70.161 326.400,69.956 326.400 C 69.752 326.400,68.913 325.988,68.092 325.484 C 67.271 324.980,64.710 324.150,62.400 323.640 C 56.709 322.384,53.200 320.194,53.200 317.899 C 53.200 316.429,51.046 314.483,49.140 314.230 C 44.866 313.663,42.910 312.190,41.232 308.275 C 40.678 306.982,39.970 306.204,38.574 305.356 C 31.205 300.877,31.400 303.583,31.400 206.000 C 31.400 116.467,31.454 115.000,35.027 107.696 C 36.345 105.001,38.812 102.000,39.709 102.000 C 39.921 102.000,40.696 101.472,41.431 100.826 C 42.167 100.181,43.630 99.151,44.684 98.539 C 45.738 97.927,47.860 96.129,49.400 94.544 C 52.560 91.292,54.425 90.184,57.838 89.533 C 62.557 88.634,64.093 87.877,64.687 86.161 C 65.880 82.716,70.542 80.164,77.787 78.991 C 81.419 78.403,82.800 77.872,82.800 77.064 C 82.800 73.067,88.033 70.005,97.639 68.384 L 100.278 67.939 101.172 65.782 C 102.281 63.106,104.134 61.436,106.885 60.632 C 115.489 58.117,115.888 57.964,116.317 57.023 C 116.552 56.506,117.433 55.570,118.273 54.944 C 119.113 54.317,119.942 53.582,120.116 53.310 C 120.793 52.249,124.042 50.755,127.244 50.033 C 132.571 48.833,133.110 48.553,134.113 46.462 C 135.700 43.151,139.784 40.884,146.200 39.753 C 151.447 38.828,151.711 38.686,152.552 36.318 C 153.882 32.573,158.311 30.283,166.538 29.083 C 169.349 28.674,169.726 28.516,170.054 27.612 C 172.067 22.065,173.837 21.165,187.813 18.579 C 188.260 18.496,189.172 17.657,189.838 16.714 C 193.057 12.164,204.052 9.986,211.728 12.377 M197.746 59.069 C 197.102 59.911,196.313 61.119,195.992 61.753 C 194.710 64.286,190.147 66.414,184.221 67.243 C 180.146 67.813,179.294 68.358,177.901 71.288 C 176.280 74.700,175.030 75.437,168.219 77.001 C 162.170 78.390,161.416 78.809,159.518 81.837 C 157.611 84.878,156.414 85.616,151.864 86.552 C 150.139 86.907,148.519 87.321,148.264 87.473 C 147.399 87.988,144.888 90.062,142.978 91.841 C 139.633 94.956,134.057 97.177,129.531 97.199 C 129.383 97.199,128.427 98.455,127.407 99.990 C 124.578 104.245,121.528 105.810,114.040 106.845 C 110.561 107.326,110.034 107.688,108.673 110.534 C 107.021 113.989,105.987 114.674,100.284 116.088 L 95.255 117.335 97.127 118.263 C 103.994 121.662,106.410 123.465,107.263 125.824 C 107.762 127.203,111.163 128.800,113.600 128.800 C 116.944 128.800,123.655 132.539,125.475 135.416 C 126.600 137.194,128.944 138.203,133.800 139.000 C 137.137 139.549,139.588 141.216,143.138 145.355 C 144.400 146.826,144.778 146.988,150.171 148.366 C 153.305 149.167,156.360 150.144,156.960 150.537 C 157.951 151.186,161.200 155.700,161.200 156.427 C 161.200 156.593,161.965 156.848,162.900 156.992 C 172.785 158.517,177.369 160.695,178.620 164.460 C 179.412 166.845,179.177 166.711,184.115 167.585 C 193.249 169.201,196.101 170.675,197.536 174.523 C 198.484 177.064,199.519 177.386,205.199 176.911 L 208.922 176.600 209.450 175.072 C 210.603 171.735,212.863 169.741,216.501 168.852 C 220.887 167.781,222.776 166.815,223.585 165.230 C 225.220 162.025,229.913 159.283,235.955 158.003 C 240.206 157.102,240.605 156.873,240.953 155.137 C 241.318 153.312,242.709 151.268,244.062 150.568 C 245.425 149.863,253.491 147.200,254.263 147.200 C 254.797 147.200,257.503 144.540,259.132 142.413 C 260.414 140.739,262.943 139.365,265.800 138.790 C 270.171 137.911,270.961 137.422,271.977 134.970 C 273.381 131.582,278.310 128.958,285.302 127.876 L 288.096 127.443 288.876 125.622 C 290.431 121.995,292.559 120.136,296.000 119.397 C 296.770 119.232,298.335 118.684,299.479 118.180 L 301.557 117.263 300.428 115.131 C 299.806 113.959,298.979 112.137,298.588 111.082 C 297.695 108.672,295.719 107.641,289.600 106.393 C 284.295 105.312,282.396 104.251,281.095 101.641 C 279.190 97.818,278.881 97.598,274.310 96.809 C 267.787 95.683,262.400 92.946,262.400 90.759 C 262.400 88.816,259.551 87.077,255.600 86.608 C 251.842 86.162,248.053 83.894,243.654 79.457 C 242.093 77.882,241.565 77.623,238.654 77.007 C 232.951 75.799,231.078 74.643,229.231 71.192 C 228.275 69.406,225.257 67.975,220.000 66.817 C 214.871 65.687,213.353 64.770,211.691 61.795 C 209.455 57.794,209.503 57.819,203.848 57.669 L 198.917 57.537 197.746 59.069 M326.581 153.222 C 325.373 154.556,323.871 155.175,320.187 155.859 L 316.789 156.489 315.354 159.055 C 313.101 163.085,306.765 166.400,301.316 166.400 C 299.924 166.400,298.008 168.363,296.854 170.972 C 295.828 173.291,294.385 174.199,289.854 175.376 C 285.853 176.416,285.538 176.628,282.736 180.191 C 280.781 182.675,275.434 185.225,270.981 185.795 C 268.339 186.133,268.259 186.196,266.819 189.098 C 264.878 193.011,264.443 193.312,258.000 195.199 C 253.545 196.504,250.610 198.058,249.799 199.540 C 249.186 200.660,247.943 202.089,246.463 203.375 C 245.953 203.818,243.909 204.517,241.686 205.008 L 237.800 205.866 236.535 207.833 C 234.498 211.002,233.609 211.979,232.032 212.784 C 229.773 213.936,226.158 215.130,224.071 215.413 C 218.476 216.172,218.800 211.877,218.800 285.372 L 218.800 344.313 219.834 344.573 C 221.474 344.984,222.137 344.548,223.116 342.413 C 224.548 339.291,229.660 336.555,235.435 335.818 C 239.622 335.283,240.386 334.854,241.455 332.437 C 243.310 328.244,247.422 326.262,256.873 325.008 C 258.494 324.793,258.778 324.614,258.986 323.680 C 259.719 320.393,263.677 316.818,266.599 316.804 C 269.595 316.789,273.692 314.696,276.765 311.611 C 280.060 308.303,281.970 307.290,286.487 306.455 C 290.005 305.804,291.492 305.032,292.123 303.527 C 293.562 300.093,298.170 297.428,304.422 296.417 C 307.985 295.840,309.999 295.192,310.004 294.620 C 310.042 290.566,314.934 287.471,323.600 286.018 C 327.976 285.284,327.782 285.395,328.333 283.314 C 328.612 282.261,329.553 279.921,330.425 278.113 L 332.010 274.826 331.905 215.713 L 331.800 156.600 330.800 154.600 C 329.615 152.231,327.965 151.692,326.581 153.222 M71.615 156.785 C 70.802 157.598,70.800 157.766,70.800 216.438 L 70.800 275.277 71.645 276.463 C 72.110 277.116,73.415 278.063,74.545 278.567 C 77.031 279.677,77.819 280.514,78.773 283.056 C 79.642 285.371,80.421 285.836,84.368 286.395 C 90.239 287.228,95.627 290.151,97.171 293.339 C 98.134 295.329,98.804 295.701,103.000 296.571 C 107.361 297.476,108.743 298.246,112.191 301.694 C 115.655 305.158,114.788 304.734,123.448 307.194 C 127.048 308.216,128.113 309.066,129.631 312.125 C 130.302 313.477,130.896 314.629,130.951 314.684 C 131.006 314.740,132.480 315.058,134.225 315.392 C 143.186 317.107,147.097 319.128,148.063 322.545 C 148.734 324.918,148.990 325.081,153.200 325.804 C 160.396 327.040,164.555 329.203,166.200 332.564 C 167.347 334.909,168.733 335.560,173.882 336.174 C 175.027 336.311,176.682 336.676,177.559 336.986 L 179.154 337.548 179.601 335.474 C 180.290 332.269,179.986 216.347,179.286 215.503 C 179.003 215.162,178.168 214.771,177.431 214.632 C 175.572 214.283,172.656 211.619,172.067 209.730 C 171.169 206.849,170.038 206.032,166.311 205.570 C 157.702 204.503,155.643 203.423,152.283 198.211 C 150.875 196.028,150.694 195.949,145.433 195.226 C 139.950 194.471,136.653 192.744,134.355 189.426 C 132.026 186.061,132.097 186.102,127.501 185.379 C 122.244 184.551,118.716 182.714,115.394 179.073 L 112.853 176.290 109.093 175.578 C 104.204 174.652,102.801 174.033,100.534 171.798 C 96.332 167.655,94.402 166.522,89.928 165.573 C 84.216 164.361,82.605 163.330,80.924 159.811 C 79.816 157.493,73.093 155.307,71.615 156.785 " stroke="none" fill="#ffffff" fill-rule="evenodd" fill-opacity="0"></path></g></svg>