<svg xmlns="http://www.w3.org/2000/svg" width="28" height="28" viewBox="0 0 28 28">
    <path fill="#A5C615" fill-rule="evenodd" d="M23.406 11.047c0-.31-.11-.62-.328-.839l-1.659-1.64a1.16 1.16 0 0 0-.82-.347c-.31 0-.602.128-.82.347l-7.438 7.419-4.12-4.12a1.16 1.16 0 0 0-.82-.346c-.31 0-.602.127-.82.346l-1.66 1.64a1.185 1.185 0 0 0-.327.84c0 .31.11.6.328.82l6.599 6.599c.219.218.528.346.82.346.31 0 .62-.128.839-.346l9.898-9.899c.219-.219.328-.51.328-.82zM28 14c0 7.73-6.27 14-14 14S0 21.73 0 14 6.27 0 14 0s14 6.27 14 14z"/>
</svg>
