<!-- Generated by IcoMoon.io -->
<svg version="1.1" xmlns="http://www.w3.org/2000/svg" width="16" height="16" viewBox="0 0 16 16">
<title>icon</title>
<path fill="#fff" stroke="#dbd8d8" stroke-width="0.6154" stroke-miterlimit="4" stroke-linecap="butt" stroke-linejoin="miter" d="M15.385 8c0 4.078-3.306 7.385-7.385 7.385s-7.385-3.306-7.385-7.385c0-4.078 3.306-7.385 7.385-7.385s7.385 3.306 7.385 7.385z"></path>
<path fill="#12202e" d="M7.684 11.323l0.532-0.92c0.17-0.299 0.226-0.663 0.13-1.022s-0.327-0.646-0.624-0.82l0 0-0.228-0.179 0.286-0.496 0.213 0.123c0.299 0.17 0.663 0.226 1.022 0.13s0.646-0.327 0.82-0.624l-0 0 0.587-0.935c0.17-0.299 0.226-0.663 0.13-1.022s-0.327-0.646-0.624-0.82l0 0-0.991-0.573c-0.299-0.17-0.663-0.226-1.022-0.13s-0.646 0.327-0.82 0.624l0-0-0.531 0.92c-0.178 0.302-0.239 0.672-0.141 1.038 0.002 0.006 0.003 0.012 0.005 0.017l-0-0.001c0.001 0.005 0.003 0.011 0.004 0.017 0.098 0.365 0.336 0.655 0.641 0.828l0 0 0.213 0.123-0.286 0.495-0.213-0.123c-0.299-0.17-0.663-0.226-1.022-0.13s-0.646 0.327-0.82 0.624l0-0-0.586 0.936c-0.164 0.283-0.242 0.663-0.137 1.054s0.291 0.64 0.645 0.844l0.92 0.531c0.283 0.164 0.664 0.241 1.054 0.137s0.626-0.347 0.844-0.645zM7.303 6.998c-0.425-0.245-0.56-0.748-0.299-1.117l0.587-0.935c0.245-0.425 0.748-0.56 1.116-0.299l0.92 0.531c0.213 0.123 0.328 0.331 0.373 0.499 0.060 0.223 0.049 0.406-0.074 0.619l-0.531 0.92c-0.245 0.425-0.748 0.56-1.117 0.299l-0.268-0.107 0.49-0.849-0.425-0.245-0.49 0.849-0.283-0.164zM6.072 11.337l-0.92-0.531c-0.426-0.245-0.56-0.748-0.299-1.117l0.531-0.92c0.245-0.425 0.748-0.56 1.117-0.299l0.283 0.164-0.491 0.85 0.425 0.245 0.475-0.906 0.283 0.164c0.213 0.123 0.328 0.331 0.373 0.499s0.049 0.405-0.074 0.618l-0.587 0.935c-0.189 0.411-0.692 0.545-1.117 0.299z"></path>
</svg>
