<?xml version="1.0" encoding="UTF-8"?>
<svg width="16px" height="17px" viewBox="0 0 16 17" version="1.1" xmlns="http://www.w3.org/2000/svg" xmlns:xlink="http://www.w3.org/1999/xlink">
    <!-- Generator: Sketch 46.2 (44496) - http://www.bohemiancoding.com/sketch -->
    <title></title>
    <desc>Created with Sketch.</desc>
    <defs></defs>
    <g id="2.企业管理中心" stroke="none" stroke-width="1" fill="none" fill-rule="evenodd">
        <g id="3.3.2.1弹窗（重新上传资料）" transform="translate(-2452.000000, -412.000000)" fill="#F9A300">
            <g id="Group-4" transform="translate(2383.000000, 412.000000)">
                <path d="M73.7576134,13.1445079 C73.7576134,12.5223179 73.2581087,12.0228133 72.6359187,12.0228133 C72.022492,12.0228133 71.5142241,12.5223179 71.5142241,13.1445079 C71.5142241,13.7579347 72.022492,14.2662025 72.6359187,14.2662025 C73.2581087,14.2662025 73.7576134,13.7579347 73.7576134,13.1445079 Z M78.1217066,14.9497352 C78.1217066,14.3275452 77.6222019,13.8280406 77.0000119,13.8280406 C76.3778219,13.8280406 75.8783173,14.3275452 75.8783173,14.9497352 C75.8783173,15.5719252 76.3778219,16.0714298 77.0000119,16.0714298 C77.6222019,16.0714298 78.1217066,15.5719252 78.1217066,14.9497352 Z M71.9523861,8.78041472 C71.9523861,8.15822473 71.4528814,7.65872008 70.8306914,7.65872008 C70.2085014,7.65872008 69.7089968,8.15822473 69.7089968,8.78041472 C69.7089968,9.40260471 70.2085014,9.90210935 70.8306914,9.90210935 C71.4528814,9.90210935 71.9523861,9.40260471 71.9523861,8.78041472 Z M82.4857997,13.1445079 C82.4857997,12.5223179 81.9775319,12.0228133 81.3641051,12.0228133 C80.7419151,12.0228133 80.2424105,12.5223179 80.2424105,13.1445079 C80.2424105,13.7579347 80.7419151,14.2662025 81.3641051,14.2662025 C81.9775319,14.2662025 82.4857997,13.7579347 82.4857997,13.1445079 Z M74.038037,4.41632153 C74.038037,3.64515647 73.4070838,3.01420323 72.6359187,3.01420323 C71.8647537,3.01420323 71.2338004,3.64515647 71.2338004,4.41632153 C71.2338004,5.18748659 71.8647537,5.81843982 72.6359187,5.81843982 C73.4070838,5.81843982 74.038037,5.18748659 74.038037,4.41632153 Z M84.2910271,8.78041472 C84.2910271,8.15822473 83.7915224,7.65872008 83.1693324,7.65872008 C82.5471424,7.65872008 82.0476378,8.15822473 82.0476378,8.78041472 C82.0476378,9.40260471 82.5471424,9.90210935 83.1693324,9.90210935 C83.7915224,9.90210935 84.2910271,9.40260471 84.2910271,8.78041472 Z M78.6825539,2.61109422 C78.6825539,1.68219085 77.9289153,0.92855227 77.0000119,0.92855227 C76.0711086,0.92855227 75.31747,1.68219085 75.31747,2.61109422 C75.31747,3.53999759 76.0711086,4.29363618 77.0000119,4.29363618 C77.9289153,4.29363618 78.6825539,3.53999759 78.6825539,2.61109422 Z M83.3270707,4.41632153 C83.3270707,3.33844309 82.4419836,2.45335592 81.3641051,2.45335592 C80.2774634,2.45335592 79.4011395,3.33844309 79.4011395,4.41632153 C79.4011395,5.50296321 80.2774634,6.37928714 81.3641051,6.37928714 C82.4419836,6.37928714 83.3270707,5.50296321 83.3270707,4.41632153 Z" id=""></path>
            </g>
        </g>
    </g>
</svg>