<?xml version="1.0" encoding="UTF-8"?>
<svg width="100px" height="30px" viewBox="0 0 100 30" version="1.1" xmlns="http://www.w3.org/2000/svg" xmlns:xlink="http://www.w3.org/1999/xlink">
    <!-- Generator: Sketch 46.2 (44496) - http://www.bohemiancoding.com/sketch -->
    <title>Group 20</title>
    <desc>Created with Sketch.</desc>
    <defs></defs>
    <g id="2.企业管理中心" stroke="none" stroke-width="1" fill="none" fill-rule="evenodd">
        <g id="3.3.2.1弹窗（重新上传资料）" transform="translate(-1413.000000, -415.000000)">
            <g id="Group-20" transform="translate(1413.000000, 415.000000)">
                <g id="Group-2">
                    <rect id="Rectangle" fill-opacity="0.9" fill="#F9A300" x="0" y="0" width="100" height="30" rx="15"></rect>
                    <path d="M23.5714388,19.4285827 C23.5714388,19.1942074 23.3772421,19.0000107 23.1428668,19.0000107 C22.9084916,19.0000107 22.7142949,19.1942074 22.7142949,19.4285827 C22.7142949,19.6629579 22.9084916,19.8571546 23.1428668,19.8571546 C23.3772421,19.8571546 23.5714388,19.6629579 23.5714388,19.4285827 Z M25.2857265,19.4285827 C25.2857265,19.1942074 25.0915299,19.0000107 24.8571546,19.0000107 C24.6227793,19.0000107 24.4285827,19.1942074 24.4285827,19.4285827 C24.4285827,19.6629579 24.6227793,19.8571546 24.8571546,19.8571546 C25.0915299,19.8571546 25.2857265,19.6629579 25.2857265,19.4285827 Z M26.1428704,17.9285809 L26.1428704,20.0714406 C26.1428704,20.4263517 25.8549237,20.7142985 25.5000125,20.7142985 L15.6428579,20.7142985 C15.2879468,20.7142985 15,20.4263517 15,20.0714406 L15,17.9285809 C15,17.5736697 15.2879468,17.285723 15.6428579,17.285723 L18.5022363,17.285723 C18.6830401,17.7812593 19.1584871,18.1428668 19.7142913,18.1428668 L21.4285791,18.1428668 C21.9843833,18.1428668 22.4598303,17.7812593 22.6406341,17.285723 L25.5000125,17.285723 C25.8549237,17.285723 26.1428704,17.5736697 26.1428704,17.9285809 Z M23.9665285,13.58929 C24.0334929,13.435272 24.0000107,13.2477717 23.8727784,13.1272359 L20.8727749,10.1272323 C20.7924176,10.0401786 20.6785782,10 20.5714352,10 C20.4642922,10 20.3504528,10.0401786 20.2700956,10.1272323 L17.270092,13.1272359 C17.1428597,13.2477717 17.1093775,13.435272 17.1763419,13.58929 C17.2433062,13.7500045 17.3973243,13.8571475 17.5714316,13.8571475 L19.2857194,13.8571475 L19.2857194,16.857151 C19.2857194,17.0915263 19.4799161,17.285723 19.7142913,17.285723 L21.4285791,17.285723 C21.6629544,17.285723 21.857151,17.0915263 21.857151,16.857151 L21.857151,13.8571475 L23.5714388,13.8571475 C23.7455461,13.8571475 23.8995642,13.7500045 23.9665285,13.58929 Z" id="" fill="#FFFFFF"></path>
                    <text id="重新上传" font-family="MicrosoftYaHei, Microsoft YaHei" font-size="12" font-weight="normal" line-spacing="12" fill="#FFFFFF">
                        <tspan x="32.1015625" y="20.5664062">重新上传</tspan>
                    </text>
                </g>
            </g>
        </g>
    </g>
</svg>