<?xml version="1.0" encoding="UTF-8"?>
<svg width="65px" height="65px" viewBox="0 0 65 65" version="1.1" xmlns="http://www.w3.org/2000/svg" xmlns:xlink="http://www.w3.org/1999/xlink">
    <!-- Generator: Sketch 46.2 (44496) - http://www.bohemiancoding.com/sketch -->
    <title>Check Circle - FontAwesome</title>
    <desc>Created with Sketch.</desc>
    <defs></defs>
    <g id="1.注册/登录" stroke="none" stroke-width="1" fill="none" fill-rule="evenodd">
        <g id="4.注册流程-提交成功" transform="translate(-387.000000, -377.000000)" fill="#56C538">
            <g id="Group" transform="translate(140.000000, 293.000000)">
                <g id="Group-2" transform="translate(247.000000, 84.000000)">
                    <path d="M53.7389033,25.4341118 C53.7389033,24.7226154 53.487787,24.011119 52.9855542,23.5088863 L49.1769559,19.7421407 C48.6747232,19.239908 48.0050795,18.9469389 47.2935832,18.9469389 C46.5820868,18.9469389 45.9124431,19.239908 45.4102104,19.7421407 L28.3342972,36.7762012 L18.8755805,27.3174846 C18.3733478,26.8152518 17.7037041,26.5222827 16.9922078,26.5222827 C16.2807114,26.5222827 15.6110677,26.8152518 15.108835,27.3174846 L11.3002367,31.0842301 C10.7980039,31.5864629 10.5468876,32.2979592 10.5468876,33.0094556 C10.5468876,33.720952 10.7980039,34.3905957 11.3002367,34.8928284 L26.4509244,50.0435161 C26.9531571,50.5457489 27.6646535,50.8387179 28.3342972,50.8387179 C29.0457936,50.8387179 29.7572899,50.5457489 30.2595227,50.0435161 L52.9855542,27.3174846 C53.487787,26.8152518 53.7389033,26.1456082 53.7389033,25.4341118 Z M64.2857909,32.2142538 C64.2857909,49.9598107 49.8884523,64.3571492 32.1428955,64.3571492 C14.3973386,64.3571492 0,49.9598107 0,32.2142538 C0,14.4686969 14.3973386,0.0713583231 32.1428955,0.0713583231 C49.8884523,0.0713583231 64.2857909,14.4686969 64.2857909,32.2142538 Z" id="Check-Circle---FontAwesome"></path>
                </g>
            </g>
        </g>
    </g>
</svg>