<?xml version="1.0" encoding="UTF-8"?>
<svg width="16px" height="16px" viewBox="0 0 16 16" version="1.1" xmlns="http://www.w3.org/2000/svg" xmlns:xlink="http://www.w3.org/1999/xlink">
    <!-- Generator: Sketch 47.1 (45422) - http://www.bohemiancoding.com/sketch -->
    <title>face - material</title>
    <desc>Created with Sketch.</desc>
    <defs></defs>
    <g id="色彩调整" stroke="none" stroke-width="1" fill="none" fill-rule="evenodd">
        <g id="1.1提交订单" transform="translate(-305.000000, -830.000000)" fill="#808080">
            <g id="Group-5" transform="translate(305.000000, 826.000000)">
                <path d="M8,17.712 C9.0800054,17.712 10.0879953,17.4360028 11.024,16.884 C11.9360046,16.3559974 12.6559974,15.6360046 13.184,14.724 C13.7360028,13.7879953 14.012,12.7800054 14.012,11.7 C14.012,11.1839974 13.9280008,10.6200031 13.76,10.008 C13.3279978,10.1280006 12.7700034,10.188 12.086,10.188 C10.8379938,10.188 9.6740054,9.90000288 8.594,9.324 C7.53799472,8.77199724 6.66200348,8.00400492 5.966,7.02 C5.59399814,7.9200045 5.06600342,8.72399646 4.382,9.432 C3.69799658,10.1400035 2.91200444,10.6859981 2.024,11.07 C1.99999988,11.2140007 1.988,11.4239986 1.988,11.7 C1.988,12.7800054 2.26399724,13.7879953 2.816,14.724 C3.34400264,15.6360046 4.06399544,16.3559974 4.976,16.884 C5.91200468,17.4360028 6.9199946,17.712 8,17.712 Z M8,4.212 C9.36800684,4.212 10.6339942,4.55399658 11.798,5.238 C12.9260056,5.88600324 13.8139968,6.77399436 14.462,7.902 C15.1460034,9.06600582 15.488,10.3319932 15.488,11.7 C15.488,13.0680068 15.1460034,14.3339942 14.462,15.498 C13.8139968,16.6260056 12.9260056,17.5139968 11.798,18.162 C10.6339942,18.8460034 9.36800684,19.188 8,19.188 C6.63199316,19.188 5.36600582,18.8460034 4.202,18.162 C3.07399436,17.5019967 2.18600324,16.6080056 1.538,15.48 C0.85399658,14.3159942 0.512,13.0560068 0.512,11.7 C0.512,10.3439932 0.85399658,9.08400582 1.538,7.92 C2.1980033,6.79199436 3.09199436,5.8980033 4.22,5.238 C5.38400582,4.55399658 6.64399322,4.212 8,4.212 Z M10.25,11.52 C10.5140013,11.52 10.7389991,11.6069991 10.925,11.781 C11.1110009,11.9550009 11.204,12.1739987 11.204,12.438 C11.204,12.7020013 11.1110009,12.9269991 10.925,13.113 C10.7389991,13.2990009 10.5140013,13.392 10.25,13.392 C9.98599868,13.392 9.76100093,13.2990009 9.575,13.113 C9.38899907,12.9269991 9.296,12.7020013 9.296,12.438 C9.296,12.1739987 9.38899907,11.9550009 9.575,11.781 C9.76100093,11.6069991 9.98599868,11.52 10.25,11.52 Z M5.75,11.52 C6.01400132,11.52 6.23899907,11.6069991 6.425,11.781 C6.61100093,11.9550009 6.704,12.1739987 6.704,12.438 C6.704,12.7020013 6.61100093,12.9269991 6.425,13.113 C6.23899907,13.2990009 6.01400132,13.392 5.75,13.392 C5.48599868,13.392 5.26100093,13.2990009 5.075,13.113 C4.88899907,12.9269991 4.796,12.7020013 4.796,12.438 C4.796,12.1739987 4.88899907,11.9550009 5.075,11.781 C5.26100093,11.6069991 5.48599868,11.52 5.75,11.52 Z" id="face---material"></path>
            </g>
        </g>
    </g>
</svg>