<?xml version="1.0" encoding="UTF-8"?>
<svg width="55px" height="55px" viewBox="0 0 55 55" version="1.1" xmlns="http://www.w3.org/2000/svg" xmlns:xlink="http://www.w3.org/1999/xlink">
    <!-- Generator: Sketch 47.1 (45422) - http://www.bohemiancoding.com/sketch -->
    <title>Group 26</title>
    <desc>Created with Sketch.</desc>
    <defs>
        <path d="M18.4281817,33.6774998 L18.4281817,34.7488634 C18.4281817,35.0334444 18.1770809,35.2845452 17.8924999,35.2845452 L16.8211363,35.2845452 C16.5365553,35.2845452 16.2854545,35.0334444 16.2854545,34.7488634 L16.2854545,33.6774998 C16.2854545,33.3929188 16.5365553,33.141818 16.8211363,33.141818 L17.8924999,33.141818 C18.1770809,33.141818 18.4281817,33.3929188 18.4281817,33.6774998 Z M18.4281817,29.3920453 L18.4281817,30.4634089 C18.4281817,30.7479899 18.1770809,30.9990907 17.8924999,30.9990907 L16.8211363,30.9990907 C16.5365553,30.9990907 16.2854545,30.7479899 16.2854545,30.4634089 L16.2854545,29.3920453 C16.2854545,29.1074643 16.5365553,28.8563635 16.8211363,28.8563635 L17.8924999,28.8563635 C18.1770809,28.8563635 18.4281817,29.1074643 18.4281817,29.3920453 Z M18.4281817,25.1065908 L18.4281817,26.1779544 C18.4281817,26.4625354 18.1770809,26.7136362 17.8924999,26.7136362 L16.8211363,26.7136362 C16.5365553,26.7136362 16.2854545,26.4625354 16.2854545,26.1779544 L16.2854545,25.1065908 C16.2854545,24.8220098 16.5365553,24.570909 16.8211363,24.570909 L17.8924999,24.570909 C18.1770809,24.570909 18.4281817,24.8220098 18.4281817,25.1065908 Z M37.7127269,33.6774998 L37.7127269,34.7488634 C37.7127269,35.0334444 37.4616261,35.2845452 37.1770451,35.2845452 L21.1065908,35.2845452 C20.8220098,35.2845452 20.570909,35.0334444 20.570909,34.7488634 L20.570909,33.6774998 C20.570909,33.3929188 20.8220098,33.141818 21.1065908,33.141818 L37.1770451,33.141818 C37.4616261,33.141818 37.7127269,33.3929188 37.7127269,33.6774998 Z M37.7127269,29.3920453 L37.7127269,30.4634089 C37.7127269,30.7479899 37.4616261,30.9990907 37.1770451,30.9990907 L21.1065908,30.9990907 C20.8220098,30.9990907 20.570909,30.7479899 20.570909,30.4634089 L20.570909,29.3920453 C20.570909,29.1074643 20.8220098,28.8563635 21.1065908,28.8563635 L37.1770451,28.8563635 C37.4616261,28.8563635 37.7127269,29.1074643 37.7127269,29.3920453 Z M37.7127269,25.1065908 L37.7127269,26.1779544 C37.7127269,26.4625354 37.4616261,26.7136362 37.1770451,26.7136362 L21.1065908,26.7136362 C20.8220098,26.7136362 20.570909,26.4625354 20.570909,26.1779544 L20.570909,25.1065908 C20.570909,24.8220098 20.8220098,24.570909 21.1065908,24.570909 L37.1770451,24.570909 C37.4616261,24.570909 37.7127269,24.8220098 37.7127269,25.1065908 Z M39.8554542,36.8915906 L39.8554542,22.9638635 C39.8554542,22.6792826 39.6043533,22.4281817 39.3197724,22.4281817 L14.6784091,22.4281817 C14.3938281,22.4281817 14.1427272,22.6792826 14.1427272,22.9638635 L14.1427272,36.8915906 C14.1427272,37.1761716 14.3938281,37.4272724 14.6784091,37.4272724 L39.3197724,37.4272724 C39.6043533,37.4272724 39.8554542,37.1761716 39.8554542,36.8915906 Z M41.9981814,18.6784091 L41.9981814,36.8915906 C41.9981814,38.3647156 40.7928974,39.5699997 39.3197724,39.5699997 L14.6784091,39.5699997 C13.2052841,39.5699997 12,38.3647156 12,36.8915906 L12,18.6784091 C12,17.2052841 13.2052841,16 14.6784091,16 L39.3197724,16 C40.7928974,16 41.9981814,17.2052841 41.9981814,18.6784091 Z" id="path-1"></path>
        <filter x="-21.7%" y="-23.3%" width="143.3%" height="155.2%" filterUnits="objectBoundingBox" id="filter-2">
            <feOffset dx="0" dy="1" in="SourceAlpha" result="shadowOffsetOuter1"></feOffset>
            <feGaussianBlur stdDeviation="2" in="shadowOffsetOuter1" result="shadowBlurOuter1"></feGaussianBlur>
            <feColorMatrix values="0 0 0 0 0.831372549   0 0 0 0 0.831372549   0 0 0 0 0.831372549  0 0 0 1 0" type="matrix" in="shadowBlurOuter1"></feColorMatrix>
        </filter>
    </defs>
    <g id="色彩调整" stroke="none" stroke-width="1" fill="none" fill-rule="evenodd">
        <g id="Group-26">
            <circle id="Oval" fill="#F9A300" transform="translate(27.500000, 27.500000) rotate(-360.000000) translate(-27.500000, -27.500000) " cx="27.5" cy="27.5" r="27.5"></circle>
            <g id="list-alt---FontAwesome">
                <use fill="black" fill-opacity="1" filter="url(#filter-2)" xlink:href="#path-1"></use>
                <use fill="#FFFFFF" fill-rule="evenodd" xlink:href="#path-1"></use>
            </g>
        </g>
    </g>
</svg>