<?xml version="1.0" encoding="UTF-8"?>
<svg width="40px" height="40px" viewBox="0 0 40 40" version="1.1" xmlns="http://www.w3.org/2000/svg" xmlns:xlink="http://www.w3.org/1999/xlink">
    <!-- Generator: Sketch 47.1 (45422) - http://www.bohemiancoding.com/sketch -->
    <title>Group 24</title>
    <desc>Created with Sketch.</desc>
    <defs>
        <path d="M32.5,8 C33.875,8 35,9.125 35,10.5 L35,29.5 C35,30.875 33.875,32 32.5,32 L7.5,32 C6.125,32 5,30.875 5,29.5 L5,10.5 C5,9.125 6.125,8 7.5,8 L32.5,8 Z M7.5,10 C7.234375,10 7,10.234375 7,10.5 L7,14 L33,14 L33,10.5 C33,10.234375 32.765625,10 32.5,10 L7.5,10 Z M32.5,30 C32.765625,30 33,29.765625 33,29.5 L33,20 L7,20 L7,29.5 C7,29.765625 7.234375,30 7.5,30 L32.5,30 Z M9,28 L9,26 L13,26 L13,28 L9,28 Z M15,28 L15,26 L21,26 L21,28 L15,28 Z" id="path-1"></path>
        <filter x="-10.0%" y="-12.5%" width="120.0%" height="125.0%" filterUnits="objectBoundingBox" id="filter-2">
            <feOffset dx="0" dy="0" in="SourceAlpha" result="shadowOffsetOuter1"></feOffset>
            <feGaussianBlur stdDeviation="1" in="shadowOffsetOuter1" result="shadowBlurOuter1"></feGaussianBlur>
            <feColorMatrix values="0 0 0 0 1   0 0 0 0 1   0 0 0 0 1  0 0 0 1 0" type="matrix" in="shadowBlurOuter1"></feColorMatrix>
        </filter>
        <path d="M28.3333333,12 C29.25,12 30,12.75 30,13.6666667 L30,26.3333333 C30,27.25 29.25,28 28.3333333,28 L11.6666667,28 C10.75,28 10,27.25 10,26.3333333 L10,13.6666667 C10,12.75 10.75,12 11.6666667,12 L28.3333333,12 Z M11.6666667,13.3333333 C11.4895833,13.3333333 11.3333333,13.4895833 11.3333333,13.6666667 L11.3333333,16 L28.6666667,16 L28.6666667,13.6666667 C28.6666667,13.4895833 28.5104167,13.3333333 28.3333333,13.3333333 L11.6666667,13.3333333 Z M28.3333333,26.6666667 C28.5104167,26.6666667 28.6666667,26.5104167 28.6666667,26.3333333 L28.6666667,20 L11.3333333,20 L11.3333333,26.3333333 C11.3333333,26.5104167 11.4895833,26.6666667 11.6666667,26.6666667 L28.3333333,26.6666667 Z M12.6666667,25.3333333 L12.6666667,24 L15.3333333,24 L15.3333333,25.3333333 L12.6666667,25.3333333 Z M16.6666667,25.3333333 L16.6666667,24 L20.6666667,24 L20.6666667,25.3333333 L16.6666667,25.3333333 Z" id="path-3"></path>
        <filter x="-15.0%" y="-18.8%" width="130.0%" height="137.5%" filterUnits="objectBoundingBox" id="filter-4">
            <feOffset dx="0" dy="0" in="SourceAlpha" result="shadowOffsetOuter1"></feOffset>
            <feGaussianBlur stdDeviation="1" in="shadowOffsetOuter1" result="shadowBlurOuter1"></feGaussianBlur>
            <feColorMatrix values="0 0 0 0 1   0 0 0 0 1   0 0 0 0 1  0 0 0 1 0" type="matrix" in="shadowBlurOuter1"></feColorMatrix>
        </filter>
    </defs>
    <g id="色彩调整" stroke="none" stroke-width="1" fill="none" fill-rule="evenodd">
        <g id="Group-24">
            <g id="credit-card---FontAwesome" transform="translate(20.000000, 20.000000) rotate(-360.000000) translate(-20.000000, -20.000000) ">
                <use fill="black" fill-opacity="1" filter="url(#filter-2)" xlink:href="#path-1"></use>
                <use fill="#FFFFFF" fill-rule="evenodd" xlink:href="#path-1"></use>
            </g>
            <circle id="Oval" fill="#F5F5F5" cx="20" cy="20" r="20"></circle>
            <g id="credit-card---FontAwesome" transform="translate(20.000000, 20.000000) rotate(-360.000000) translate(-20.000000, -20.000000) ">
                <use fill="black" fill-opacity="1" filter="url(#filter-4)" xlink:href="#path-3"></use>
                <use fill="#05BA0B" fill-rule="evenodd" xlink:href="#path-3"></use>
            </g>
        </g>
    </g>
</svg>