<?xml version="1.0" encoding="UTF-8"?>
<svg width="40px" height="40px" viewBox="0 0 40 40" version="1.1" xmlns="http://www.w3.org/2000/svg" xmlns:xlink="http://www.w3.org/1999/xlink">
    <!-- Generator: Sketch 47.1 (45422) - http://www.bohemiancoding.com/sketch -->
    <title>Group 31</title>
    <desc>Created with Sketch.</desc>
    <defs>
        <path d="M30,27.2848065 C30,26.89197 29.8382438,26.5106875 29.5725014,26.2333911 L25.378394,22.0392837 C25.1010976,21.7735413 24.7198151,21.6117851 24.3269786,21.6117851 C23.8879261,21.6117851 23.5297516,21.7966493 23.2177932,22.1086077 L20.2599653,19.1507799 L21.7157712,17.694974 C21.8197574,17.5909879 21.8775274,17.4523397 21.8775274,17.3021375 C21.8775274,17.1519353 21.8197574,17.0132871 21.7157712,16.909301 C22.0623917,17.2559214 22.31658,17.5794339 22.8480647,17.5794339 C23.1484691,17.5794339 23.4142114,17.4638937 23.6337377,17.2559214 C24.0496823,16.8630849 24.604275,16.4471404 24.604275,15.8232236 C24.604275,15.5343732 24.4887348,15.2455228 24.2807626,15.0375505 L19.5667244,10.3235124 C19.3587522,10.1155402 19.0699018,10 18.7810514,10 C18.1571346,10 17.7411901,10.5545927 17.3483536,10.9705373 C17.1403813,11.1900635 17.0248411,11.4558059 17.0248411,11.7562103 C17.0248411,12.287695 17.3483536,12.5418833 17.694974,12.8885038 C17.5909879,12.7845176 17.4523397,12.7267475 17.3021375,12.7267475 C17.1519353,12.7267475 17.0132871,12.7845176 16.909301,12.8885038 L12.8885038,16.909301 C12.7845176,17.0132871 12.7267475,17.1519353 12.7267475,17.3021375 C12.7267475,17.4523397 12.7845176,17.5909879 12.8885038,17.694974 C12.5418833,17.3483536 12.287695,17.0248411 11.7562103,17.0248411 C11.4558059,17.0248411 11.1900635,17.1403813 10.9705373,17.3483536 C10.5545927,17.7411901 10,18.1571346 10,18.7810514 C10,19.0699018 10.1155402,19.3587522 10.3235124,19.5667244 L15.0375505,24.2807626 C15.2455228,24.4887348 15.5343732,24.604275 15.8232236,24.604275 C16.4471404,24.604275 16.8630849,24.0496823 17.2559214,23.6337377 C17.4638937,23.4142114 17.5794339,23.1484691 17.5794339,22.8480647 C17.5794339,22.31658 17.2559214,22.0623917 16.909301,21.7157712 C17.0132871,21.8197574 17.1519353,21.8775274 17.3021375,21.8775274 C17.4523397,21.8775274 17.5909879,21.8197574 17.694974,21.7157712 L19.1507799,20.2599653 L22.1086077,23.2177932 C21.7966493,23.5297516 21.6117851,23.8879261 21.6117851,24.3269786 C21.6117851,24.7198151 21.7735413,25.1010976 22.0508377,25.36684 L26.2449451,29.5725014 C26.5106875,29.8382438 26.89197,30 27.2848065,30 C27.677643,30 28.0589255,29.8382438 28.3362218,29.5725014 L29.5725014,28.3246678 C29.8382438,28.0589255 30,27.677643 30,27.2848065 Z" id="path-1"></path>
        <filter x="-32.5%" y="-27.5%" width="165.0%" height="165.0%" filterUnits="objectBoundingBox" id="filter-2">
            <feOffset dx="0" dy="1" in="SourceAlpha" result="shadowOffsetOuter1"></feOffset>
            <feGaussianBlur stdDeviation="2" in="shadowOffsetOuter1" result="shadowBlurOuter1"></feGaussianBlur>
            <feColorMatrix values="0 0 0 0 0.831372549   0 0 0 0 0.831372549   0 0 0 0 0.831372549  0 0 0 1 0" type="matrix" in="shadowBlurOuter1"></feColorMatrix>
        </filter>
    </defs>
    <g id="色彩调整" stroke="none" stroke-width="1" fill="none" fill-rule="evenodd">
        <g id="Group-31">
            <circle id="Oval" fill="#F5F5F5" cx="20" cy="20" r="20"></circle>
            <g id="">
                <use fill="black" fill-opacity="1" filter="url(#filter-2)" xlink:href="#path-1"></use>
                <use fill="#959495" fill-rule="evenodd" xlink:href="#path-1"></use>
            </g>
        </g>
    </g>
</svg>