<?xml version="1.0" encoding="UTF-8"?>
<svg width="40px" height="40px" viewBox="0 0 40 40" version="1.1" xmlns="http://www.w3.org/2000/svg" xmlns:xlink="http://www.w3.org/1999/xlink">
    <!-- Generator: Sketch 47.1 (45422) - http://www.bohemiancoding.com/sketch -->
    <title>Group 25</title>
    <desc>Created with Sketch.</desc>
    <defs>
        <path d="M20,10 C25.5208333,10 30,14.4791667 30,20 C30,25.5208333 25.5208333,30 20,30 C14.4791667,30 10,25.5208333 10,20 C10,14.4791667 14.4791667,10 20,10 Z M23.5677083,16.7838542 C23.4635417,16.8619792 23.3984375,17.0052083 23.2682292,17.03125 C23.3333333,17.0182292 23.3984375,16.7838542 23.4375,16.7317708 C23.515625,16.640625 23.6197917,16.5885417 23.7239583,16.5364583 C23.9453125,16.4453125 24.1666667,16.4192708 24.4010417,16.3802083 C24.6223958,16.328125 24.8958333,16.328125 25.0651042,16.5234375 C25.0260417,16.484375 25.3385417,16.2109375 25.3776042,16.1979167 C25.4947917,16.1328125 25.6901042,16.1588542 25.7682292,16.0416667 C25.7942708,16.0026042 25.7942708,15.7552083 25.7942708,15.7552083 C25.5729167,15.78125 25.4947917,15.5729167 25.4817708,15.390625 C25.4817708,15.4036458 25.4557292,15.4427083 25.4036458,15.4947917 C25.4166667,15.2994792 25.1692708,15.4427083 25.078125,15.4166667 C24.7786458,15.3385417 24.8177083,15.1302083 24.7265625,14.9088542 C24.6744792,14.7916667 24.53125,14.7526042 24.4791667,14.6354167 C24.4270833,14.5572917 24.4010417,14.3880208 24.2838542,14.375 C24.2057292,14.3619792 24.0625,14.6484375 24.0364583,14.6354167 C23.9192708,14.5703125 23.8671875,14.6614583 23.7760417,14.7135417 C23.6979167,14.765625 23.6328125,14.7395833 23.5546875,14.7786458 C23.7890625,14.7005208 23.4505208,14.5703125 23.3333333,14.5963542 C23.515625,14.5442708 23.4244792,14.3489583 23.3203125,14.2578125 L23.3854167,14.2578125 C23.359375,14.140625 22.9947917,14.0364583 22.8776042,13.9583333 C22.7604167,13.8802083 22.1354167,13.75 22.0052083,13.828125 C21.8489583,13.9192708 22.0442708,14.1796875 22.0442708,14.3098958 C22.0572917,14.4661458 21.8880208,14.5052083 21.8880208,14.6354167 C21.8880208,14.8567708 22.3046875,14.8177083 22.2005208,15.1171875 C22.1354167,15.2994792 21.8880208,15.3385417 21.7838542,15.4817708 C21.6796875,15.6119792 21.796875,15.8463542 21.9010417,15.9375 C22.0052083,16.015625 21.71875,16.1458333 21.6796875,16.171875 C21.4583333,16.2760417 21.2890625,15.9505208 21.2369792,15.7552083 C21.1979167,15.6119792 21.1848958,15.4427083 21.0286458,15.3645833 C20.9505208,15.3385417 20.703125,15.2994792 20.6510417,15.3776042 C20.5729167,15.1822917 20.2994792,15.1041667 20.1171875,15.0390625 C19.8567708,14.9479167 19.6354167,14.9479167 19.3619792,14.9869792 C19.453125,14.9739583 19.3359375,14.5703125 19.1145833,14.6354167 C19.1796875,14.5052083 19.1536458,14.3619792 19.1796875,14.2317708 C19.2057292,14.1276042 19.2578125,14.0234375 19.3359375,13.9322917 C19.3619792,13.8802083 19.6484375,13.5807292 19.5572917,13.5677083 C19.7786458,13.59375 20.0260417,13.6067708 20.2083333,13.4244792 C20.3255208,13.3072917 20.3776042,13.1119792 20.4947917,12.9817708 C20.6640625,12.7864583 20.8723958,13.0338542 21.0546875,13.046875 C21.3151042,13.0598958 21.3020833,12.7734375 21.1588542,12.6432292 C21.328125,12.65625 21.1848958,12.34375 21.09375,12.3046875 C20.9765625,12.265625 20.5338542,12.3828125 20.7682292,12.4739583 C20.7161458,12.4479167 20.4036458,13.0989583 20.2213542,12.7734375 C20.1692708,12.7083333 20.1432292,12.4348958 20.0260417,12.421875 C19.921875,12.421875 19.8567708,12.5390625 19.8177083,12.6171875 C19.8828125,12.4479167 19.453125,12.3307292 19.3619792,12.3177083 C19.5572917,12.1875 19.4010417,12.0442708 19.2578125,11.9661458 C19.1536458,11.9010417 18.828125,11.8489583 18.7369792,11.953125 C18.4895833,12.2526042 18.9973958,12.2916667 19.1276042,12.3697917 C19.1666667,12.3958333 19.3229167,12.4869792 19.2317708,12.5520833 C19.1536458,12.5911458 18.9192708,12.65625 18.8932292,12.7083333 C18.8151042,12.8255208 18.984375,12.9557292 18.8671875,13.0729167 C18.75,12.9557292 18.75,12.7604167 18.6588542,12.6302083 C18.7760417,12.7734375 18.1901042,12.6953125 18.203125,12.6953125 C18.0078125,12.6953125 17.6953125,12.8255208 17.5520833,12.6302083 C17.5260417,12.578125 17.5260417,12.2786458 17.6041667,12.34375 C17.4869792,12.2526042 17.4088542,12.1614583 17.3307292,12.109375 C16.9010417,12.2526042 16.4973958,12.4348958 16.1067708,12.6432292 C16.1588542,12.65625 16.1979167,12.65625 16.2630208,12.6302083 C16.3671875,12.5911458 16.4583333,12.5260417 16.5625,12.4739583 C16.6927083,12.421875 16.9661458,12.265625 17.109375,12.3828125 C17.1223958,12.3567708 17.1614583,12.3307292 17.1744792,12.3177083 C17.265625,12.421875 17.3567708,12.5260417 17.4348958,12.6432292 C17.3307292,12.5911458 17.1614583,12.6171875 17.0442708,12.6302083 C16.953125,12.65625 16.796875,12.6822917 16.7578125,12.7864583 C16.796875,12.8515625 16.8489583,12.9557292 16.8229167,13.0208333 C16.6536458,12.9036458 16.5234375,12.7083333 16.2890625,12.6822917 C16.1848958,12.6822917 16.0807292,12.6822917 16.0026042,12.6953125 C14.7526042,13.3854167 13.6979167,14.3880208 12.9427083,15.5859375 C12.9947917,15.6380208 13.046875,15.6770833 13.0989583,15.6901042 C13.2291667,15.7291667 13.0989583,16.1067708 13.3463542,15.9114583 C13.4244792,15.9765625 13.4375,16.0677083 13.3854167,16.1588542 C13.3984375,16.1458333 13.9192708,16.484375 13.9583333,16.5104167 C14.0494792,16.5885417 14.1927083,16.6796875 14.2317708,16.7838542 C14.2578125,16.875 14.1796875,16.9791667 14.1015625,17.0182292 C14.0885417,16.9921875 13.8932292,16.796875 13.8671875,16.8489583 C13.828125,16.9140625 13.8671875,17.265625 14.0104167,17.2526042 C13.8020833,17.265625 13.8932292,18.0729167 13.8411458,18.2291667 C13.8411458,18.2421875 13.8671875,18.2421875 13.8671875,18.2421875 C13.828125,18.3984375 13.9583333,19.0104167 14.21875,18.9453125 C14.0494792,18.984375 14.5182292,19.5833333 14.5833333,19.6223958 C14.7526042,19.7395833 14.9479167,19.8177083 15.0651042,19.9869792 C15.1953125,20.1692708 15.1953125,20.4427083 15.3776042,20.5859375 C15.3255208,20.7421875 15.6510417,20.9244792 15.6380208,21.1458333 C15.6119792,21.1588542 15.5989583,21.1588542 15.5729167,21.171875 C15.6380208,21.3541667 15.8854167,21.3541667 15.9765625,21.5234375 C16.0286458,21.6276042 15.9765625,21.875 16.1458333,21.8229167 C16.171875,21.5364583 15.9765625,21.25 15.8333333,21.015625 C15.7552083,20.8854167 15.6770833,20.7682292 15.6119792,20.6380208 C15.546875,20.5208333 15.5338542,20.3776042 15.4817708,20.2473958 C15.5338542,20.2604167 15.8203125,20.3645833 15.7942708,20.4036458 C15.6901042,20.6640625 16.2109375,21.1197917 16.3541667,21.2890625 C16.3932292,21.328125 16.6927083,21.71875 16.5364583,21.71875 C16.7057292,21.71875 16.9401042,21.9791667 17.0182292,22.109375 C17.1354167,22.3046875 17.109375,22.5520833 17.1875,22.7604167 C17.265625,23.0208333 17.6302083,23.1380208 17.8385417,23.2552083 C18.0208333,23.3463542 18.1770833,23.4765625 18.359375,23.5416667 C18.6328125,23.6458333 18.6979167,23.5546875 18.9322917,23.515625 C19.2708333,23.4635417 19.3098958,23.8411458 19.5833333,23.984375 C19.7526042,24.0755208 20.1171875,24.2057292 20.2994792,24.1276042 C20.2213542,24.1536458 20.5729167,24.6875 20.5989583,24.7265625 C20.7161458,24.8828125 20.9375,24.9609375 21.0677083,25.1171875 C21.1067708,25.0911458 21.1458333,25.0520833 21.1588542,25 C21.1067708,25.1432292 21.3541667,25.4166667 21.484375,25.390625 C21.6276042,25.3645833 21.6666667,25.078125 21.6666667,24.9739583 C21.40625,25.1041667 21.171875,25 21.0286458,24.7395833 C21.0026042,24.6744792 20.7942708,24.3098958 20.9765625,24.3098958 C21.2239583,24.3098958 21.0546875,24.1145833 21.0286458,23.9322917 C21.0026042,23.75 20.8203125,23.6328125 20.7291667,23.4765625 C20.6510417,23.6328125 20.390625,23.59375 20.3125,23.4635417 C20.3125,23.5026042 20.2734375,23.5677083 20.2734375,23.6197917 C20.2083333,23.6197917 20.1432292,23.6328125 20.078125,23.6067708 C20.1041667,23.4505208 20.1171875,23.2552083 20.15625,23.0859375 C20.2213542,22.8515625 20.6510417,22.3958333 20.0911458,22.421875 C19.8958333,22.4348958 19.8177083,22.5130208 19.7526042,22.6822917 C19.6875,22.8385417 19.7135417,22.9817708 19.53125,23.0598958 C19.4140625,23.1119792 19.0234375,23.0859375 18.90625,23.0208333 C18.6588542,22.8776042 18.4895833,22.421875 18.4895833,22.1614583 C18.4765625,21.8098958 18.6588542,21.4973958 18.4895833,21.171875 C18.5677083,21.1067708 18.6458333,20.9765625 18.7369792,20.9114583 C18.8151042,20.859375 18.90625,20.9505208 18.9453125,20.7942708 C18.90625,20.7682292 18.8541667,20.7161458 18.8411458,20.7161458 C19.0364583,20.8072917 19.4010417,20.5859375 19.5703125,20.7161458 C19.6744792,20.7942708 19.7916667,20.8203125 19.8567708,20.6901042 C19.8697917,20.6510417 19.765625,20.4947917 19.8177083,20.390625 C19.8567708,20.6119792 20,20.6510417 20.1953125,20.5078125 C20.2734375,20.5859375 20.4817708,20.5598958 20.625,20.6380208 C20.7682292,20.7291667 20.7942708,20.8723958 20.9635417,20.6770833 C21.0677083,20.8333333 21.0807292,20.8333333 21.1197917,20.9895833 C21.1588542,21.1328125 21.2369792,21.4973958 21.3671875,21.5625 C21.640625,21.7317708 21.5755208,21.2760417 21.5494792,21.1197917 C21.5364583,21.1067708 21.5364583,20.6770833 21.5234375,20.6770833 C21.1067708,20.5859375 21.2630208,20.2604167 21.4973958,20.0390625 C21.5364583,20.0130208 21.8359375,19.9088542 21.9661458,19.8046875 C22.0833333,19.7005208 22.2265625,19.5182292 22.1614583,19.3489583 C22.2265625,19.3489583 22.2786458,19.296875 22.3046875,19.2317708 C22.265625,19.21875 22.109375,19.0885417 22.0833333,19.1015625 C22.1744792,19.0494792 22.1614583,18.9713542 22.109375,18.8932292 C22.2395833,18.8151042 22.1744792,18.671875 22.3046875,18.6197917 C22.4479167,18.8151042 22.734375,18.59375 22.5911458,18.4375 C22.7213542,18.2552083 23.0208333,18.3463542 23.0989583,18.1770833 C23.2942708,18.2291667 23.1510417,17.9817708 23.2552083,17.8385417 C23.3463542,17.7213542 23.5026042,17.7213542 23.6197917,17.65625 C23.6197917,17.6692708 23.9453125,17.4739583 23.8411458,17.4609375 C24.0625,17.4869792 24.5052083,17.2526042 24.1666667,17.0572917 C24.21875,16.9401042 24.0494792,16.8880208 23.9322917,16.8619792 C24.0234375,16.8359375 24.140625,16.8880208 24.21875,16.8359375 C24.3880208,16.71875 24.2708333,16.6666667 24.1276042,16.6276042 C23.9453125,16.5755208 23.7109375,16.6927083 23.5677083,16.7838542 Z M21.4453125,28.203125 C23.2291667,27.890625 24.8177083,27.0052083 26.015625,25.7421875 C25.9375,25.6640625 25.7942708,25.6901042 25.6901042,25.6380208 C25.5859375,25.5989583 25.5078125,25.5598958 25.3776042,25.5338542 C25.4036458,25.2734375 25.1171875,25.1822917 24.9348958,25.0520833 C24.765625,24.921875 24.6614583,24.7786458 24.4140625,24.8307292 C24.3880208,24.84375 24.1276042,24.9348958 24.1796875,24.9869792 C24.0104167,24.84375 23.9322917,24.765625 23.7109375,24.7005208 C23.5026042,24.6354167 23.359375,24.375 23.1510417,24.609375 C23.046875,24.7135417 23.0989583,24.8697917 23.046875,24.9739583 C22.8776042,24.8307292 23.203125,24.6614583 23.0729167,24.5052083 C22.9166667,24.3229167 22.6432292,24.6223958 22.5130208,24.7005208 C22.4348958,24.765625 22.34375,24.7916667 22.2916667,24.8697917 C22.2265625,24.9609375 22.2005208,25.078125 22.1484375,25.1692708 C22.109375,25.0651042 21.8880208,25.0911458 21.875,25.0130208 C21.9270833,25.3255208 21.9270833,25.6510417 21.9921875,25.9635417 C22.03125,26.1458333 21.9921875,26.4453125 21.8359375,26.5885417 C21.6796875,26.7317708 21.484375,26.8880208 21.4583333,27.109375 C21.4322917,27.265625 21.4713542,27.4088542 21.6145833,27.4479167 C21.6276042,27.6432292 21.40625,27.7864583 21.4192708,27.9947917 C21.4192708,28.0078125 21.4322917,28.1380208 21.4453125,28.203125 Z" id="path-1"></path>
        <filter x="-32.5%" y="-27.5%" width="165.0%" height="165.0%" filterUnits="objectBoundingBox" id="filter-2">
            <feOffset dx="0" dy="1" in="SourceAlpha" result="shadowOffsetOuter1"></feOffset>
            <feGaussianBlur stdDeviation="2" in="shadowOffsetOuter1" result="shadowBlurOuter1"></feGaussianBlur>
            <feColorMatrix values="0 0 0 0 0.831372549   0 0 0 0 0.831372549   0 0 0 0 0.831372549  0 0 0 1 0" type="matrix" in="shadowBlurOuter1"></feColorMatrix>
        </filter>
    </defs>
    <g id="色彩调整" stroke="none" stroke-width="1" fill="none" fill-rule="evenodd">
        <g id="Group-25">
            <circle id="Oval" fill="#F5F5F5" cx="20" cy="20" r="20"></circle>
            <g id="">
                <use fill="black" fill-opacity="1" filter="url(#filter-2)" xlink:href="#path-1"></use>
                <use fill="#05BA0B" fill-rule="evenodd" xlink:href="#path-1"></use>
            </g>
        </g>
    </g>
</svg>