<?xml version="1.0" encoding="UTF-8"?>
<svg width="40px" height="40px" viewBox="0 0 40 40" version="1.1" xmlns="http://www.w3.org/2000/svg" xmlns:xlink="http://www.w3.org/1999/xlink">
    <!-- Generator: Sketch 47.1 (45422) - http://www.bohemiancoding.com/sketch -->
    <title>Group 19</title>
    <desc>Created with Sketch.</desc>
    <defs>
        <path d="M14.2857194,23.7857283 L14.2857194,24.5000149 C14.2857194,24.6897473 14.1183085,24.8571582 13.9285761,24.8571582 L13.2142895,24.8571582 C13.0245572,24.8571582 12.8571463,24.6897473 12.8571463,24.5000149 L12.8571463,23.7857283 C12.8571463,23.595996 13.0245572,23.4285851 13.2142895,23.4285851 L13.9285761,23.4285851 C14.1183085,23.4285851 14.2857194,23.595996 14.2857194,23.7857283 Z M14.2857194,20.9285821 L14.2857194,21.6428686 C14.2857194,21.832601 14.1183085,22.0000119 13.9285761,22.0000119 L13.2142895,22.0000119 C13.0245572,22.0000119 12.8571463,21.832601 12.8571463,21.6428686 L12.8571463,20.9285821 C12.8571463,20.7388497 13.0245572,20.5714388 13.2142895,20.5714388 L13.9285761,20.5714388 C14.1183085,20.5714388 14.2857194,20.7388497 14.2857194,20.9285821 Z M14.2857194,18.0714358 L14.2857194,18.7857224 C14.2857194,18.9754547 14.1183085,19.1428657 13.9285761,19.1428657 L13.2142895,19.1428657 C13.0245572,19.1428657 12.8571463,18.9754547 12.8571463,18.7857224 L12.8571463,18.0714358 C12.8571463,17.8817034 13.0245572,17.7142925 13.2142895,17.7142925 L13.9285761,17.7142925 C14.1183085,17.7142925 14.2857194,17.8817034 14.2857194,18.0714358 Z M27.1428776,23.7857283 L27.1428776,24.5000149 C27.1428776,24.6897473 26.9754667,24.8571582 26.7857343,24.8571582 L16.0714358,24.8571582 C15.8817034,24.8571582 15.7142925,24.6897473 15.7142925,24.5000149 L15.7142925,23.7857283 C15.7142925,23.595996 15.8817034,23.4285851 16.0714358,23.4285851 L26.7857343,23.4285851 C26.9754667,23.4285851 27.1428776,23.595996 27.1428776,23.7857283 Z M27.1428776,20.9285821 L27.1428776,21.6428686 C27.1428776,21.832601 26.9754667,22.0000119 26.7857343,22.0000119 L16.0714358,22.0000119 C15.8817034,22.0000119 15.7142925,21.832601 15.7142925,21.6428686 L15.7142925,20.9285821 C15.7142925,20.7388497 15.8817034,20.5714388 16.0714358,20.5714388 L26.7857343,20.5714388 C26.9754667,20.5714388 27.1428776,20.7388497 27.1428776,20.9285821 Z M27.1428776,18.0714358 L27.1428776,18.7857224 C27.1428776,18.9754547 26.9754667,19.1428657 26.7857343,19.1428657 L16.0714358,19.1428657 C15.8817034,19.1428657 15.7142925,18.9754547 15.7142925,18.7857224 L15.7142925,18.0714358 C15.7142925,17.8817034 15.8817034,17.7142925 16.0714358,17.7142925 L26.7857343,17.7142925 C26.9754667,17.7142925 27.1428776,17.8817034 27.1428776,18.0714358 Z M28.5714507,25.928588 L28.5714507,16.6428627 C28.5714507,16.4531303 28.4040398,16.2857194 28.2143074,16.2857194 L11.7857164,16.2857194 C11.595984,16.2857194 11.4285731,16.4531303 11.4285731,16.6428627 L11.4285731,25.928588 C11.4285731,26.1183204 11.595984,26.2857313 11.7857164,26.2857313 L28.2143074,26.2857313 C28.4040398,26.2857313 28.5714507,26.1183204 28.5714507,25.928588 Z M30.0000238,13.7857164 L30.0000238,25.928588 C30.0000238,26.9107321 29.1964515,27.7143044 28.2143074,27.7143044 L11.7857164,27.7143044 C10.8035724,27.7143044 10,26.9107321 10,25.928588 L10,13.7857164 C10,12.8035724 10.8035724,12 11.7857164,12 L28.2143074,12 C29.1964515,12 30.0000238,12.8035724 30.0000238,13.7857164 Z" id="path-1"></path>
        <filter x="-32.5%" y="-35.0%" width="165.0%" height="182.7%" filterUnits="objectBoundingBox" id="filter-2">
            <feOffset dx="0" dy="1" in="SourceAlpha" result="shadowOffsetOuter1"></feOffset>
            <feGaussianBlur stdDeviation="2" in="shadowOffsetOuter1" result="shadowBlurOuter1"></feGaussianBlur>
            <feColorMatrix values="0 0 0 0 0.831372549   0 0 0 0 0.831372549   0 0 0 0 0.831372549  0 0 0 1 0" type="matrix" in="shadowBlurOuter1"></feColorMatrix>
        </filter>
    </defs>
    <g id="色彩调整" stroke="none" stroke-width="1" fill="none" fill-rule="evenodd">
        <g id="Group-19">
            <g id="Group-2">
                <circle id="Oval" fill="#F5F5F5" cx="20" cy="20" r="20"></circle>
                <g id="list-alt---FontAwesome">
                    <use fill="black" fill-opacity="1" filter="url(#filter-2)" xlink:href="#path-1"></use>
                    <use fill="#05BA0B" fill-rule="evenodd" xlink:href="#path-1"></use>
                </g>
            </g>
        </g>
    </g>
</svg>