<?xml version="1.0" encoding="UTF-8"?>
<svg width="55px" height="55px" viewBox="0 0 55 55" version="1.1" xmlns="http://www.w3.org/2000/svg" xmlns:xlink="http://www.w3.org/1999/xlink">
    <!-- Generator: Sketch 47.1 (45422) - http://www.bohemiancoding.com/sketch -->
    <title>Group 28</title>
    <desc>Created with Sketch.</desc>
    <defs>
        <path d="M40.5,15 C41.875,15 43,16.125 43,17.5 L43,36.5 C43,37.875 41.875,39 40.5,39 L15.5,39 C14.125,39 13,37.875 13,36.5 L13,17.5 C13,16.125 14.125,15 15.5,15 L40.5,15 Z M15.5,17 C15.234375,17 15,17.234375 15,17.5 L15,21 L41,21 L41,17.5 C41,17.234375 40.765625,17 40.5,17 L15.5,17 Z M40.5,37 C40.765625,37 41,36.765625 41,36.5 L41,27 L15,27 L15,36.5 C15,36.765625 15.234375,37 15.5,37 L40.5,37 Z M17,35 L17,33 L21,33 L21,35 L17,35 Z M23,35 L23,33 L29,33 L29,35 L23,35 Z" id="path-1"></path>
        <filter x="-10.0%" y="-12.5%" width="120.0%" height="125.0%" filterUnits="objectBoundingBox" id="filter-2">
            <feOffset dx="0" dy="0" in="SourceAlpha" result="shadowOffsetOuter1"></feOffset>
            <feGaussianBlur stdDeviation="1" in="shadowOffsetOuter1" result="shadowBlurOuter1"></feGaussianBlur>
            <feColorMatrix values="0 0 0 0 1   0 0 0 0 1   0 0 0 0 1  0 0 0 1 0" type="matrix" in="shadowBlurOuter1"></feColorMatrix>
        </filter>
    </defs>
    <g id="色彩调整" stroke="none" stroke-width="1" fill="none" fill-rule="evenodd">
        <g id="Group-28">
            <circle id="Oval" fill="#F9A300" transform="translate(27.500000, 27.500000) rotate(-360.000000) translate(-27.500000, -27.500000) " cx="27.5" cy="27.5" r="27.5"></circle>
            <g id="credit-card---FontAwesome" transform="translate(28.000000, 27.000000) rotate(-360.000000) translate(-28.000000, -27.000000) ">
                <use fill="black" fill-opacity="1" filter="url(#filter-2)" xlink:href="#path-1"></use>
                <use fill="#FFFFFF" fill-rule="evenodd" xlink:href="#path-1"></use>
            </g>
        </g>
    </g>
</svg>