<?xml version="1.0" encoding="UTF-8"?>
<svg width="55px" height="55px" viewBox="0 0 55 55" version="1.1" xmlns="http://www.w3.org/2000/svg" xmlns:xlink="http://www.w3.org/1999/xlink">
    <!-- Generator: Sketch 47.1 (45422) - http://www.bohemiancoding.com/sketch -->
    <title>Group 29</title>
    <desc>Created with Sketch.</desc>
    <defs>
        <path d="M28,12 C36.28125,12 43,18.71875 43,27 C43,35.28125 36.28125,42 28,42 C19.71875,42 13,35.28125 13,27 C13,18.71875 19.71875,12 28,12 Z M33.3515625,22.1757812 C33.1953125,22.2929687 33.0976562,22.5078125 32.9023438,22.546875 C33,22.5273437 33.0976562,22.1757812 33.15625,22.0976562 C33.2734375,21.9609375 33.4296875,21.8828125 33.5859375,21.8046875 C33.9179688,21.6679687 34.25,21.6289062 34.6015625,21.5703125 C34.9335938,21.4921875 35.34375,21.4921875 35.5976562,21.7851562 C35.5390625,21.7265625 36.0078125,21.3164062 36.0664062,21.296875 C36.2421875,21.1992187 36.5351562,21.2382812 36.6523438,21.0625 C36.6914062,21.0039062 36.6914062,20.6328125 36.6914062,20.6328125 C36.359375,20.671875 36.2421875,20.359375 36.2226562,20.0859375 C36.2226562,20.1054687 36.1835938,20.1640625 36.1054688,20.2421875 C36.125,19.9492187 35.7539062,20.1640625 35.6171875,20.125 C35.1679688,20.0078125 35.2265625,19.6953125 35.0898438,19.3632812 C35.0117188,19.1875 34.796875,19.1289062 34.71875,18.953125 C34.640625,18.8359375 34.6015625,18.5820312 34.4257812,18.5625 C34.3085938,18.5429687 34.09375,18.9726562 34.0546875,18.953125 C33.8789062,18.8554687 33.8007812,18.9921875 33.6640625,19.0703125 C33.546875,19.1484375 33.4492188,19.109375 33.3320312,19.1679687 C33.6835938,19.0507812 33.1757812,18.8554687 33,18.8945312 C33.2734375,18.8164062 33.1367188,18.5234375 32.9804688,18.3867187 L33.078125,18.3867187 C33.0390625,18.2109375 32.4921875,18.0546875 32.3164062,17.9375 C32.140625,17.8203125 31.203125,17.625 31.0078125,17.7421875 C30.7734375,17.8789062 31.0664062,18.2695312 31.0664062,18.4648437 C31.0859375,18.6992187 30.8320312,18.7578125 30.8320312,18.953125 C30.8320312,19.2851562 31.4570312,19.2265625 31.3007812,19.6757812 C31.203125,19.9492187 30.8320312,20.0078125 30.6757812,20.2226562 C30.5195312,20.4179687 30.6953125,20.7695312 30.8515625,20.90625 C31.0078125,21.0234375 30.578125,21.21875 30.5195312,21.2578125 C30.1875,21.4140625 29.9335938,20.9257812 29.8554688,20.6328125 C29.796875,20.4179687 29.7773438,20.1640625 29.5429688,20.046875 C29.4257812,20.0078125 29.0546875,19.9492187 28.9765625,20.0664062 C28.859375,19.7734375 28.4492188,19.65625 28.1757812,19.5585937 C27.7851562,19.421875 27.453125,19.421875 27.0429688,19.4804687 C27.1796875,19.4609375 27.0039062,18.8554687 26.671875,18.953125 C26.7695312,18.7578125 26.7304688,18.5429687 26.7695312,18.3476562 C26.8085938,18.1914062 26.8867188,18.0351562 27.0039062,17.8984375 C27.0429688,17.8203125 27.4726562,17.3710938 27.3359375,17.3515625 C27.6679688,17.390625 28.0390625,17.4101562 28.3125,17.1367188 C28.4882812,16.9609375 28.5664062,16.6679688 28.7421875,16.4726562 C28.9960938,16.1796875 29.3085938,16.5507812 29.5820312,16.5703125 C29.9726562,16.5898438 29.953125,16.1601562 29.7382812,15.9648437 C29.9921875,15.984375 29.7773438,15.515625 29.640625,15.4570312 C29.4648438,15.3984375 28.8007812,15.5742188 29.1523438,15.7109375 C29.0742188,15.671875 28.6054688,16.6484375 28.3320312,16.1601562 C28.2539062,16.0625 28.2148438,15.6523438 28.0390625,15.6328125 C27.8828125,15.6328125 27.7851562,15.8085937 27.7265625,15.9257812 C27.8242188,15.671875 27.1796875,15.4960938 27.0429688,15.4765625 C27.3359375,15.28125 27.1015625,15.0664062 26.8867188,14.9492188 C26.7304688,14.8515625 26.2421875,14.7734375 26.1054688,14.9296875 C25.734375,15.3789062 26.4960938,15.4375 26.6914062,15.5546875 C26.75,15.59375 26.984375,15.7304688 26.8476562,15.828125 C26.7304688,15.8867187 26.3789062,15.984375 26.3398438,16.0625 C26.2226562,16.2382812 26.4765625,16.4335938 26.3007812,16.609375 C26.125,16.4335938 26.125,16.140625 25.9882812,15.9453125 C26.1640625,16.1601562 25.2851562,16.0429688 25.3046875,16.0429688 C25.0117188,16.0429688 24.5429688,16.2382812 24.328125,15.9453125 C24.2890625,15.8671875 24.2890625,15.4179688 24.40625,15.515625 C24.2304688,15.3789062 24.1132812,15.2421875 23.9960938,15.1640625 C23.3515625,15.3789062 22.7460938,15.6523438 22.1601562,15.9648437 C22.2382812,15.984375 22.296875,15.984375 22.3945312,15.9453125 C22.5507812,15.8867187 22.6875,15.7890625 22.84375,15.7109375 C23.0390625,15.6328125 23.4492188,15.3984375 23.6640625,15.5742188 C23.6835938,15.5351562 23.7421875,15.4960938 23.7617188,15.4765625 C23.8984375,15.6328125 24.0351562,15.7890625 24.1523438,15.9648437 C23.9960938,15.8867187 23.7421875,15.9257812 23.5664062,15.9453125 C23.4296875,15.984375 23.1953125,16.0234375 23.1367188,16.1796875 C23.1953125,16.2773438 23.2734375,16.4335938 23.234375,16.53125 C22.9804688,16.3554688 22.7851562,16.0625 22.4335938,16.0234375 C22.2773438,16.0234375 22.1210938,16.0234375 22.0039062,16.0429688 C20.1289062,17.078125 18.546875,18.5820312 17.4140625,20.3789062 C17.4921875,20.4570312 17.5703125,20.515625 17.6484375,20.5351562 C17.84375,20.59375 17.6484375,21.1601562 18.0195312,20.8671875 C18.1367188,20.9648437 18.15625,21.1015625 18.078125,21.2382812 C18.0976562,21.21875 18.8789062,21.7265625 18.9375,21.765625 C19.0742188,21.8828125 19.2890625,22.0195312 19.3476562,22.1757812 C19.3867188,22.3125 19.2695312,22.46875 19.1523438,22.5273437 C19.1328125,22.4882812 18.8398438,22.1953125 18.8007812,22.2734375 C18.7421875,22.3710937 18.8007812,22.8984375 19.015625,22.8789062 C18.703125,22.8984375 18.8398438,24.109375 18.7617188,24.34375 C18.7617188,24.3632812 18.8007812,24.3632812 18.8007812,24.3632812 C18.7421875,24.5976562 18.9375,25.515625 19.328125,25.4179687 C19.0742188,25.4765625 19.7773438,26.375 19.875,26.4335937 C20.1289062,26.609375 20.421875,26.7265625 20.5976562,26.9804687 C20.7929688,27.2539062 20.7929688,27.6640625 21.0664062,27.8789062 C20.9882812,28.1132812 21.4765625,28.3867187 21.4570312,28.71875 C21.4179688,28.7382812 21.3984375,28.7382812 21.359375,28.7578125 C21.4570312,29.03125 21.828125,29.03125 21.9648438,29.2851562 C22.0429688,29.4414062 21.9648438,29.8125 22.21875,29.734375 C22.2578125,29.3046875 21.9648438,28.875 21.75,28.5234375 C21.6328125,28.328125 21.515625,28.1523437 21.4179688,27.9570312 C21.3203125,27.78125 21.3007812,27.5664062 21.2226562,27.3710937 C21.3007812,27.390625 21.7304688,27.546875 21.6914062,27.6054687 C21.5351562,27.9960937 22.3164062,28.6796875 22.53125,28.9335937 C22.5898438,28.9921875 23.0390625,29.578125 22.8046875,29.578125 C23.0585938,29.578125 23.4101562,29.96875 23.5273438,30.1640625 C23.703125,30.4570312 23.6640625,30.828125 23.78125,31.140625 C23.8984375,31.53125 24.4453125,31.7070312 24.7578125,31.8828125 C25.03125,32.0195312 25.265625,32.2148437 25.5390625,32.3125 C25.9492188,32.46875 26.046875,32.3320312 26.3984375,32.2734375 C26.90625,32.1953125 26.9648438,32.7617187 27.375,32.9765625 C27.6289062,33.1132812 28.1757812,33.3085937 28.4492188,33.1914062 C28.3320312,33.2304687 28.859375,34.03125 28.8984375,34.0898437 C29.0742188,34.3242187 29.40625,34.4414062 29.6015625,34.6757812 C29.6601562,34.6367187 29.71875,34.578125 29.7382812,34.5 C29.6601562,34.7148437 30.03125,35.125 30.2265625,35.0859375 C30.4414062,35.046875 30.5,34.6171875 30.5,34.4609375 C30.109375,34.65625 29.7578125,34.5 29.5429688,34.109375 C29.5039062,34.0117187 29.1914062,33.4648437 29.4648438,33.4648437 C29.8359375,33.4648437 29.5820312,33.171875 29.5429688,32.8984375 C29.5039062,32.625 29.2304688,32.4492187 29.09375,32.2148437 C28.9765625,32.4492187 28.5859375,32.390625 28.46875,32.1953125 C28.46875,32.2539062 28.4101562,32.3515625 28.4101562,32.4296875 C28.3125,32.4296875 28.2148438,32.4492187 28.1171875,32.4101562 C28.15625,32.1757812 28.1757812,31.8828125 28.234375,31.6289062 C28.3320312,31.2773437 28.9765625,30.59375 28.1367188,30.6328125 C27.84375,30.6523437 27.7265625,30.7695312 27.6289062,31.0234375 C27.53125,31.2578125 27.5703125,31.4726562 27.296875,31.5898437 C27.1210938,31.6679687 26.5351562,31.6289062 26.359375,31.53125 C25.9882812,31.3164062 25.734375,30.6328125 25.734375,30.2421875 C25.7148438,29.7148437 25.9882812,29.2460937 25.734375,28.7578125 C25.8515625,28.6601562 25.96875,28.4648437 26.1054688,28.3671875 C26.2226562,28.2890625 26.359375,28.4257812 26.4179688,28.1914062 C26.359375,28.1523437 26.28125,28.0742187 26.2617188,28.0742187 C26.5546875,28.2109375 27.1015625,27.8789062 27.3554688,28.0742187 C27.5117188,28.1914062 27.6875,28.2304687 27.7851562,28.0351562 C27.8046875,27.9765625 27.6484375,27.7421875 27.7265625,27.5859375 C27.7851562,27.9179687 28,27.9765625 28.2929688,27.7617187 C28.4101562,27.8789062 28.7226562,27.8398437 28.9375,27.9570312 C29.1523438,28.09375 29.1914062,28.3085937 29.4453125,28.015625 C29.6015625,28.25 29.6210938,28.25 29.6796875,28.484375 C29.7382812,28.6992187 29.8554688,29.2460937 30.0507812,29.34375 C30.4609375,29.5976562 30.3632812,28.9140625 30.3242188,28.6796875 C30.3046875,28.6601562 30.3046875,28.015625 30.2851562,28.015625 C29.6601562,27.8789062 29.8945312,27.390625 30.2460938,27.0585937 C30.3046875,27.0195312 30.7539062,26.8632812 30.9492188,26.7070312 C31.125,26.5507812 31.3398438,26.2773437 31.2421875,26.0234375 C31.3398438,26.0234375 31.4179688,25.9453125 31.4570312,25.8476562 C31.3984375,25.828125 31.1640625,25.6328125 31.125,25.6523437 C31.2617188,25.5742187 31.2421875,25.4570312 31.1640625,25.3398437 C31.359375,25.2226562 31.2617188,25.0078125 31.4570312,24.9296875 C31.671875,25.2226562 32.1015625,24.890625 31.8867188,24.65625 C32.0820312,24.3828125 32.53125,24.5195312 32.6484375,24.265625 C32.9414062,24.34375 32.7265625,23.9726562 32.8828125,23.7578125 C33.0195312,23.5820312 33.2539062,23.5820312 33.4296875,23.484375 C33.4296875,23.5039062 33.9179688,23.2109375 33.7617188,23.1914062 C34.09375,23.2304687 34.7578125,22.8789062 34.25,22.5859375 C34.328125,22.4101562 34.0742188,22.3320312 33.8984375,22.2929687 C34.0351562,22.2539062 34.2109375,22.3320312 34.328125,22.2539062 C34.5820312,22.078125 34.40625,22 34.1914062,21.9414062 C33.9179688,21.8632812 33.5664062,22.0390625 33.3515625,22.1757812 Z M30.1679687,39.3046875 C32.84375,38.8359375 35.2265625,37.5078125 37.0234375,35.6132812 C36.90625,35.4960938 36.6914062,35.5351562 36.5351562,35.4570312 C36.3789062,35.3984375 36.2617188,35.3398438 36.0664062,35.3007812 C36.1054688,34.9101562 35.6757812,34.7734375 35.4023438,34.578125 C35.1484375,34.3828125 34.9921875,34.1679688 34.6210938,34.2460938 C34.5820312,34.265625 34.1914062,34.4023438 34.2695312,34.4804688 C34.015625,34.265625 33.8984375,34.1484375 33.5664062,34.0507812 C33.2539062,33.953125 33.0390625,33.5625 32.7265625,33.9140625 C32.5703125,34.0703125 32.6484375,34.3046875 32.5703125,34.4609375 C32.3164062,34.2460938 32.8046875,33.9921875 32.609375,33.7578125 C32.375,33.484375 31.9648437,33.9335938 31.7695312,34.0507812 C31.6523437,34.1484375 31.515625,34.1875 31.4375,34.3046875 C31.3398437,34.4414062 31.3007812,34.6171875 31.2226562,34.7539062 C31.1640625,34.5976562 30.8320312,34.6367188 30.8125,34.5195312 C30.890625,34.9882812 30.890625,35.4765625 30.9882812,35.9453125 C31.046875,36.21875 30.9882812,36.6679687 30.7539062,36.8828125 C30.5195312,37.0976562 30.2265625,37.3320312 30.1875,37.6640625 C30.1484375,37.8984375 30.2070312,38.1132812 30.421875,38.171875 C30.4414062,38.4648437 30.109375,38.6796875 30.1289062,38.9921875 C30.1289062,39.0117187 30.1484375,39.2070312 30.1679687,39.3046875 Z" id="path-1"></path>
        <filter x="-21.7%" y="-18.3%" width="143.3%" height="143.3%" filterUnits="objectBoundingBox" id="filter-2">
            <feOffset dx="0" dy="1" in="SourceAlpha" result="shadowOffsetOuter1"></feOffset>
            <feGaussianBlur stdDeviation="2" in="shadowOffsetOuter1" result="shadowBlurOuter1"></feGaussianBlur>
            <feColorMatrix values="0 0 0 0 0.831372549   0 0 0 0 0.831372549   0 0 0 0 0.831372549  0 0 0 1 0" type="matrix" in="shadowBlurOuter1"></feColorMatrix>
        </filter>
    </defs>
    <g id="色彩调整" stroke="none" stroke-width="1" fill="none" fill-rule="evenodd">
        <g id="Group-29">
            <circle id="Oval" fill="#F9A300" transform="translate(27.500000, 27.500000) rotate(-360.000000) translate(-27.500000, -27.500000) " cx="27.5" cy="27.5" r="27.5"></circle>
            <g id="">
                <use fill="black" fill-opacity="1" filter="url(#filter-2)" xlink:href="#path-1"></use>
                <use fill="#FFFFFF" fill-rule="evenodd" xlink:href="#path-1"></use>
            </g>
        </g>
    </g>
</svg>