<?xml version="1.0" encoding="UTF-8"?>
<svg width="55px" height="55px" viewBox="0 0 55 55" version="1.1" xmlns="http://www.w3.org/2000/svg" xmlns:xlink="http://www.w3.org/1999/xlink">
    <!-- Generator: Sketch 47.1 (45422) - http://www.bohemiancoding.com/sketch -->
    <title>Group 27</title>
    <desc>Created with Sketch.</desc>
    <defs>
        <path d="M43,37.9272097 C43,37.3379549 42.7573657,36.7660312 42.3587522,36.3500867 L36.067591,30.0589255 C35.6516464,29.660312 35.0797227,29.4176776 34.4904679,29.4176776 C33.8318891,29.4176776 33.2946274,29.694974 32.8266898,30.1629116 L28.389948,25.7261698 L30.5736568,23.542461 C30.729636,23.3864818 30.8162912,23.1785095 30.8162912,22.9532062 C30.8162912,22.7279029 30.729636,22.5199307 30.5736568,22.3639515 C31.0935875,22.8838821 31.47487,23.3691508 32.2720971,23.3691508 C32.7227036,23.3691508 33.1213172,23.1958406 33.4506066,22.8838821 C34.0745234,22.2946274 34.9064125,21.6707106 34.9064125,20.7348354 C34.9064125,20.3015598 34.7331023,19.8682842 34.4211438,19.5563258 L27.3500867,12.4852686 C27.0381282,12.1733102 26.6048527,12 26.1715771,12 C25.2357019,12 24.6117851,12.8318891 24.0225303,13.4558059 C23.7105719,13.7850953 23.5372617,14.1837088 23.5372617,14.6343154 C23.5372617,15.4315425 24.0225303,15.812825 24.542461,16.3327556 C24.3864818,16.1767764 24.1785095,16.0901213 23.9532062,16.0901213 C23.7279029,16.0901213 23.5199307,16.1767764 23.3639515,16.3327556 L17.3327556,22.3639515 C17.1767764,22.5199307 17.0901213,22.7279029 17.0901213,22.9532062 C17.0901213,23.1785095 17.1767764,23.3864818 17.3327556,23.542461 C16.812825,23.0225303 16.4315425,22.5372617 15.6343154,22.5372617 C15.1837088,22.5372617 14.7850953,22.7105719 14.4558059,23.0225303 C13.8318891,23.6117851 13,24.2357019 13,25.1715771 C13,25.6048527 13.1733102,26.0381282 13.4852686,26.3500867 L20.5563258,33.4211438 C20.8682842,33.7331023 21.3015598,33.9064125 21.7348354,33.9064125 C22.6707106,33.9064125 23.2946274,33.0745234 23.8838821,32.4506066 C24.1958406,32.1213172 24.3691508,31.7227036 24.3691508,31.2720971 C24.3691508,30.47487 23.8838821,30.0935875 23.3639515,29.5736568 C23.5199307,29.729636 23.7279029,29.8162912 23.9532062,29.8162912 C24.1785095,29.8162912 24.3864818,29.729636 24.542461,29.5736568 L26.7261698,27.389948 L31.1629116,31.8266898 C30.694974,32.2946274 30.4176776,32.8318891 30.4176776,33.4904679 C30.4176776,34.0797227 30.660312,34.6516464 31.0762565,35.05026 L37.3674177,41.3587522 C37.7660312,41.7573657 38.3379549,42 38.9272097,42 C39.5164645,42 40.0883882,41.7573657 40.5043328,41.3587522 L42.3587522,39.4870017 C42.7573657,39.0883882 43,38.5164645 43,37.9272097 Z" id="path-1"></path>
        <filter x="-21.7%" y="-18.3%" width="143.3%" height="143.3%" filterUnits="objectBoundingBox" id="filter-2">
            <feOffset dx="0" dy="1" in="SourceAlpha" result="shadowOffsetOuter1"></feOffset>
            <feGaussianBlur stdDeviation="2" in="shadowOffsetOuter1" result="shadowBlurOuter1"></feGaussianBlur>
            <feColorMatrix values="0 0 0 0 0.831372549   0 0 0 0 0.831372549   0 0 0 0 0.831372549  0 0 0 1 0" type="matrix" in="shadowBlurOuter1"></feColorMatrix>
        </filter>
    </defs>
    <g id="色彩调整" stroke="none" stroke-width="1" fill="none" fill-rule="evenodd">
        <g id="Group-27">
            <circle id="Oval" fill="#F9A300" transform="translate(27.500000, 27.500000) rotate(-360.000000) translate(-27.500000, -27.500000) " cx="27.5" cy="27.5" r="27.5"></circle>
            <g id="">
                <use fill="black" fill-opacity="1" filter="url(#filter-2)" xlink:href="#path-1"></use>
                <use fill="#FFFFFF" fill-rule="evenodd" xlink:href="#path-1"></use>
            </g>
        </g>
    </g>
</svg>