<?xml version="1.0" encoding="UTF-8"?>
<svg width="12px" height="14px" viewBox="0 0 12 14" version="1.1" xmlns="http://www.w3.org/2000/svg" xmlns:xlink="http://www.w3.org/1999/xlink">
    <!-- Generator: Sketch 46.2 (44496) - http://www.bohemiancoding.com/sketch -->
    <title>Paperclip - FontAwesome</title>
    <desc>Created with Sketch.</desc>
    <defs></defs>
    <g id="2.企业管理中心" stroke="none" stroke-width="1" fill="none" fill-rule="evenodd">
        <g id="3.3.1.查看企业信息（认证中）" transform="translate(-292.000000, -487.000000)" fill="#F9C300">
            <g id="Group-7" transform="translate(140.000000, 143.000000)">
                <g id="Group-6" transform="translate(32.000000, 168.000000)">
                    <g id="Group" transform="translate(120.000000, 174.000000)">
                        <path d="M11.8522462,12.7360476 C11.8522462,11.9994396 11.542536,11.2879432 11.0151916,10.7689694 L6.15190454,5.90568232 C5.82545325,5.57086049 5.37344379,5.37833794 4.90469323,5.37833794 C3.9839332,5.37833794 3.26406627,6.09820487 3.26406627,7.01896489 C3.26406627,7.47934491 3.45658882,7.93972492 3.79141065,8.2661762 L7.22333438,11.6980999 C7.27355766,11.7483232 7.34052202,11.7818054 7.40748639,11.7818054 C7.58326785,11.7818054 8.06038895,11.3046843 8.06038895,11.1289028 C8.06038895,11.0619385 8.02690677,10.9949741 7.9766835,10.9447508 L4.54475976,7.51282709 C4.41920158,7.37889836 4.33549612,7.2031169 4.33549612,7.01896489 C4.33549612,6.69251361 4.57824195,6.45813833 4.89632268,6.45813833 C5.08047469,6.45813833 5.26462669,6.53347324 5.39855542,6.65903143 L10.2618425,11.5223185 C10.5799232,11.8403992 10.7891868,12.2756676 10.7891868,12.7360476 C10.7891868,13.447544 10.2618425,13.9748884 9.55034609,13.9748884 C9.09833662,13.9748884 8.6546977,13.7656247 8.33661696,13.447544 L1.8410735,6.94362998 C1.43928731,6.54184379 1.20491203,5.99775832 1.20491203,5.42856121 C1.20491203,4.24831427 2.12567206,3.28570151 3.31428955,3.28570151 C3.88348665,3.28570151 4.42757212,3.53681788 4.82935832,3.93023353 L9.90190901,9.01115477 C9.95213228,9.06137804 10.0190966,9.09486022 10.0944316,9.09486022 C10.270213,9.09486022 10.7389636,8.62610967 10.7389636,8.45032821 C10.7389636,8.38336384 10.7054814,8.31639947 10.6552581,8.2661762 L5.59107797,3.19362551 C4.98002814,2.59094622 4.15971466,2.24775385 3.305919,2.24775385 C1.53136331,2.24775385 0.133482183,3.66237607 0.133482183,5.43693176 C0.133482183,6.28235687 0.485045102,7.10267035 1.07935385,7.70534964 L7.58326785,14.2008931 C8.10224168,14.7198669 8.81373807,15.0379477 9.55034609,15.0379477 C10.8561512,15.0379477 11.8522462,14.0418527 11.8522462,12.7360476 Z" id="Paperclip---FontAwesome"></path>
                    </g>
                </g>
            </g>
        </g>
    </g>
</svg>