<?xml version="1.0" encoding="UTF-8"?>
<svg width="15px" height="13px" viewBox="0 0 15 13" version="1.1" xmlns="http://www.w3.org/2000/svg" xmlns:xlink="http://www.w3.org/1999/xlink">
    <!-- Generator: Sketch 46.2 (44496) - http://www.bohemiancoding.com/sketch -->
    <title>Diamond - FontAwesome</title>
    <desc>Created with Sketch.</desc>
    <defs></defs>
    <g id="2.企业管理中心" stroke="none" stroke-width="1" fill="none" fill-rule="evenodd">
        <g id="1.企业未认证登录管理中心" transform="translate(-186.000000, -212.000000)" fill="#FFFFFF">
            <g id="企业信息" transform="translate(140.000000, 143.000000)">
                <g id="Group-4" transform="translate(38.000000, 65.000000)">
                    <g id="Group-2" transform="translate(7.000000, 3.000000)">
                        <path d="M2.53794826,6.42856479 L7.0574849,11.2527893 L4.88114302,6.42856479 L2.53794826,6.42856479 Z M8.42858028,12.0290179 L10.9603913,6.42856479 L5.89676923,6.42856479 L8.42858028,12.0290179 Z M4.90290644,5.49999225 L6.38281892,2.71427464 L4.48214701,2.71427464 L2.3928588,5.49999225 L4.90290644,5.49999225 Z M9.79967567,11.2527893 L14.3192123,6.42856479 L11.9760175,6.42856479 L9.79967567,11.2527893 Z M5.95480501,5.49999225 L10.9023556,5.49999225 L9.42244308,2.71427464 L7.43471749,2.71427464 L5.95480501,5.49999225 Z M11.9542541,5.49999225 L14.4643018,5.49999225 L12.3750136,2.71427464 L10.4743417,2.71427464 L11.9542541,5.49999225 Z M12.9771348,1.97431841 L15.7628524,5.68860855 C15.9006874,5.8627159 15.8861785,6.11662245 15.7338345,6.28347533 L8.76954051,13.7120556 C8.68248684,13.8063638 8.5591608,13.8571451 8.42858028,13.8571451 C8.29799977,13.8571451 8.17467373,13.8063638 8.08762006,13.7120556 L1.12332604,6.28347533 C0.970982108,6.11662245 0.956473162,5.8627159 1.09430815,5.68860855 L3.88002575,1.97431841 C3.96707943,1.85099237 4.10491442,1.78570211 4.25000387,1.78570211 L12.6071567,1.78570211 C12.7522462,1.78570211 12.8900811,1.85099237 12.9771348,1.97431841 Z" id="Diamond---FontAwesome"></path>
                    </g>
                </g>
            </g>
        </g>
    </g>
</svg>