<?xml version="1.0" encoding="UTF-8"?>
<svg width="18px" height="14px" viewBox="0 0 18 14" version="1.1" xmlns="http://www.w3.org/2000/svg" xmlns:xlink="http://www.w3.org/1999/xlink">
    <!-- Generator: Sketch 47 (45396) - http://www.bohemiancoding.com/sketch -->
    <title>运输</title>
    <desc>Created with Sketch.</desc>
    <defs>
        <polygon id="path-1" points="0.00132959457 0.00201166174 0.00132959457 12.6988721 17.9809494 12.6988721 17.9809494 0.00201166174"></polygon>
    </defs>
    <g id="4.0官网视觉" stroke="none" stroke-width="1" fill="none" fill-rule="evenodd">
        <g id="首页（交互效果）" transform="translate(-988.000000, -158.000000)">
            <g id="产品下拉列表" transform="translate(354.000000, 119.000000)">
                <g id="运输" transform="translate(634.000000, 39.000000)">
                    <g id="Group-4">
                        <mask id="mask-2" fill="white">
                            <use xlink:href="#path-1"></use>
                        </mask>
                        <g id="Clip-2"></g>
                        <polygon id="Fill-1" fill="#646464" mask="url(#mask-2)" points="17.9809494 12.6988721 16.3707217 12.6988721 16.3707217 11.4830798 16.8291438 11.4830798 16.8291438 7.62642019 14.3884513 4.64520766 11.2682253 4.64520766 11.2682253 1.21780388 2.92561772 1.21780388 2.92561772 2.70472599 1.77383427 2.70472599 1.77383427 0.00201166174 12.4200309 0.00201166174 12.4200309 3.42939205 14.9148378 3.42939205 17.9809494 7.17412377"></polygon>
                        <path d="M6.91207463,3.06097725 C6.91207463,3.39895982 6.63680423,3.67254582 6.29695986,3.67254582 L0.615114766,3.67254582 C0.275270395,3.67254582 0,3.39895982 0,3.06097725 C0,2.72299469 0.275270395,2.44940869 0.615114766,2.44940869 L6.29582971,2.44940869 C6.63558544,2.45060166 6.91207463,2.72418765 6.91207463,3.06097725 Z M6.91207463,5.83185417 C6.91207463,6.16983674 6.63680423,6.44342273 6.29695986,6.44342273 L0.615114766,6.44342273 C0.275270395,6.44342273 0,6.16983674 0,5.83185417 C0,5.49387161 0.275270395,5.220309 0.615114766,5.220309 L6.29582971,5.220309 C6.63558544,5.220309 6.91207463,5.49387161 6.91207463,5.83185417 Z M8.06388024,8.62467224 C8.06388024,8.96256124 7.74256155,9.23612384 7.34627589,9.23612384 L0.717604347,9.23612384 C0.321407326,9.23612384 0,8.9626548 0,8.62457867 C0,8.28657272 0.321407326,8.01301011 0.717604347,8.01301011 L7.34514574,8.01301011 C7.74256155,8.01301011 8.06388024,8.28657272 8.06388024,8.62467224 Z M12.4200309,12.6988721 L8.39333161,12.6988721 L8.39333161,11.4830798 L11.2682253,11.4830798 L11.2682253,4.03728816 L12.4200309,4.03728816 L12.4200309,12.6988721 Z" id="Fill-3" fill="#646464" mask="url(#mask-2)"></path>
                    </g>
                    <path d="M14.7142667,13.7600002 C13.4894595,13.7600002 12.4931485,12.8102088 12.4931485,11.6436229 C12.4931485,10.4759454 13.4894595,9.526154 14.7142667,9.526154 C15.9390511,9.526154 16.9353849,10.4759454 16.9353849,11.6436229 C16.9352933,12.8102088 15.9390511,13.7600002 14.7142667,13.7600002 Z M14.7142667,10.5826179 C14.1000883,10.5826179 13.6013718,11.0580812 13.6013718,11.6436229 C13.6013718,12.2279857 14.1000883,12.7035145 14.7142667,12.7035145 C15.3284451,12.7035145 15.8271616,12.2279857 15.8271616,11.6436229 C15.8259937,11.0580812 15.3272772,10.5825524 14.7142667,10.5825524 L14.7142667,10.5826179 Z M6.4548728,13.7600002 C5.23008844,13.7600002 4.23384622,12.8102088 4.23384622,11.6436229 C4.23384622,10.4759454 5.23008844,9.526154 6.4548728,9.526154 C7.67965716,9.526154 8.67599098,10.4759454 8.67599098,11.6436229 C8.67599098,12.8102088 7.67851216,13.7600002 6.4548728,13.7600002 Z M6.4548728,10.5826179 C5.84193102,10.5826179 5.34314581,11.0580812 5.34314581,11.6436229 C5.34314581,12.2279857 5.84193102,12.7035145 6.4548728,12.7035145 C7.06790618,12.7035145 7.56659979,12.2279857 7.56659979,11.6436229 C7.56543189,11.0580812 7.06664668,10.5825524 6.4548728,10.5825524 L6.4548728,10.5826179 Z" id="Fill-5" fill="#646464"></path>
                    <polygon id="Fill-6" fill="#646464" points="1.05846156 11.6430771 4.23384622 11.6430771 4.23384622 10.5846156 1.05846156 10.5846156"></polygon>
                    <path d="M1.9757949,11.0446163 C1.9757949,11.3743703 1.77074921,11.6430771 1.51710228,11.6430771 C1.26438965,11.6430771 1.05846156,11.375612 1.05846156,11.0446163 L1.05846156,10.3170624 C1.05846156,9.9873084 1.26350725,9.71860156 1.51710228,9.71860156 C1.7697976,9.71860156 1.9757949,9.98617957 1.9757949,10.3170624 L1.9757949,11.0446163 Z M12.5251284,6.35076934 L12.5251284,7.794126 L14.8184618,7.794126 L13.7946281,6.35076934 L12.5251284,6.35076934 Z" id="Fill-7" fill="#646464"></path>
                </g>
            </g>
        </g>
    </g>
</svg>