<?xml version="1.0" encoding="UTF-8"?>
<svg width="15px" height="16px" viewBox="0 0 15 16" version="1.1" xmlns="http://www.w3.org/2000/svg" xmlns:xlink="http://www.w3.org/1999/xlink">
    <!-- Generator: Sketch 47 (45396) - http://www.bohemiancoding.com/sketch -->
    <title>资金</title>
    <desc>Created with Sketch.</desc>
    <defs>
        <polygon id="path-1" points="0 15 15 15 15 6.27941405e-15 2.97559278e-19 0"></polygon>
    </defs>
    <g id="4.0官网视觉" stroke="none" stroke-width="1" fill="none" fill-rule="evenodd">
        <g id="首页（交互效果）" transform="translate(-898.000000, -175.000000)">
            <g id="我要合作下拉列表" transform="translate(858.000000, 119.000000)">
                <g id="资金" transform="translate(40.000000, 56.777158)">
                    <mask id="mask-2" fill="white">
                        <use xlink:href="#path-1"></use>
                    </mask>
                    <g id="Clip-2"></g>
                    <path d="M11.1097906,4.17442504 C9.81321135,4.17442504 8.63795861,4.47274555 7.91497354,4.94223719 L7.91497354,2.00677295 C7.91497354,0.881447532 6.20926304,0 3.97545313,0 C1.74153602,0 0,0.881447532 0,2.00677295 L0,10.7472343 L0.00694641966,10.7472343 C0.0789833643,11.8383329 1.7889389,12.6836756 3.97545313,12.6836756 L3.97646078,12.6836756 L3.97845466,12.2204438 L3.97519585,12.9905574 L3.97519585,13.0636324 L3.98173492,13.0636324 C4.05409346,14.1548046 5.77260338,15 7.95886033,15 C10.1708233,15 11.9047483,14.1353805 11.9396519,13.0262388 L11.9429322,13.0262388 L11.9429322,12.4801371 C13.7423336,12.2942369 14.9666615,11.5145493 14.9967197,10.549385 L15,10.549385 L15,6.18127164 C15,5.05587257 13.3440293,4.17449869 11.1097263,4.17449869 L11.1097906,4.17442504 Z M7.95886033,14.2774984 C6.10382325,14.2774984 4.71182492,13.6022405 4.70854466,12.9951602 L4.70854466,12.9905574 C4.7093808,12.932009 4.72488161,12.872761 4.74758611,12.8137892 C5.47175036,13.268165 6.6862934,13.5549784 7.95886033,13.5549784 C9.23183461,13.5549784 10.410383,13.268165 11.1345472,12.8137892 C11.1580878,12.8734791 11.1744034,12.9334635 11.1744034,12.9930798 C11.1744034,13.6005835 9.81522667,14.2774984 7.95886033,14.2774984 Z M4.69630767,11.594234 L4.69714381,11.5042757 C4.70123877,11.4591677 4.71264462,11.4140045 4.72973195,11.3688412 C5.45464658,11.8232355 6.68637916,12.1100488 7.95894609,12.1100488 C9.23275651,12.1100488 10.4599435,11.8225174 11.184022,11.3674051 C11.206898,11.4246463 11.2214555,11.4849253 11.2214555,11.5480581 C11.2214555,12.1555803 9.81522667,12.8325504 7.95894609,12.8325504 C6.14854618,12.8325504 4.75979022,12.1893837 4.69630767,11.594234 Z M11.2214555,10.1030549 C11.2214555,10.7105587 9.81639828,11.3876209 7.96171201,11.3876209 C6.1977187,11.3876209 4.82718486,10.7757904 4.70770319,10.1937497 L4.70853858,10.1030549 C4.69630767,9.49562483 6.10668301,8.81856266 7.96179769,8.81856266 C9.81639828,8.81856266 11.2214555,9.49562483 11.2214555,10.1030549 Z M0.670857132,7.81845341 L0.671114406,7.75287188 C0.674716254,7.70454186 0.686529455,7.65584361 0.705610669,7.60709012 C1.43003219,8.0618342 2.7025646,8.3487212 3.97553888,8.3487212 C5.24851317,8.3487212 6.55593757,8.0618342 7.28027334,7.60709012 C7.30389974,7.66712982 7.31914327,7.72676446 7.31914327,7.78674892 C7.31914327,7.90979255 7.26344328,8.03580042 7.16319186,8.15856788 C6.13754442,8.28621438 5.08956022,8.60791741 4.55933829,9.04684606 C4.37133473,9.06166727 4.17754248,9.07114916 3.97553888,9.07114916 C2.15081735,9.07114916 0.714829683,8.41746951 0.670857132,7.81845341 Z M7.52880992,8.11231836 C7.49501839,8.11621836 7.46260144,8.12171836 7.42880992,8.12751836 C7.46260144,8.12211836 7.49501839,8.11621836 7.52880992,8.11231836 Z M3.97545313,5.45847546 C5.24817013,5.45847546 6.55527294,5.17188304 7.27969447,4.71748878 C7.30306359,4.77712342 7.31914327,4.83696059 7.31914327,4.89679776 C7.31914327,5.50422788 5.83222681,6.18106912 3.97545313,6.18106912 C2.18231207,6.18106912 0.759874213,5.54988824 0.67488777,4.95950711 L0.675123605,4.83322307 C0.680569255,4.79459588 0.690795929,4.75604233 0.706125219,4.71748878 C1.43037523,5.1716621 2.70265036,5.45847546 3.97545313,5.45847546 Z M0.677138925,3.38072642 C0.682841849,3.34454794 0.692039424,3.30859041 0.706275296,3.27255923 C1.43054674,3.72695348 2.70271468,4.01361955 3.97553888,4.01361955 C5.24943507,4.01361955 6.5575241,3.72623544 7.28194562,3.27119678 C7.3049074,3.32829065 7.31914327,3.38864333 7.31914327,3.45170251 C7.31914327,4.05920627 5.83222681,4.73604751 3.97553888,4.73604751 C2.19804871,4.73604751 0.781742571,4.11602396 0.676967408,3.5300984 L0.677138925,3.38072642 Z M0.704774526,6.16164505 C1.42919605,6.61638912 2.70187853,6.90357071 3.97545313,6.90357071 C5.24825589,6.90357071 6.55553022,6.61668371 7.27986598,6.16251039 C7.30323511,6.22190568 7.31914327,6.28174285 7.31914327,6.34165367 C7.31914327,6.94915743 5.83222681,7.62614596 3.97545313,7.62614596 C2.16666119,7.62614596 0.737534185,6.98375252 0.672872451,6.38898947 L0.673129726,6.286493 C0.678146584,6.24484633 0.688287499,6.20329172 0.704774526,6.16164505 Z M3.97519585,0.59704861 C5.83196954,0.59704861 7.31914327,1.39926919 7.31914327,2.00677295 C7.31914327,2.61420307 5.83222681,3.29104431 3.97545313,3.29104431 C2.21389255,3.29104431 0.80309638,2.68195716 0.678982727,2.10063446 L0.679154244,2.00677295 C0.666762174,1.39926919 2.11848648,0.59704861 3.97519585,0.59704861 Z M3.97519585,11.5480581 C3.97519585,11.5688447 3.98014839,11.589355 3.98089878,11.6097733 L3.97946232,11.961174 C2.11940838,11.961174 0.668005669,11.2849219 0.666762174,10.6773997 C0.666933691,10.613107 0.68183419,10.5535644 0.70460301,10.4964521 C1.42896022,10.9514908 2.70181422,11.238746 3.97545313,11.238746 C3.97706824,11.238746 3.97916217,11.3253841 3.98173492,11.4986603 C3.98089878,11.5152674 3.97519585,11.5315247 3.97519585,11.5480581 Z M3.98323569,11.1190717 L3.98542252,10.5158025 C2.13516646,10.5160971 0.691632072,9.85105761 0.668841812,9.24786213 L0.669013329,9.21678362 C0.670599857,9.16213848 0.684685652,9.10710669 0.706275296,9.0523879 C1.43054674,9.50676375 2.70265036,9.79359552 3.97545313,9.79359552 C3.99254046,9.79359552 4.00885597,9.79221466 4.02570747,9.79221466 C3.99562776,9.89312775 3.97528161,9.99647114 3.97528161,10.1029813 C3.97528161,10.1435417 3.98265682,10.1834577 3.98666602,10.2236683 L3.98323569,11.1190717 Z M4.22375087,9.40062182 C4.22375087,9.40292182 4.22295087,9.40292182 4.22175087,9.40452182 C4.22295087,9.40292182 4.22375087,9.40292182 4.22375087,9.40062182 Z M11.9430179,11.7512468 L11.9430179,11.0333296 C12.8639974,10.9380504 13.8197932,10.6887043 14.3807381,10.3369354 C14.4039357,10.3965701 14.4198438,10.4561863 14.4198438,10.5161708 C14.4198438,11.0277325 13.3412636,11.5868326 11.9430179,11.7512468 Z M11.9430179,10.3058753 L11.9430179,10.1029813 C11.9430179,9.92807265 11.8961081,9.76014194 11.8164602,9.59926281 C12.7908027,9.5142572 13.7937442,9.25951656 14.380395,8.89193223 C14.4039357,8.95154846 14.4198438,9.01123834 14.4198438,9.07114916 C14.4198438,9.58271092 13.3412636,10.1415349 11.9430179,10.3058753 Z M11.1761246,8.90890758 C10.5044659,8.44646752 9.44706642,8.14094814 8.22031585,8.10239459 C8.07752833,7.96769652 7.96379457,7.82686744 7.9441988,7.68756651 L7.94462759,7.56940191 C7.94947294,7.52847329 7.95961385,7.48791289 7.97552201,7.44698427 C8.70011505,7.90095506 9.83715934,8.18791571 11.1097906,8.18791571 C12.3839441,8.18791571 13.6583319,7.90066048 14.3828391,7.44562182 C14.405608,7.5027341 14.4198438,7.56306838 14.4198438,7.6262196 C14.4198438,8.22624833 12.996644,8.89265028 11.1761246,8.90890758 Z M11.1097906,7.46532206 C9.34580735,7.46532206 8.068827,6.85466994 7.94797217,6.27253713 L7.94829376,6.181198 C7.93607321,5.57369423 9.2530169,4.75962814 11.1097906,4.75962814 C12.9665,4.75962814 14.4198438,5.57369423 14.4198438,6.181198 C14.4198438,6.78870176 12.9665,7.46532206 11.1097906,7.46532206 Z" id="Fill-1" fill="#646464" mask="url(#mask-2)"></path>
                </g>
            </g>
        </g>
    </g>
</svg>