<?xml version="1.0" encoding="UTF-8"?>
<svg width="16px" height="13px" viewBox="0 0 16 13" version="1.1" xmlns="http://www.w3.org/2000/svg" xmlns:xlink="http://www.w3.org/1999/xlink">
    <!-- Generator: Sketch 47 (45396) - http://www.bohemiancoding.com/sketch -->
    <title>仓库</title>
    <desc>Created with Sketch.</desc>
    <defs>
        <polygon id="path-1" points="6.84034168e-19 0 2.73613667e-19 12 16 12 16 0 0 7.2221478e-15"></polygon>
    </defs>
    <g id="4.0官网视觉" stroke="none" stroke-width="1" fill="none" fill-rule="evenodd">
        <g id="首页（交互效果）" transform="translate(-898.000000, -200.000000)">
            <g id="我要合作下拉列表" transform="translate(858.000000, 119.000000)">
                <g id="仓库" transform="translate(40.000000, 81.388579)">
                    <mask id="mask-2" fill="white">
                        <use xlink:href="#path-1"></use>
                    </mask>
                    <g id="Clip-2"></g>
                    <path d="M0,6.11766201 L8,1.20584234 L16,6.11766201 L16,4.9119679 L8,0 L0,4.9119679 L0,6.11766201 Z M4.15660201,7.43683595 L11.8435557,7.43683595 L11.8435557,6.73027099 L4.15660201,6.73027099 L4.15660201,7.43683595 Z M4.15660201,8.57758461 L11.8435557,8.57758461 L11.8435557,7.87118906 L4.15660201,7.87118906 L4.15660201,8.57758461 Z M4.15660201,9.71850268 L11.8435557,9.71850268 L11.8435557,9.01193772 L4.15660201,9.01193772 L4.15660201,9.71850268 Z M4.15660201,10.8592513 L11.8435557,10.8592513 L11.8435557,10.1528558 L4.15660201,10.1528558 L4.15660201,10.8592513 Z M4.15660201,12 L11.8435557,12 L11.8435557,11.2936045 L4.15660201,11.2936045 L4.15660201,12 Z M14.4320873,11.3182528 L14.4320873,5.69895763 L15.0669529,6.08871501 L15.0669529,12 L12.1670704,12 L12.1670704,11.3182528 C12.922076,11.3182528 13.6770817,11.3182528 14.4320873,11.3182528 Z M1.56799156,5.69895763 L1.56799156,11.3182528 L3.830071,11.3182528 L3.830071,12 L0.933126003,12 L0.933126003,6.08871501 L1.56799156,5.69895763 Z" id="Fill-1" fill="#646464" mask="url(#mask-2)"></path>
                </g>
            </g>
        </g>
    </g>
</svg>