<?xml version="1.0" encoding="UTF-8"?>
<svg width="16px" height="16px" viewBox="0 0 16 16" version="1.1" xmlns="http://www.w3.org/2000/svg" xmlns:xlink="http://www.w3.org/1999/xlink">
    <!-- Generator: Sketch 47 (45396) - http://www.bohemiancoding.com/sketch -->
    <title>航空运输</title>
    <desc>Created with Sketch.</desc>
    <defs></defs>
    <g id="4.0官网视觉" stroke="none" stroke-width="1" fill="none" fill-rule="evenodd">
        <g id="首页（交互效果）" transform="translate(-393.000000, -157.000000)" stroke="#646464">
            <g id="产品下拉列表" transform="translate(354.000000, 119.000000)">
                <path d="M53.9088255,39.0614063 C53.1924557,38.4562551 49.3940047,42.5232043 49.3940047,42.5232043 L41.0974971,41.8203208 C41.0974971,41.8203208 39.6722184,42.8915588 40.0701246,42.9526392 C47.3084494,44.066182 46.6565093,45.5415637 46.6565093,45.5415637 L44.6372443,48.5260059 C44.6372443,48.5260059 44.0068294,48.2694792 41.7353911,47.9368223 C41.0508166,48.6923252 41.4262855,49.0362512 41.4262855,49.0362512 C41.4262855,49.0362512 42.8701526,49.1706721 43.6107838,49.6583243 C43.3007479,50.7568906 43.3007479,50.7568906 44.3607731,50.3462313 C44.78575,51.0209239 45.1761588,52.4783926 45.1761588,52.4783926 C45.1761588,52.4783926 45.5506792,52.8223003 46.2353084,52.0677333 C46.0223366,50.1084986 45.3872153,49.2148306 45.3872153,49.2148306 L48.1574181,46.917286 C48.1574181,46.917286 49.1847724,45.7858853 50.9462275,52.9350457 C51.0433828,53.3288014 51.9736365,51.8036817 51.9736365,51.8036817 L50.8948589,43.8999177 C50.8948589,43.8999177 54.6242103,39.6646487 53.9088255,39.0614063 Z" id="航空运输"></path>
            </g>
        </g>
    </g>
</svg>