<?xml version="1.0" encoding="UTF-8"?>
<svg width="14px" height="14px" viewBox="0 0 14 14" version="1.1" xmlns="http://www.w3.org/2000/svg" xmlns:xlink="http://www.w3.org/1999/xlink">
    <!-- Generator: Sketch 47 (45396) - http://www.bohemiancoding.com/sketch -->
    <title>软件</title>
    <desc>Created with Sketch.</desc>
    <defs>
        <polygon id="path-1" points="0 5.83777816e-15 0 14 14 14 14 5.83777816e-15 2.37023979e-19 0"></polygon>
    </defs>
    <g id="4.0官网视觉" stroke="none" stroke-width="1" fill="none" fill-rule="evenodd">
        <g id="首页（交互效果）" transform="translate(-899.000000, -223.000000)">
            <g id="我要合作下拉列表" transform="translate(858.000000, 119.000000)">
                <g id="软件" transform="translate(41.000000, 104.000000)">
                    <mask id="mask-2" fill="white">
                        <use xlink:href="#path-1"></use>
                    </mask>
                    <g id="Clip-2"></g>
                    <path d="M12.7430157,0.740821252 C13.0285449,0.740821252 13.2608245,0.973572052 13.2608245,1.25981206 L13.2608245,5.25958955 C13.2608245,5.54576109 13.0285449,5.77858035 12.7430157,5.77858035 L8.72079213,5.77858035 C8.43526292,5.77858035 8.20296623,5.54576109 8.20296623,5.25958955 L8.20296623,1.25981206 C8.20296623,0.973572052 8.43526292,0.740821252 8.72079213,0.740821252 L12.7430157,0.740821252 L12.7430157,0.740821252 Z M5.27920787,0.740821252 C5.56473708,0.740821252 5.7970167,0.973572052 5.7970167,1.25981206 L5.7970167,5.25958955 C5.7970167,5.54576109 5.56473708,5.77858035 5.27920787,5.77858035 L1.25698434,5.77858035 C0.971386817,5.77858035 0.739158439,5.54576109 0.739158439,5.25958955 L0.739158439,1.25981206 C0.739158439,0.973572052 0.971386817,0.740821252 1.25698434,0.740821252 L5.27920787,0.740821252 L5.27920787,0.740821252 Z M12.7430157,8.22141965 C13.0285449,8.22141965 13.2608245,8.45423891 13.2608245,8.74041045 L13.2608245,12.7401879 C13.2608245,13.0263595 13.0285449,13.2591787 12.7430157,13.2591787 L8.72079213,13.2591787 C8.43526292,13.2591787 8.20296623,13.0263595 8.20296623,12.7401879 L8.20296623,8.74041045 C8.20296623,8.45423891 8.43526292,8.22141965 8.72079213,8.22141965 L12.7430157,8.22141965 L12.7430157,8.22141965 Z M5.27920787,8.22141965 C5.56473708,8.22141965 5.7970167,8.45423891 5.7970167,8.74041045 L5.7970167,12.7401879 C5.7970167,13.0263595 5.56473708,13.2591787 5.27920787,13.2591787 L1.25698434,13.2591787 C0.971386817,13.2591787 0.739158439,13.0263595 0.739158439,12.7401879 L0.739158439,8.74041045 C0.739158439,8.45423891 0.971386817,8.22141965 1.25698434,8.22141965 L5.27920787,8.22141965 L5.27920787,8.22141965 Z M12.7430157,0 L8.72079213,0 C8.02671995,0 7.46380779,0.564178491 7.46380779,1.25981206 L7.46380779,5.25958955 C7.46380779,5.95522311 8.02671995,6.51933314 8.72079213,6.51933314 L12.7430157,6.51933314 C13.4370878,6.51933314 14,5.95522311 14,5.25958955 L14,1.25981206 C14,0.564178491 13.4370878,0 12.7430157,0 Z M5.27920787,0 L1.25698434,0 C0.562912162,0 0,0.564178491 0,1.25981206 L0,5.25958955 C0,5.95522311 0.562912162,6.51933314 1.25698434,6.51933314 L5.27920787,6.51933314 C5.97328005,6.51933314 6.5361239,5.95522311 6.5361239,5.25958955 L6.5361239,1.25981206 C6.5361239,0.564178491 5.97328005,0 5.27920787,0 Z M12.7430157,7.48059839 L8.72079213,7.48059839 C8.02671995,7.48059839 7.46380779,8.04477689 7.46380779,8.74041045 L7.46380779,12.7401879 C7.46380779,13.4358215 8.02671995,14 8.72079213,14 L12.7430157,14 C13.4370878,14 14,13.4358215 14,12.7401879 L14,8.74041045 C14,8.04477689 13.4370878,7.48059839 12.7430157,7.48059839 Z M5.27920787,7.48059839 L1.25698434,7.48059839 C0.562912162,7.48059839 0,8.04477689 0,8.74041045 L0,12.7401879 C0,13.4358215 0.562912162,14 1.25698434,14 L5.27920787,14 C5.97328005,14 6.5361239,13.4358215 6.5361239,12.7401879 L6.5361239,8.74041045 C6.5361239,8.04477689 5.97328005,7.48059839 5.27920787,7.48059839 Z" id="Fill-1" fill="#646464" mask="url(#mask-2)"></path>
                </g>
            </g>
        </g>
    </g>
</svg>