<?xml version="1.0" encoding="UTF-8"?>
<svg width="14px" height="14px" viewBox="0 0 14 14" version="1.1" xmlns="http://www.w3.org/2000/svg" xmlns:xlink="http://www.w3.org/1999/xlink">
    <!-- Generator: Sketch 46.2 (44496) - http://www.bohemiancoding.com/sketch -->
    <title>Slice 2</title>
    <desc>Created with Sketch.</desc>
    <defs>
        <polygon id="path-1" points="0.00124260355 0.00427259259 0.00124260355 13.9999793 13.9894586 13.9999793 13.9894586 0.00427259259"></polygon>
    </defs>
    <g id="4.0官网视觉红色版-copy" stroke="none" stroke-width="1" fill="none" fill-rule="evenodd">
        <g id="sousuo">
            <path d="M5.19906547,3.05375272 C4.23356066,3.50398885 3.46925569,4.27680956 3.04559536,5.23581863 C2.92381026,5.51189827 3.05443599,5.83610537 3.33686183,5.95513864 C3.40920408,5.98624027 3.48333601,6 3.55921451,6 C3.77637061,6 3.9828964,5.87759528 4.07294147,5.67058823 C4.38887546,4.95472395 4.9607781,4.37681521 5.6809446,4.04042875 C5.95989888,3.91111256 6.07816928,3.58507223 5.94575386,3.31255368 C5.81157032,3.03992978 5.47795506,2.92264545 5.19906547,3.05375272 Z" id="Fill-1" fill="#FFFFFF"></path>
            <g id="Group-6">
                <mask id="mask-2" fill="white">
                    <use xlink:href="#path-1"></use>
                </mask>
                <g id="Clip-3"></g>
                <path d="M3.54696347,5.96809292 C3.47068833,5.96809292 3.39778892,5.95284848 3.33000489,5.92393588 C3.05364987,5.80336996 2.92477117,5.48085144 3.04515874,5.204087 C3.45376821,4.26005144 4.18955519,3.49596255 5.11688951,3.05279514 C5.38984809,2.92380848 5.71538951,3.03927218 5.84594572,3.31091366 C5.90865578,3.44330181 5.91714691,3.59107959 5.86796052,3.72856996 C5.81885697,3.86614329 5.72048418,3.97648403 5.58820904,4.039287 C4.89651377,4.37039218 4.35061732,4.93914477 4.04717353,5.6387507 C3.96238655,5.83910625 3.76572383,5.96809292 3.54696347,5.96809292 Z M5.12538063,3.06810181 C4.20144276,3.50958922 3.46729188,4.27017292 3.06044276,5.21088996 C2.94517058,5.4791507 3.06893389,5.79154774 3.33679779,5.9069907 C3.40118537,5.93584107 3.47238655,5.949447 3.54696347,5.949447 C3.75893093,5.949447 3.94880075,5.82379959 4.0318688,5.630247 C4.3353333,4.92562181 4.88632442,4.35508551 5.58149898,4.02064107 C5.7085759,3.95947662 5.80525046,3.85253737 5.85273862,3.72006625 C5.90014395,3.58767811 5.89173566,3.44330181 5.8306617,3.31603662 C5.70517945,3.05619662 5.38814987,2.94415514 5.12538063,3.06810181 Z" id="Fill-2" fill="#FFFFFF" mask="url(#mask-2)"></path>
                <path d="M13.822432,13.0695496 L11.3844645,10.6279911 C11.803284,10.1322252 12.1423284,9.58041778 12.3949704,8.98103111 C12.7306183,8.18641185 12.9018905,7.33911111 12.9018905,6.46816593 C12.9018905,5.59713778 12.7306183,4.75155852 12.3949704,3.95530074 C12.0711272,3.18610963 11.6049231,2.49511111 11.013216,1.90422815 C10.4232278,1.31336593 9.73316864,0.848068148 8.96519822,0.522148148 C8.17173373,0.18592 7.3257071,0.014477037 6.45602959,0.014477037 C5.58628994,0.014477037 4.74196154,0.18592 3.94688166,0.522148148 C3.1788284,0.84645037 2.48885207,1.31166519 1.89886391,1.90592889 C1.3071568,2.49851259 0.842568047,3.18951111 0.517109467,3.95700148 C0.181378698,4.75162074 0.0101893491,5.59883852 0.0101893491,6.46986667 C0.0101893491,7.34089481 0.181378698,8.18641185 0.517109467,8.98273185 C0.840869822,9.75184 1.30545858,10.4429422 1.89886391,11.0338044 C2.4905503,11.6263674 3.18052663,12.0915822 3.94688166,12.4176059 C4.74026331,12.7537511 5.58628994,12.9252563 6.45602959,12.9252563 C7.3257071,12.9252563 8.1700355,12.7537511 8.96519822,12.4176059 C9.5720858,12.1594667 10.1264941,11.8165185 10.6266834,11.3920593 L13.064568,13.8336385 C13.1680355,13.9371763 13.3070207,13.9915585 13.4443905,13.9915585 C13.5816775,13.9915585 13.7190473,13.938877 13.8241302,13.8336385 C14.0326805,13.6213778 14.0326805,13.2801304 13.822432,13.0695496 Z M6.45602959,11.8470696 C3.49418047,11.8470696 1.08510355,9.43434074 1.08510355,6.46816593 C1.08510355,3.50192889 3.49418047,1.08917926 6.45602959,1.08917926 C9.41789941,1.08917926 11.8269763,3.50192889 11.8269763,6.46816593 C11.8269763,9.43434074 9.41611834,11.8470696 6.45602959,11.8470696 Z" id="Fill-4" fill="#FFFFFF" mask="url(#mask-2)"></path>
                <path d="M13.4426923,13.9999793 C13.2969142,13.9999793 13.1595444,13.9422993 13.0561598,13.8386578 L10.6249852,11.4039022 C10.1298905,11.8267437 9.5720858,12.1696919 8.96859467,12.4260267 C8.17173373,12.7639556 7.32576923,12.9353985 6.45602959,12.9353985 C5.58628994,12.9353985 4.74026331,12.7639556 3.94348521,12.4260267 C3.17373373,12.0983852 2.4837574,11.6331081 1.8920503,11.0406074 C1.29866568,10.4480444 0.832440828,9.75696296 0.508618343,8.98613333 C0.171272189,8.18811259 0,7.34089481 0,6.46986667 C0,5.59883852 0.171272189,4.75155852 0.508618343,3.9536 C0.835837278,3.18270815 1.30036391,2.49168889 1.8920503,1.89912593 C2.4837574,1.30486222 3.17373373,0.837946667 3.94348521,0.513623704 C4.74026331,0.175777778 5.58628994,0.00427259259 6.45602959,0.00427259259 C7.32576923,0.00427259259 8.17173373,0.175777778 8.96859467,0.513623704 C9.73826331,0.841348148 10.4283225,1.30656296 11.0200089,1.89912593 C11.6133314,2.49168889 12.0779201,3.18270815 12.4033787,3.9536 C12.7408077,4.75155852 12.911997,5.59883852 12.911997,6.46986667 C12.911997,7.34089481 12.7408077,8.18811259 12.4033787,8.98613333 C12.1508195,9.58041778 11.8133905,10.1339259 11.3963521,10.6279911 L13.8292249,13.0644474 C14.0428698,13.2784296 14.0428698,13.62648 13.8292249,13.8403585 C13.7275385,13.944 13.5901686,13.9999793 13.4426923,13.9999793 Z M10.6266834,11.3801541 L13.0696627,13.8268356 C13.1697337,13.9269719 13.301926,13.9830341 13.4426923,13.9830341 C13.585074,13.9830341 13.7173491,13.9269719 13.8156391,13.8268356 C14.0207929,13.619677 14.0207929,13.2818311 13.8156391,13.0763733 L11.3726598,10.6279911 L11.3776716,10.6211881 C11.7947929,10.1254222 12.1355355,9.57191407 12.3864793,8.97762963 C12.7221272,8.18130963 12.8933787,7.33749333 12.8933787,6.46816593 C12.8933787,5.59883852 12.7238254,4.75496 12.3864793,3.95870222 C12.0626361,3.18951111 11.5981095,2.50021333 11.0064231,1.90933037 C10.4164349,1.31846815 9.72807396,0.85317037 8.96010355,0.52725037 C8.16494083,0.191022222 7.32237278,0.0195792593 6.45433136,0.0195792593 C5.58628994,0.0195792593 4.74365976,0.189321481 3.94857988,0.52725037 C3.18052663,0.85146963 2.49224852,1.31676741 1.90226036,1.90933037 C1.31225148,2.50021333 0.847662722,3.18951111 0.522204142,3.95870222 C0.189869822,4.75666074 0.0186804734,5.60053926 0.0186804734,6.46986667 C0.0186804734,7.33919407 0.188171598,8.18301037 0.525600592,8.97933037 C0.849360947,9.74843852 1.3139497,10.43784 1.90557396,11.0287022 C2.49556213,11.6195644 3.18392308,12.0847793 3.95189349,12.410803 C4.74705621,12.7469481 5.58968639,12.9184533 6.45772781,12.9184533 C7.32576923,12.9184533 8.16833728,12.7486489 8.9635,12.410803 C9.56707396,12.1543644 10.1264941,11.8097156 10.6215888,11.386957 L10.6266834,11.3801541 Z M6.45602959,11.8555733 C3.4890858,11.8555733 1.07659172,9.43774222 1.07659172,6.46816593 C1.07659172,3.49680593 3.49078402,1.07905778 6.45602959,1.07905778 C9.42291124,1.07905778 11.8371657,3.49680593 11.8371657,6.46816593 C11.8371657,9.43944296 9.42291124,11.8555733 6.45602959,11.8555733 Z M6.45602959,1.0977037 C3.49927515,1.0977037 1.09351183,3.50703111 1.09351183,6.46816593 C1.09351183,9.42923852 3.49927515,11.8385659 6.45602959,11.8385659 C9.41272189,11.8385659 11.8184852,9.42923852 11.8184852,6.46816593 C11.8184852,3.50703111 9.41272189,1.0977037 6.45602959,1.0977037 Z" id="Fill-5" fill="#FFFFFF" mask="url(#mask-2)"></path>
            </g>
        </g>
    </g>
</svg>