<?xml version="1.0" encoding="UTF-8"?>
<svg width="17px" height="14px" viewBox="0 0 17 14" version="1.1" xmlns="http://www.w3.org/2000/svg" xmlns:xlink="http://www.w3.org/1999/xlink">
    <!-- Generator: Sketch 47 (45396) - http://www.bohemiancoding.com/sketch -->
    <title>云计算</title>
    <desc>Created with Sketch.</desc>
    <defs>
        <polygon id="path-1" points="0 2.3499663e-15 0 14 17 14 17 0"></polygon>
    </defs>
    <g id="4.0官网视觉" stroke="none" stroke-width="1" fill="none" fill-rule="evenodd">
        <g id="首页（交互效果）" transform="translate(-834.000000, -158.000000)">
            <g id="产品下拉列表" transform="translate(354.000000, 119.000000)">
                <g id="云计算" transform="translate(480.000000, 39.000000)">
                    <mask id="mask-2" fill="white">
                        <use xlink:href="#path-1"></use>
                    </mask>
                    <g id="Clip-2"></g>
                    <path d="M8.425097,13.0019238 L4.09869303,13.0019238 C3.26988837,13.0019238 2.49036117,12.6794223 1.89950935,12.0916147 C1.30880295,11.5037244 0.984614539,10.7280837 0.984614539,9.9034539 C0.984614539,9.0788861 1.30880295,8.30326609 1.89950935,7.7153551 C2.49044427,7.12754746 3.26988837,6.80504597 4.09869303,6.80504597 L4.80852127,6.80504597 C4.94802305,6.80504597 5.07923574,6.74586626 5.17369807,6.64379523 C5.26589597,6.54174486 5.31311675,6.40503002 5.29876146,6.26825318 C5.28430231,6.11113654 5.27628329,5.95191151 5.27628329,5.79671723 C5.27628329,4.51086605 5.77875975,3.30252933 6.69365457,2.39222021 C7.60659656,1.48391612 8.8229731,0.981767123 10.1153849,0.981767123 C10.8765057,0.981767123 11.6068593,1.15318776 12.2817238,1.48997258 C12.9258003,1.81255675 13.5002817,2.28200498 13.9433634,2.85147787 C14.1094775,3.06578984 14.4192275,3.10454707 14.6345983,2.93918289 C14.8500522,2.7739014 14.8890878,2.46568324 14.7228906,2.25130926 C14.1895015,1.56756972 13.4981627,1.00010188 12.7227696,0.612364221 C11.9082579,0.206064436 11.0323156,0 10.1153849,0 C8.56044384,0 7.09786693,0.602194324 5.99826471,1.69620238 C4.89664734,2.79432387 4.29141946,4.24956998 4.29141946,5.79671723 L4.09869303,5.82538724 C3.00737989,5.82538724 1.97959563,6.2499391 1.20420259,7.02353339 C0.428726453,7.79497795 0,8.81969842 0,9.90351591 C0,10.9873541 0.426690537,12.0119919 1.20420259,12.7835191 C1.97959563,13.5551084 3.00939503,13.9816652 4.09869303,13.9816652 L8.425097,13.9816652 C8.55574877,13.981996 8.68120688,13.930485 8.7735502,13.8385219 C8.8659974,13.7466207 8.91776782,13.6217915 8.91743543,13.4917945 C8.91776782,13.3617976 8.8659974,13.2369683 8.7735502,13.1450879 C8.68120688,13.0531247 8.55574877,13.0015931 8.425097,13.0019238 Z M12.1750875,6.67649599 C11.1082677,6.67649599 10.2405313,7.53982102 10.2405313,8.60127301 C10.2405313,9.66266298 11.1082677,10.525988 12.1750875,10.525988 C13.2417204,10.525988 14.1094775,9.66266298 14.1094775,8.60127301 C14.1094775,7.5399037 13.2417204,6.67649599 12.1750875,6.67649599 Z M12.1750875,9.59734413 C11.6232505,9.59734413 11.1739987,9.15034409 11.1739987,8.60127301 C11.1739987,8.05230528 11.6232505,7.60513987 12.1750875,7.60513987 C12.7268207,7.60513987 13.1760725,8.05230528 13.1760725,8.60127301 C13.1760725,9.15034409 12.7268207,9.59734413 12.1750875,9.59734413 Z M16.4295904,9.95649446 L16.4295904,7.17856231 C16.77017,6.99083262 17,6.62959458 17,6.21318691 C17,5.60493612 16.5035066,5.11095198 15.8921918,5.11095198 C15.5946988,5.11095198 15.3239843,5.22730635 15.1249216,5.41914947 L13.3033172,4.37206349 C13.3053531,4.34961531 13.3053531,4.32514141 13.3053531,4.30269322 C13.3053531,3.69446311 12.8089429,3.2004583 12.1975657,3.2004583 C11.5862508,3.2004583 11.0898406,3.69446311 11.0898406,4.30269322 C11.0898406,4.32514141 11.0898406,4.34961531 11.0918765,4.37206349 L9.24147842,5.43545851 C9.04046291,5.23545054 8.76357837,5.11297769 8.45592658,5.11297769 C7.8445494,5.11297769 7.34805604,5.60704451 7.34805604,6.2152953 C7.34805604,6.64790866 7.59832825,7.02353339 7.96350505,7.20311889 L7.96350505,9.93210324 C7.59832825,10.1116887 7.34805604,10.4872308 7.34805604,10.9200095 C7.34805604,11.5282603 7.8445494,12.0221824 8.45592658,12.0221824 C8.7410171,12.0221824 8.99947452,11.915998 9.19643898,11.7404639 L11.0898406,12.8283948 C11.0877423,12.850843 11.0877423,12.8753996 11.0877423,12.8978478 C11.0877423,13.5060159 11.5842149,14 12.1956129,14 C12.8068446,14 13.3033172,13.5060985 13.3033172,12.8978478 C13.3033172,12.8753996 13.3033172,12.850843 13.301219,12.8283948 L15.1680083,11.7568556 C15.3629368,11.9222198 15.6152242,12.0242701 15.8900935,12.0242701 C16.5014084,12.0242701 16.9977979,11.530286 16.9977979,10.9219525 C17,10.5056275 16.77017,10.1443895 16.4295904,9.95649446 Z M14.7865234,10.8465465 L12.8110619,11.9813995 C12.6292006,11.8613244 12.4158657,11.7973905 12.1976488,11.7975352 C11.971953,11.7975352 11.7586181,11.8649624 11.584298,11.9813995 L9.56153268,10.8199022 C9.52461613,10.4301388 9.28668406,10.1015188 8.95021783,9.93404627 L8.95021783,7.20311889 C9.26613793,7.04792461 9.49588479,6.74795399 9.55332669,6.38865897 L11.5862508,5.22124989 C11.7681121,5.34115959 11.981447,5.40509351 12.1996639,5.40486614 C12.4252766,5.40486614 12.6386115,5.33752157 12.8130147,5.22124989 L14.7966614,6.36015432 C14.847954,6.74795399 15.1023604,7.07045547 15.4469287,7.22354136 L15.4469287,9.91168076 C15.0777632,10.0729315 14.8152547,10.4280304 14.7865234,10.8465465 Z" id="Fill-1" fill="#646464" mask="url(#mask-2)"></path>
                </g>
            </g>
        </g>
    </g>
</svg>