<?xml version="1.0" encoding="UTF-8"?>
<svg width="16px" height="16px" viewBox="0 0 16 16" version="1.1" xmlns="http://www.w3.org/2000/svg"
     xmlns:xlink="http://www.w3.org/1999/xlink">
    <!-- Generator: Sketch 47 (45396) - http://www.bohemiancoding.com/sketch -->
    <title>海关口岸</title>
    <desc>Created with Sketch.</desc>
    <defs>
        <polygon id="path-1"
                 points="0.00125490196 0.000835509138 0.00125490196 15.979154 15.999268 15.979154 15.999268 0.000835509138"></polygon>
    </defs>
    <g id="4.0官网视觉" stroke="none" stroke-width="1" fill="none" fill-rule="evenodd">
        <g id="首页（交互效果）" transform="translate(-717.000000, -157.000000)">
            <g id="产品下拉列表" transform="translate(354.000000, 119.000000)">
                <g id="海关口岸" transform="translate(363.000000, 38.000000)">
                    <g id="Group-4">
                        <mask id="mask-2" fill="white">
                            <use xlink:href="#path-1"></use>
                        </mask>
                        <g id="Clip-2"></g>
                        <path d="M12.2394562,6.47310705 L11.9989333,7.88605744 C11.9737725,8.03154047 11.352617,11.4480627 7.99052549,11.4480627 C4.64780131,11.4480627 4.00784314,8.03095561 3.98276601,7.88662141 L3.74159477,6.47310705 L2.27532549,8.66493995 L2.27532549,10.7205013 L3.22386405,9.30184856 C3.8683817,10.8232272 5.32042876,12.5888877 7.99060915,12.5888877 C10.661919,12.5888877 12.1137987,10.8232272 12.7571869,9.30184856 L13.7085699,10.7228616 L13.7085699,8.66901305 L12.2394562,6.47310705 Z"
                              id="Fill-1" fill="#646464" mask="url(#mask-2)"></path>
                        <path d="M14.8568471,7.98984856 C14.8568471,4.20801496 11.7864425,1.14170235 7.9995817,1.14170235 C4.21223979,1.14170235 1.14250458,4.20801496 1.14250458,7.98984856 C1.14250458,11.7724133 4.21223979,14.838141 7.9995817,14.838141 C11.7865262,14.838141 14.8568471,11.7724133 14.8568471,7.98984856 Z M15.999634,7.98984856 C15.999634,12.402416 12.4179381,15.9795196 7.9995817,15.9795196 C3.58132988,15.9795196 -0.000366013072,12.4028964 -0.000366013072,7.98984856 C-0.000366013072,3.57734381 3.58132988,0.00032375788 7.9995817,0.00032375788 C12.4179381,0.00032375788 15.999634,3.57734381 15.999634,7.98984856 Z"
                              id="Fill-3" fill="#646464" mask="url(#mask-2)"></path>
                    </g>
                    <path d="M8.01541243,4.50003604 C8.01541243,4.31589664 7.91722576,4.14577627 7.75771973,4.05364351 C7.59830379,3.9615648 7.40176828,3.9615648 7.24235235,4.05364351 C7.08284631,4.14570419 6.98458757,4.31589664 6.98458757,4.50003604 C6.98458757,4.78468718 7.21532353,5.01542454 7.50004505,5.01542454 C7.78467647,5.01542454 8.01541243,4.78468718 8.01541243,4.50003604 Z M9,4.50003604 C9,5.32843809 8.3284241,6 7.50004505,6 C6.6715759,6 6,5.32843809 6,4.50003604 C6,3.67157993 6.6715759,3 7.50004505,3 C8.3284241,3 9,3.67157993 9,4.50003604 Z"
                          id="Fill-5" fill="#646464"></path>
                    <polygon id="Fill-6" fill="#646464"
                             points="7.00737552 5 7 13.9987833 7.99262448 14 8 5.00121666"></polygon>
                    <polygon id="Fill-7" fill="#646464" points="6 7 9 7 9 6 6 6"></polygon>
                </g>
            </g>
        </g>
    </g>
</svg>