<?xml version="1.0" encoding="UTF-8"?>
<svg width="16px" height="13px" viewBox="0 0 16 13" version="1.1" xmlns="http://www.w3.org/2000/svg" xmlns:xlink="http://www.w3.org/1999/xlink">
    <!-- Generator: Sketch 47 (45396) - http://www.bohemiancoding.com/sketch -->
    <title>车</title>
    <desc>Created with Sketch.</desc>
    <defs>
        <polygon id="path-1" points="4.06606092e-19 0 0 13 16 13 16 4.44087875e-15 0 4.44087875e-15"></polygon>
    </defs>
    <g id="4.0官网视觉" stroke="none" stroke-width="1" fill="none" fill-rule="evenodd">
        <g id="首页（交互效果）" transform="translate(-897.000000, -153.000000)">
            <g id="我要合作下拉列表" transform="translate(858.000000, 119.000000)">
                <g id="车" transform="translate(39.000000, 34.000000)">
                    <mask id="mask-2" fill="white">
                        <use xlink:href="#path-1"></use>
                    </mask>
                    <g id="Clip-2"></g>
                    <path d="M12.4160113,4.22246778 C12.3230229,4.08346429 12.1669875,4.00000751 11.9999756,4.00000751 L11.5000336,4.00000751 C11.2235489,4.00000751 10.9999939,4.22346387 10.9999939,4.49994742 L10.9999939,7.49997746 C10.9999939,7.77646101 11.2235489,8.00001502 11.5000336,8.00001502 L13.4999969,8.00001502 C13.7764817,8.00001502 14.0000366,7.77646101 14.0000366,7.49997746 L14.0000366,6.75001878 C14.0000366,6.65152298 13.9705053,6.55447249 13.9160326,6.47246102 L12.4160113,4.22246778 Z M13.4999969,7.49997746 L11.5000336,7.49997746 L11.5000336,4.49994742 L11.9999756,4.49994742 L13.4999969,6.75001878 L13.4999969,7.49997746 Z M15.7480075,6.16796975 L13.7480246,3.16801782 C13.4690203,2.74946439 13.0020276,2.49999249 12.5000153,2.49999249 L10.5000519,2.49999249 L10.5000519,1.50001502 C10.5000519,0.672986259 9.82698465,0 9.00003052,0 L1.50002136,0 C0.672989103,0 0,0.672986259 0,1.50001502 L0,6.9999399 C0,7.82696867 0.672989103,8.49995493 1.50002136,8.49995493 L1.50002136,9.99996995 C1.50002136,10.8269987 2.17301047,11.499985 3.00004272,11.499985 L3.57101998,11.499985 C3.79447729,12.3604902 4.57100167,13 5.500495,13 C6.42899222,13 7.20551661,12.3604902 7.42897391,11.499985 L10.0705006,11.499985 C10.2935087,12.3604902 11.0705018,13 11.9995264,13 C12.9274962,13 13.704548,12.3604902 13.9275561,11.499985 L14.4999786,11.499985 C15.3270109,11.499985 16,10.8269987 16,9.99996995 L16,6.9999399 C16,6.7030072 15.9130272,6.41500026 15.7480075,6.16796975 Z M1.50002136,7.49997746 C1.22398587,7.49997746 0.999981689,7.2765211 0.999981689,6.9999399 L0.999981689,1.50001502 C0.999981689,1.22353148 1.22398587,0.999977464 1.50002136,0.999977464 L9.00003052,0.999977464 C9.27651523,0.999977464 9.49997253,1.22353148 9.49997253,1.50001502 L9.49997253,6.9999399 C9.49997253,7.2765211 9.27651523,7.49997746 9.00003052,7.49997746 L1.50002136,7.49997746 Z M5.500495,11.9999249 C4.94797479,11.9999249 4.50051331,11.5519379 4.50051331,10.9999474 C4.50051331,10.4479764 4.94797479,9.99996995 5.500495,9.99996995 C6.05248786,9.99996995 6.50047669,10.4479764 6.50047669,10.9999474 C6.50047669,11.5519379 6.05201911,11.9999249 5.500495,11.9999249 Z M11.9999756,11.9999249 C11.4475335,11.9999249 10.9999939,11.5519379 10.9999939,10.9999474 C10.9999939,10.4479764 11.4475335,9.99996995 11.9999756,9.99996995 C12.5520466,9.99996995 13.0000549,10.4479764 13.0000549,10.9999474 C13.0000549,11.5519379 12.5520466,11.9999249 11.9999756,11.9999249 Z M15.0000183,9.99996995 C15.0000183,10.2764535 14.776561,10.5000075 14.4999786,10.5000075 L13.9285522,10.5000075 C13.7049972,9.63948275 12.9284923,8.99999249 11.9999756,8.99999249 C11.0705018,8.99999249 10.2940555,9.63948275 10.0705006,10.5000075 L7.42952079,10.5000075 C7.20596583,9.63948275 6.42951957,8.99999249 5.50102234,8.99999249 C4.57152902,8.99999249 3.79502416,9.63948275 3.5714692,10.5000075 L3.00004272,10.5000075 C2.72400723,10.5000075 2.50000305,10.2764535 2.50000305,9.99996995 L2.50000305,8.49995493 L9.00003052,8.49995493 C9.82698465,8.49995493 10.5000519,7.82696867 10.5000519,6.9999399 L10.5000519,3.49996995 L12.5000153,3.49996995 C12.6670272,3.49996995 12.823043,3.58352439 12.9160509,3.72252788 L14.9160143,6.72246027 C14.970487,6.80449127 15.0000183,6.90144411 15.0000183,6.9999399 L15.0000183,9.99996995 Z" id="Fill-1" fill="#646464" mask="url(#mask-2)"></path>
                </g>
            </g>
        </g>
    </g>
</svg>