<?xml version="1.0" encoding="UTF-8"?>
<svg width="15px" height="15px" viewBox="0 0 15 15" version="1.1" xmlns="http://www.w3.org/2000/svg" xmlns:xlink="http://www.w3.org/1999/xlink">
    <!-- Generator: Sketch 46.2 (44496) - http://www.bohemiancoding.com/sketch -->
    <title>Slice 2</title>
    <desc>Created with Sketch.</desc>
    <defs>
        <polygon id="path-1" points="0 8.32668285e-15 0 15 15 15 15 6.24501214e-15 1.28115882e-19 0"></polygon>
    </defs>
    <g id="web-slice" stroke="none" stroke-width="1" fill="none" fill-rule="evenodd">
        <g id="Group-13">
            <mask id="mask-2" fill="white">
                <use xlink:href="#path-1"></use>
            </mask>
            <g id="Clip-2"></g>
            <path d="M8.95584719,12.337039 C8.89143301,12.5282929 8.71063393,12.6569613 8.50734804,12.6562471 C8.29136025,12.6562471 8.10939806,12.5104767 8.05264564,12.3149931 C8.01766001,12.287399 7.9865145,12.2540555 7.95909832,12.2156582 L6.60503449,10.297974 C6.53255239,10.1962039 6.50399156,10.0699525 6.52562911,9.94728997 C6.54726666,9.82455423 6.61736715,9.71540493 6.7203486,9.64408526 C6.8229608,9.57177682 6.95060757,9.54337713 7.07450654,9.56527657 C7.19847937,9.58708446 7.30838409,9.65739704 7.37964769,9.76032075 L8.03468205,10.6884286 L8.03468205,5.15629292 C8.03468205,4.89750964 8.24454043,4.68750572 8.50734804,4.68750572 C8.76819867,4.68750572 8.97992173,4.90078723 8.97992173,5.15629292 L8.97992173,10.7259103 L9.65862446,9.76174898 C9.80820418,9.54910834 10.1030066,9.49646545 10.3179974,9.64408526 C10.4212742,9.71476406 10.4917994,9.82354715 10.5137323,9.94613641 C10.5356468,10.068744 10.5071598,10.1949038 10.4346777,10.2965458 L9.08111235,12.2137905 C9.04728983,12.2621488 9.00488245,12.3039152 8.95584719,12.337039 Z M3.10516082,6.56247139 L3.30839132,5.15629292 L1.41935199,5.15629292 C1.29364374,5.1567873 1.17299409,5.10756849 1.08408074,5.01960452 C0.995075088,4.93162223 0.945172104,4.81210915 0.945245953,4.68750572 C0.945245953,4.42872245 1.1522981,4.21871853 1.41935199,4.21871853 L3.44360754,4.21871853 L3.64589648,2.81254005 L0.470715286,2.81254005 C0.345523968,2.81259499 0.225446644,2.763248 0.137105624,2.67521079 C0.0486907559,2.5872285 -0.000639903626,2.46791683 6.26893413e-06,2.34375286 C6.26893413e-06,2.08496959 0.210307744,1.87496567 0.470715286,1.87496567 L6.02599002,1.87496567 L5.78974934,2.81254005 L4.726297,2.81254005 L2.83581763,14.0625172 L12.2883991,14.0625172 L14.1788785,2.81254005 L12.4065194,2.81254005 L12.6428524,1.87496567 L14.1764968,1.87496567 C14.699712,1.87496567 15.0646333,2.28938878 14.9904158,2.80316504 L13.367415,14.0718922 C13.2936405,14.5842219 12.8096573,15 12.2860175,15 L2.83812539,15 C2.31498408,15 1.95006275,14.5856501 2.02428028,14.0718922 L2.97096001,7.50004578 L2.36739791,7.50004578 C2.10641804,7.50004578 1.89475038,7.2901151 1.89475038,7.03125858 C1.89475038,6.77240207 2.10641804,6.56247139 2.36739791,6.56247139 L3.10567775,6.56247139 L3.10516082,6.56247139 Z M8.03468205,1.40627003 C8.03468205,0.629572302 8.66953736,0 9.45258773,0 C10.2356381,0 10.8704934,0.629572302 10.8704934,1.40627003 L11.8147915,1.40627003 C12.0761406,1.40627003 12.2377576,1.60689893 12.1740081,1.86002424 L11.9301056,2.82748148 C11.8667992,3.07782358 11.6002438,3.28123569 11.342144,3.28123569 L6.61779178,3.28123569 C6.35636882,3.28123569 6.19475183,3.08060679 6.25857522,2.82748148 L6.50247767,1.86002424 C6.56580258,1.60968214 6.83233953,1.40627003 7.09038393,1.40627003 L8.03468205,1.40627003 Z" id="Fill-1" fill="#1D16C8" mask="url(#mask-2)"></path>
        </g>
    </g>
</svg>