<?xml version="1.0" encoding="UTF-8"?>
<svg width="16px" height="16px" viewBox="0 0 16 16" version="1.1" xmlns="http://www.w3.org/2000/svg" xmlns:xlink="http://www.w3.org/1999/xlink">
    <!-- Generator: Sketch 46.2 (44496) - http://www.bohemiancoding.com/sketch -->
    <title>供应链金融icon</title>
    <desc>Created with Sketch.</desc>
    <defs>
        <polygon id="path-1" points="0 0 0 16 16 16 16 0"></polygon>
    </defs>
    <g id="4.0官网视觉" stroke="none" stroke-width="1" fill="none" fill-rule="evenodd">
        <g id="首页（交互效果）" transform="translate(-584.000000, -157.000000)">
            <g id="产品下拉列表" transform="translate(354.000000, 119.000000)">
                <g id="供应链金融" transform="translate(230.000000, 38.000000)">
                    <mask id="mask-2" fill="white">
                        <use xlink:href="#path-1"></use>
                    </mask>
                    <g id="Clip-2"></g>
                    <path d="M7.65000934,6.35994141 C7.65000934,6.05949223 7.50000916,5.75894523 7.30004797,5.55867185 C7.10000867,5.35839848 6.82502786,5.23316404 6.5249689,5.23316404 L4.62502518,5.23316404 C4.52500552,5.23316404 4.42498587,5.18310548 4.34998578,5.10798829 C4.27498569,5.03287111 4.22500516,4.93269529 4.22500516,4.83251948 L4.22500516,3.60562499 C4.22500516,3.50544917 4.27498569,3.40527336 4.34998578,3.33015618 C4.42498587,3.25503899 4.52500552,3.20499999 4.62502518,3.20499999 L6.50002747,3.20499999 C6.60004712,3.20499999 6.69998865,3.25503899 6.77498874,3.33015618 C6.84998883,3.40527336 6.87500839,3.4804688 6.87500839,3.60562499 C6.87500839,3.80591792 7.05002814,3.98121092 7.24998932,3.98121092 C7.45002863,3.98121092 7.62497025,3.80591792 7.62497025,3.60562499 C7.62497025,3.3051758 7.47498959,3.00472661 7.27500888,2.80435543 C7.07496957,2.60408205 6.77498874,2.47884762 6.4750079,2.47884762 L5.9249877,2.47884762 L5.9249877,2.12833987 C5.9249877,1.92798824 5.74996796,1.75277349 5.55000677,1.75277349 C5.32502603,1.75277349 5.17502585,1.92798824 5.17502585,2.12833987 L5.17502585,2.45384768 L4.62502518,2.45384768 C4.32502481,2.45384768 4.02496585,2.57902343 3.82500467,2.7792968 C3.62504349,2.97964843 3.49998474,3.28011717 3.49998474,3.58056636 L3.49998474,4.80753911 C3.49998474,5.13296867 3.62504349,5.40843748 3.82500467,5.60873042 C4.02496585,5.80908204 4.30000525,5.93423823 4.60000562,5.95931641 L6.50002747,5.95931641 C6.60004712,5.95931641 6.69998865,6.00935542 6.77498874,6.0844726 C6.84998883,6.15958979 6.90002795,6.2597656 6.90002795,6.35994141 L6.90002795,7.58683591 C6.90002795,7.68701172 6.84998883,7.78710928 6.8000083,7.86230472 C6.72500821,7.93742191 6.62498856,7.98746091 6.5249689,7.98746091 L4.67498618,7.98746091 C4.57496652,7.98746091 4.47502499,7.93742191 4.4000249,7.86230472 C4.32502481,7.78710928 4.27498569,7.68701172 4.27498569,7.58683591 C4.27498569,7.38656253 4.10004407,7.21126953 3.90000476,7.21126953 C3.70002405,7.21126953 3.5250043,7.38656253 3.5250043,7.58683591 C3.5250043,7.8872851 3.64998492,8.18775384 3.85002423,8.38810547 C4.04998541,8.58837884 4.34998578,8.71361328 4.64996661,8.71361328 L5.19996729,8.71361328 L5.19996729,9.0390624 C5.19996729,9.23941403 5.37498703,9.41470703 5.57502634,9.41470703 C5.77500705,9.41470703 5.95002679,9.23941403 5.95002679,9.0390624 L5.95002679,8.71361328 L6.50002747,8.71361328 C6.8000083,8.71361328 7.10000867,8.58837884 7.30004797,8.38810547 C7.50000916,8.18775384 7.65000934,7.8872851 7.65000934,7.58683591 L7.65000934,6.35994141 Z M12.6000349,5.30826167 C12.1250343,5.10798829 11.6249947,4.98275386 11.1000135,4.90763667 C10.7750132,2.12833987 8.39997119,0 5.57502634,0 C2.50000305,0 0,2.50390624 0,5.58373048 C0,8.38810547 2.12502213,10.7918359 4.89998645,11.1173437 C5.15000629,13.1204491 6.44996881,14.8231641 8.30002966,15.5742968 C8.94997186,15.8496874 9.67499228,16 10.4250518,16 C11.9000341,16 13.3249772,15.3990038 14.3750175,14.3724023 C15.4000188,13.3208008 16,11.8935546 16,10.41625 C16,8.21281247 14.6250374,6.15958979 12.6000349,5.30826167 Z M1.25000153,5.58373048 C1.25000153,3.20499999 3.20000391,1.25195312 5.57502634,1.25195312 C7.94999017,1.25195312 9.89999255,3.20499999 9.89999255,5.58373048 C9.89999255,7.96240228 7.94999017,9.91544915 5.57502634,9.91544915 C3.20000391,9.91544915 1.25000153,7.96240228 1.25000153,5.58373048 Z M13.4999969,13.4960938 C12.675035,14.2972851 11.5750337,14.7730273 10.4250518,14.7730273 C9.82499246,14.7730273 9.27499179,14.6478711 8.77503024,14.4475194 C7.3999895,13.8966405 6.40000781,12.619707 6.17500754,11.1424219 C7.05002814,11.0422265 7.87499008,10.7667577 8.57499094,10.3160741 C8.62504959,10.3911913 8.64999103,10.4413281 8.72499112,10.4913671 C8.92503043,10.6916601 9.17505026,10.8168945 9.49997253,10.8168945 L11.4000139,10.8168945 C11.5000336,10.8168945 11.6000532,10.8669531 11.6750533,10.9420507 C11.7500534,11.0171679 11.8000144,11.1173437 11.8000144,11.2175195 L11.8000144,12.444414 C11.8000144,12.5445898 11.7500534,12.6446874 11.6750533,12.7198046 C11.6000532,12.7949218 11.5000336,12.8450586 11.4000139,12.8450586 L9.52501163,12.8450586 C9.42499197,12.8450586 9.32503091,12.7949218 9.25005035,12.7198046 C9.17505026,12.6446874 9.12499161,12.5445898 9.12499161,12.444414 C9.12499161,12.2441406 8.94997186,12.0688476 8.75001068,12.0688476 C8.5500495,12.0688476 8.37502975,12.2441406 8.37502975,12.444414 C8.37502975,12.7448828 8.49999084,13.045332 8.72499112,13.2456836 C8.92503043,13.4459569 9.1999917,13.5961913 9.52501163,13.5961913 L10.0750123,13.5961913 L10.0750123,13.9217187 C10.0750123,14.1220703 10.250032,14.2972851 10.4499932,14.2972851 C10.6500325,14.2972851 10.8249742,14.1220703 10.8249742,13.9217187 L10.8249742,13.5961913 L11.4000139,13.5961913 C11.6999948,13.5961913 11.9999756,13.4710351 12.2000344,13.2456836 C12.3999956,13.045332 12.5250348,12.7448828 12.5250348,12.444414 L12.5250348,11.2175195 C12.5250348,10.9169921 12.3999956,10.6165429 12.2000344,10.41625 C11.9999756,10.2158983 11.7250143,10.0907421 11.4250335,10.0907421 L9.52501163,10.0907421 C9.42499197,10.0907421 9.32503091,10.0406836 9.25005035,9.9655664 C9.22501126,9.94050777 9.1999917,9.91544915 9.1999917,9.89046877 C9.77501193,9.3896484 10.2749735,8.78873047 10.625013,8.08763672 L11.4000139,8.08763672 C11.5000336,8.08763672 11.6000532,8.13769528 11.6750533,8.21281247 C11.7500534,8.28792966 11.8000144,8.38810547 11.8000144,8.48828128 C11.8000144,8.68855465 11.9750341,8.86384765 12.1749953,8.86384765 C12.3750542,8.86384765 12.5499958,8.71361328 12.5499958,8.48828128 C12.5499958,8.18775384 12.4250152,7.8872851 12.225054,7.68701172 C12.0250147,7.4866601 11.7250143,7.36148435 11.4250335,7.36148435 L10.9500329,7.36148435 C11.074994,6.98591797 11.1499941,6.6103516 11.2000332,6.20970704 C11.5499946,6.2597656 11.9000341,6.35994141 12.2000344,6.51017579 C13.7750363,7.18619135 14.8249986,8.76367184 14.8249986,10.5164453 C14.7499985,11.5931055 14.3000175,12.6948242 13.4999969,13.4960938 Z" id="Fill-1" fill="#646464" mask="url(#mask-2)"></path>
                </g>
            </g>
        </g>
    </g>
</svg>