<?xml version="1.0" encoding="UTF-8"?>
<svg width="16px" height="16px" viewBox="0 0 16 16" version="1.1" xmlns="http://www.w3.org/2000/svg" xmlns:xlink="http://www.w3.org/1999/xlink">
    <!-- Generator: Sketch 46.2 (44496) - http://www.bohemiancoding.com/sketch -->
    <title>电话icon-切图</title>
    <desc>Created with Sketch.</desc>
    <defs>
        <polygon id="path-1" points="0 0 4.46179113e-19 16 16 16 16 0"></polygon>
    </defs>
    <g id="4.0官网视觉" stroke="none" stroke-width="1" fill="none" fill-rule="evenodd">
        <g id="首页" transform="translate(-944.000000, -7.000000)">
            <g id="title">
                <g id="电话" transform="translate(944.000000, 7.000000)">
                    <mask id="mask-2" fill="white">
                        <use xlink:href="#path-1"></use>
                    </mask>
                    <g id="Clip-2"></g>
                    <path d="M15.392124,4.94777154 C14.9850016,3.97664447 14.4055659,3.10873394 13.6473229,2.34496154 C12.8923591,1.58562555 12.0309639,1.0073043 11.0543931,0.603525297 C10.0799869,0.200839331 9.06055212,0 7.99070923,0 C6.9274031,0 5.91013292,0.200839331 4.93572675,0.607875994 C3.95806292,1.01390535 3.09666772,1.59441268 2.34605457,2.34605457 C1.59659874,3.09006667 1.02052784,3.9546981 0.613405452,4.93907015 C0.204096996,5.9255211 0,6.94270555 0,7.99287386 C0,8.91680765 0.139393769,9.77383072 0.420260211,10.5583493 C0.701233814,11.3474115 1.11489297,12.0496312 1.66466679,12.6652227 C1.77767776,12.7958293 1.89071016,12.8967955 2.00037774,12.9625918 C2.11122408,13.0328245 2.21435489,13.0679944 2.30880574,13.0679944 C2.33951781,13.0679944 2.38557519,13.0592073 2.44374165,13.0460694 C2.50520865,13.0284738 2.578699,13.0054558 2.66644163,12.9769084 C1.96964424,12.0979389 1.46599209,11.2705563 1.16092892,10.484859 C0.85042201,9.70031894 0.698962021,8.86957151 0.698962021,7.99287386 C0.698962021,7.03053391 0.8855705,6.10544279 1.25535834,5.21114947 C1.62514617,4.31687757 2.15400236,3.52455773 2.8376405,2.8376405 C3.52565076,2.15290933 4.31353418,1.62514617 5.20572717,1.2542653 C6.09783443,0.8855705 7.02609749,0.698962021 7.99505992,0.698962021 C8.96728002,0.698962021 9.89455721,0.882227107 10.7778773,1.24766425 C11.6601045,1.61526602 12.4458018,2.14637257 13.1393201,2.83654746 C13.8262373,3.5234647 14.3550935,4.31244115 14.7260387,5.20345538 C15.0991056,6.09556264 15.2856284,7.02391142 15.2856284,7.98961619 C15.2856284,8.94642668 15.0991056,9.87145351 14.7260387,10.7690688 C14.3550935,11.6667055 13.8262373,12.455682 13.1393201,13.1370697 C12.4501525,13.8228939 11.6622691,14.3518144 10.7669042,14.7249671 C9.87370387,15.0958265 8.94751971,15.2823493 7.99505992,15.2823493 C6.82425085,15.2823493 5.88602191,15.0958265 5.18369507,14.7205092 C4.47703895,14.3452134 4.12699,13.8503483 4.12699,13.2413793 C4.12699,13.1107727 4.1500294,12.9823521 4.19615108,12.8572749 C4.24555185,12.7311047 4.32122827,12.6005195 4.43098157,12.4567536 C4.53848452,12.5577197 4.63400697,12.6323246 4.7228212,12.6795393 C4.8084635,12.7311047 4.88416135,12.753051 4.95220797,12.753051 C5.05971091,12.753051 5.22102962,12.660872 5.44381533,12.4786999 C5.66323621,12.2921772 5.88383585,12.0562537 6.10434976,11.7698578 C6.28435718,11.5251471 6.43688877,11.250796 6.56522362,10.9424537 C6.6936442,10.6362975 6.75836886,10.4409876 6.75836886,10.3554311 C6.75836886,10.3038442 6.68269245,10.1885615 6.53232549,10.0086612 C6.3797939,9.82648916 6.30302446,9.64648174 6.30302446,9.45995898 C6.30302446,9.21861316 6.37216411,8.89269664 6.51365822,8.49436137 C6.65414502,8.08940361 6.85605595,7.61104123 7.1248776,7.05464492 C7.43647754,6.42810165 7.68671765,5.98805969 7.88204895,5.73565496 C8.07300813,5.47997112 8.2726687,5.31755938 8.47785873,5.24741242 C8.52400184,5.22874514 8.60293592,5.21333553 8.71052459,5.20126931 C9.06164515,5.16511352 9.32502307,5.01148889 9.4994796,4.7459249 C9.65745492,4.47811055 9.79684869,4.13142642 9.91757518,3.70998745 C10.0349583,3.2919776 10.0964038,2.93425598 10.0964038,2.64123759 C10.0964038,2.40314943 10.0602266,2.24180929 9.98337144,2.15953182 C9.90988109,2.07613988 9.75516344,2.0333616 9.51263886,2.0333616 C9.13740729,2.0333616 8.82027789,2.05963724 8.55689997,2.11229568 C8.29461507,2.16722591 8.0960261,2.24290232 7.9588827,2.3482192 C7.79096293,2.46675963 7.5243059,2.75752766 7.15779716,3.22500258 C6.79017396,3.68915554 6.41603543,4.22026209 6.03302404,4.81617902 C5.33622665,5.90685382 4.76343485,7.07112613 4.31687757,8.30556683 C3.86697689,9.54225789 3.64419119,10.468442 3.64419119,11.0872912 C3.64419119,11.2091107 3.67057399,11.3363526 3.72323243,11.4691238 C3.77914853,11.6041669 3.87349222,11.7797379 4.01072136,12.0002518 C3.82419861,12.2339893 3.68696947,12.4655621 3.59815524,12.6905125 C3.51032688,12.9176274 3.4642052,13.1469499 3.4642052,13.3785013 C3.4642052,14.1477174 3.88011471,14.7776255 4.70749732,15.2669611 C5.53815902,15.7552894 6.63110561,16 7.99070923,16 C9.03534808,16 10.0492749,15.7958816 11.0389835,15.3865945 C12.0255416,14.9794722 12.8957025,14.4034013 13.6473229,13.6550385 C14.4001222,12.9022392 14.9805438,12.0343287 15.3865945,11.0511354 C15.7958816,10.0679421 16,9.04739286 16,7.99070923 C16,6.93391843 15.7980676,5.91892004 15.392124,4.94777154 Z M10.172166,5.50742552 C10.3323274,5.54694614 10.4563973,5.56779948 10.551834,5.56779948 C10.7954516,5.56779948 11.0313751,5.34284914 11.2606762,4.88741901 C11.4867195,4.43533227 11.5997305,3.97445841 11.5997305,3.49935369 C11.5997305,3.22828168 11.5294978,3.01428309 11.3868464,2.86183723 C11.2431019,2.70930564 10.9479832,2.55015156 10.5002686,2.38229609 C10.5002686,2.96162465 10.4179697,3.50263279 10.2599086,4.00735654 C10.0974969,4.51000138 9.86926744,4.94667851 9.56864069,5.31646634 C9.81107954,5.39994401 10.0130119,5.46464724 10.172166,5.50742552 Z M7.10513873,10.4980825 C6.98006154,11.0060854 6.77268544,11.4691238 6.47640939,11.8916559 C6.1790403,12.3097514 5.8080737,12.6871476 5.3527293,13.0119925 C5.56227002,13.1513863 5.74553511,13.2545171 5.90903989,13.3269359 C6.0703586,13.3971686 6.20315131,13.4344388 6.30302446,13.4344388 C6.63654934,13.4344388 6.98666259,13.1875421 7.35645043,12.6926771 C7.72949593,12.1978121 7.91276102,11.7665787 7.91276102,11.4022346 C7.91276102,11.2651126 7.85793795,11.1345059 7.74709161,11.0060854 C7.63624527,10.8777505 7.42333972,10.7076232 7.10513873,10.4980825 Z" id="Fill-1" fill="#FFFFFF" mask="url(#mask-2)"></path>
                </g>
            </g>
        </g>
        <g id="页面切图" transform="translate(-804.000000, 0.000000)"></g>
    </g>
</svg>