<?xml version="1.0" encoding="UTF-8"?>
<svg width="47px" height="49px" viewBox="0 0 47 49" version="1.1" xmlns="http://www.w3.org/2000/svg" xmlns:xlink="http://www.w3.org/1999/xlink">
    <!-- Generator: Sketch 47.1 (45422) - http://www.bohemiancoding.com/sketch -->
    <title>加载</title>
    <desc>Created with Sketch.</desc>
    <defs></defs>
    <g id="5.WMS订单old" stroke="none" stroke-width="1" fill="none" fill-rule="evenodd">
        <path d="M12.8906404,38.8951357 C12.8906404,36.9141065 11.3002367,35.3237028 9.31920754,35.3237028 C7.36608021,35.3237028 5.74777471,36.9141065 5.74777471,38.8951357 C5.74777471,40.848263 7.36608021,42.4665685 9.31920754,42.4665685 C11.3002367,42.4665685 12.8906404,40.848263 12.8906404,38.8951357 Z M26.7857462,44.6429104 C26.7857462,42.6618812 25.1953425,41.0714775 23.2143134,41.0714775 C21.2332842,41.0714775 19.6428806,42.6618812 19.6428806,44.6429104 C19.6428806,46.6239395 21.2332842,48.2143432 23.2143134,48.2143432 C25.1953425,48.2143432 26.7857462,46.6239395 26.7857462,44.6429104 Z M7.14286566,25.0000298 C7.14286566,23.0190007 5.55246198,21.428597 3.57143283,21.428597 C1.59040368,21.428597 0,23.0190007 0,25.0000298 C0,26.9810589 1.59040368,28.5714626 3.57143283,28.5714626 C5.55246198,28.5714626 7.14286566,26.9810589 7.14286566,25.0000298 Z M40.6808521,38.8951357 C40.6808521,36.9141065 39.0625466,35.3237028 37.1094192,35.3237028 C35.1283901,35.3237028 33.5379864,36.9141065 33.5379864,38.8951357 C33.5379864,40.848263 35.1283901,42.4665685 37.1094192,42.4665685 C39.0625466,42.4665685 40.6808521,40.848263 40.6808521,38.8951357 Z M13.7834986,11.104924 C13.7834986,8.64956388 11.7745676,6.64063292 9.31920754,6.64063292 C6.86384747,6.64063292 4.8549165,8.64956388 4.8549165,11.104924 C4.8549165,13.560284 6.86384747,15.569215 9.31920754,15.569215 C11.7745676,15.569215 13.7834986,13.560284 13.7834986,11.104924 Z M46.4286268,25.0000298 C46.4286268,23.0190007 44.8382231,21.428597 42.8571939,21.428597 C40.8761648,21.428597 39.2857611,23.0190007 39.2857611,25.0000298 C39.2857611,26.9810589 40.8761648,28.5714626 42.8571939,28.5714626 C44.8382231,28.5714626 46.4286268,26.9810589 46.4286268,25.0000298 Z M28.5714626,5.35714924 C28.5714626,2.39955643 26.1719062,0 23.2143134,0 C20.2567206,0 17.8571641,2.39955643 17.8571641,5.35714924 C17.8571641,8.31474205 20.2567206,10.7142985 23.2143134,10.7142985 C26.1719062,10.7142985 28.5714626,8.31474205 28.5714626,5.35714924 Z M43.3594267,11.104924 C43.3594267,7.67300022 40.541343,4.8549165 37.1094192,4.8549165 C33.6495937,4.8549165 30.8594118,7.67300022 30.8594118,11.104924 C30.8594118,14.5647495 33.6495937,17.3549314 37.1094192,17.3549314 C40.541343,17.3549314 43.3594267,14.5647495 43.3594267,11.104924 Z" id="加载" fill="#F9A300"></path>
    </g>
</svg>