<?xml version="1.0" encoding="UTF-8"?>
<svg width="18px" height="18px" viewBox="0 0 18 18" version="1.1" xmlns="http://www.w3.org/2000/svg" xmlns:xlink="http://www.w3.org/1999/xlink">
    <!-- Generator: Sketch 46.2 (44496) - http://www.bohemiancoding.com/sketch -->
    <title>关于我们-切图</title>
    <desc>Created with Sketch.</desc>
    <defs></defs>
    <g id="4.0官网视觉设计" stroke="none" stroke-width="1" fill="none" fill-rule="evenodd">
        <g id="首页" transform="translate(-425.000000, -2727.000000)" fill="#FFFFFF">
            <g id="footer" transform="translate(0.000000, 2666.000000)">
                <g id="Group" transform="translate(425.000000, 59.000000)">
                    <g id="帮助" transform="translate(0.000000, 2.000000)">
                        <path d="M9.00003684,0 C4.03154745,0 0,4.01455762 0,8.9377024 C0,13.8607741 4.03864624,17.8682876 9.00003684,17.8682876 C10.7815628,17.8682876 12.5133727,17.3470998 13.9897489,16.3681451 C14.2239598,16.2201953 14.2878735,15.9102807 14.131651,15.6778752 C13.9826501,15.4454454 13.670328,15.3820488 13.436117,15.5370426 C12.1230375,16.4104095 10.5899446,16.8682007 9.00003684,16.8682007 C4.58517933,16.8682007 1.00785616,13.3043659 1.00785616,8.93065833 C1.00785616,4.55687766 4.59227812,1.0000869 9.00003684,1.0000869 C13.4077219,1.0000869 16.9921438,4.55687766 16.9921438,8.93065833 C16.9921438,10.797068 16.3320056,12.6071251 15.1254079,14.0297585 C14.9479136,14.2411293 14.9763087,14.5579905 15.1893215,14.7341409 C15.4022361,14.9101694 15.721657,14.8819932 15.8990776,14.6707199 C17.2547499,13.064892 18,11.0294978 18,8.93065833 C18,4.00751356 13.9684526,0 9.00003684,0 Z" id="Fill-1"></path>
                    </g>
                </g>
            </g>
            <path d="M435.434857,2739.8041 C435.193831,2739.8041 434.952805,2739.74428 434.892559,2739.68443 C434.771958,2739.56477 434.71169,2739.44502 434.71169,2739.14587 C434.71169,2739.0262 434.71169,2738.90654 434.771958,2738.72705 C434.832291,2738.54754 434.832291,2738.36806 434.892559,2738.18848 L435.434857,2736.3336 C435.495103,2736.15412 435.495103,2735.97452 435.55537,2735.73521 L435.55537,2735.31638 C435.55537,2734.89756 435.434857,2734.59832 435.133563,2734.35899 C434.832291,2734.11966 434.470664,2734 433.988633,2734 C433.687339,2734 433.446224,2734.05982 433.084707,2734.17949 C432.783413,2734.29915 432.421895,2734.41882 432.120513,2734.53848 L432,2735.13689 C432.120513,2735.07705 432.241026,2735.07705 432.36154,2735.01723 C432.482141,2734.95738 432.6629,2734.95738 432.783413,2734.95738 C433.084707,2734.95738 433.265466,2735.01723 433.325733,2735.07705 C433.446224,2735.19671 433.446224,2735.31638 433.446224,2735.55571 C433.446224,2735.67537 433.446224,2735.85486 433.385979,2735.97452 C433.325733,2736.15412 433.325733,2736.3336 433.265466,2736.51311 L432.723167,2738.42788 C432.6629,2738.60739 432.6629,2738.78687 432.602654,2738.96638 C432.602654,2739.14587 432.542387,2739.26553 432.542387,2739.44502 C432.542387,2739.8041 432.6629,2740.16309 432.964194,2740.40242 C433.265466,2740.64175 433.627093,2740.76148 434.109146,2740.76148 C434.410418,2740.76148 434.71169,2740.70166 434.952805,2740.64175 C435.193831,2740.58191 435.55537,2740.40242 435.977244,2740.28276 L436.097757,2739.68443 C436.037489,2739.74428 435.91691,2739.74428 435.736129,2739.8041 L435.434857,2739.8041 Z" id="Path"></path>
            <path d="M435.265444,2731 C434.903838,2731 434.662811,2731.11966 434.361517,2731.35899 C434.120513,2731.59832 434,2731.89756 434,2732.19671 C434,2732.49589 434.120513,2732.79504 434.361517,2733.03445 C434.602544,2733.27378 434.903838,2733.39345 435.265444,2733.39345 C435.626983,2733.39345 435.868009,2733.27378 436.109124,2733.03445 C436.35015,2732.79504 436.470664,2732.49589 436.470664,2732.19671 C436.470664,2731.89756 436.35015,2731.59832 436.109124,2731.35899 C435.868009,2731.11966 435.566738,2731 435.265444,2731 Z" id="Path"></path>
        </g>
        <g id="button" transform="translate(-285.000000, -2720.000000)"></g>
    </g>
</svg>