<?xml version="1.0" encoding="UTF-8"?>
<svg width="18px" height="18px" viewBox="0 0 18 18" version="1.1" xmlns="http://www.w3.org/2000/svg" xmlns:xlink="http://www.w3.org/1999/xlink">
    <!-- Generator: Sketch 46.2 (44496) - http://www.bohemiancoding.com/sketch -->
    <title>问号-切图</title>
    <desc>Created with Sketch.</desc>
    <defs></defs>
    <g id="4.0官网视觉" stroke="none" stroke-width="1" fill="none" fill-rule="evenodd">
        <g id="首页" transform="translate(-466.000000, -2728.000000)" fill="#FFFFFF">
            <g id="footer" transform="translate(-3.000000, 2665.000000)">
                <g id="Group-22" transform="translate(469.000000, 61.012222)">
                    <g id="帮助" transform="translate(0.000000, 2.001111)">
                        <path d="M9.00003684,0 C4.03154745,0 0,4.01455762 0,8.9377024 C0,13.8607741 4.03864624,17.8682876 9.00003684,17.8682876 C10.7815628,17.8682876 12.5133727,17.3470998 13.9897489,16.3681451 C14.2239598,16.2201953 14.2878735,15.9102807 14.131651,15.6778752 C13.9826501,15.4454454 13.670328,15.3820488 13.436117,15.5370426 C12.1230375,16.4104095 10.5899446,16.8682007 9.00003684,16.8682007 C4.58517933,16.8682007 1.00785616,13.3043659 1.00785616,8.93065833 C1.00785616,4.55687766 4.59227812,1.0000869 9.00003684,1.0000869 C13.4077219,1.0000869 16.9921438,4.55687766 16.9921438,8.93065833 C16.9921438,10.797068 16.3320056,12.6071251 15.1254079,14.0297585 C14.9479136,14.2411293 14.9763087,14.5579905 15.1893215,14.7341409 C15.4022361,14.9101694 15.721657,14.8819932 15.8990776,14.6707199 C17.2547499,13.064892 18,11.0294978 18,8.93065833 C18,4.00751356 13.9684526,0 9.00003684,0 Z" id="Fill-1"></path>
                        <path d="M10.2504714,8.64830573 C11.2152493,8.1549982 12.5333863,7.48568881 12.2888,5.18876448 C12.1121675,3.51179685 10.6581936,2.51835434 8.47713874,2.5535157 C6.9280062,2.58875021 5.54871085,3.54705575 4.9644737,4.98435555 C4.86251964,5.23799526 4.97806443,5.53394076 5.2226507,5.63966868 C5.46723696,5.74529906 5.75261895,5.62557488 5.85447895,5.37191078 C6.28938258,4.29390545 7.32893298,3.58229026 8.50432022,3.55410265 C9.29248899,3.54000884 11.1609804,3.67382683 11.3307941,5.30144176 C11.5006313,6.90086908 10.7600536,7.28137741 9.82925261,7.75342232 C9.01390237,8.16909201 8.00835233,8.67639581 8.00835233,10.149052 L8.00835233,12.2628057 C8.00835233,12.5376105 8.22575711,12.7630626 8.49072948,12.7630626 C8.76252074,12.7630626 8.97313015,12.5376105 8.97313015,12.2557588 L8.97313015,10.1419808 C8.97313015,9.33875584 9.40793973,9.07806923 10.2504714,8.64830573 Z" id="Fill-2"></path>
                        <path d="M8.21233481,14.8902397 C8.21233481,15.1251722 8.39614822,15.3156751 8.62295155,15.3156751 C8.84968294,15.3156751 9.03356829,15.1251722 9.03356829,14.8902397 C9.03356829,14.6552513 8.84968294,14.4648043 8.62295155,14.4648043 C8.39614822,14.4648043 8.21233481,14.6552513 8.21233481,14.8902397 Z" id="Fill-3"></path>
                    </g>
                </g>
            </g>
        </g>
        <g id="页面切图" transform="translate(-326.000000, -2721.000000)"></g>
    </g>
</svg>