<?xml version="1.0" encoding="UTF-8"?>
<svg width="18px" height="18px" viewBox="0 0 18 18" version="1.1" xmlns="http://www.w3.org/2000/svg" xmlns:xlink="http://www.w3.org/1999/xlink">
    <!-- Generator: Sketch 46.2 (44496) - http://www.bohemiancoding.com/sketch -->
    <title>友情链接-切图</title>
    <desc>Created with Sketch.</desc>
    <defs>
        <polygon id="path-1" points="0.251531444 0.2671841 0.251531444 19.7499874 19.7327029 19.7499874 19.7327029 0.2671841"></polygon>
    </defs>
    <g id="4.0官网视觉设计" stroke="none" stroke-width="1" fill="none" fill-rule="evenodd">
        <g id="首页" transform="translate(-642.000000, -2728.000000)">
            <g id="footer" transform="translate(0.000000, 2666.000000)">
                <g id="Group-6" transform="translate(143.000000, 50.000000)">
                    <g id="友情链接" transform="translate(498.000000, 9.000000)">
                        <g id="友情链接-01-01" transform="translate(0.000000, 2.000000)">
                            <path d="M14.8281435,5.9644148 L14.7970832,5.92959195 C14.3902582,5.47412409 13.8241696,5.20060873 13.2029395,5.15927064 C12.5822207,5.11793255 11.9828478,5.31391403 11.5164076,5.71116908 L8.71876319,8.09422504 C7.752624,8.91721746 7.65225984,10.3543152 8.49477167,11.2975275 L8.52593415,11.3323504 C8.6667405,11.4900143 8.82871383,11.6275083 9.00735487,11.7410133 C9.07016555,11.7809036 9.14067098,11.8 9.21035837,11.8 C9.33229851,11.8 9.45183565,11.7415875 9.52333808,11.6343481 C9.63556391,11.4658504 9.58673673,11.2401884 9.41407766,11.1305027 C9.29326233,11.0537676 9.1835162,10.9606321 9.08813702,10.8537671 L9.05697454,10.8189443 C8.4845972,10.1782039 8.55280188,9.20204089 9.20897791,8.64300315 L12.0066223,6.25997215 C12.3228742,5.9906505 12.7299038,5.85782443 13.1522206,5.88580752 C13.5746141,5.91389046 13.9592752,6.09946254 14.2348804,6.40807534 L14.2659406,6.44299804 C14.8384457,7.08383827 14.7703433,8.05990144 14.1139628,8.61893919 L12.7151278,9.81040476 C12.5599545,9.94263173 12.5438747,10.1726622 12.6792871,10.3241853 C12.8146995,10.4758082 13.0501436,10.4914098 13.2054448,10.3592827 L14.6042542,9.1677173 C15.5704956,8.34482472 15.6708598,6.90772702 14.8281435,5.9644148 Z" id="Fill-1" fill="#FFFFFF"></path>
                            <g id="Group-5">
                                <mask id="mask-2" fill="white">
                                    <use xlink:href="#path-1"></use>
                                </mask>
                                <g id="Clip-3"></g>
                                <path d="M11.3904686,8.75639331 C11.2329623,8.57586611 11.0493975,8.42227615 10.8447197,8.29989121 C10.6707699,8.19595816 10.4461841,8.25264435 10.3425523,8.42621757 C10.2386946,8.59979079 10.2952803,8.82465272 10.4688536,8.92841004 C10.6073054,9.01125523 10.731749,9.11541423 10.839046,9.23837657 L10.869046,9.27261925 C11.4311632,9.9170795 11.3642845,10.8987197 10.7197992,11.4610126 L7.97230126,13.8576234 C7.32774059,14.4201172 6.346,14.3528619 5.78390795,13.7081757 L5.75360669,13.6736569 C5.48265272,13.3629874 5.34897071,12.9635732 5.37731381,12.5487699 C5.40555649,12.133841 5.5921841,11.7561925 5.90275314,11.4852385 L7.27645188,10.2869958 C7.42893724,10.1540167 7.44462762,9.92277824 7.31164854,9.77029289 C7.17866946,9.61788285 6.94743096,9.60211715 6.79504603,9.73507113 L5.42124686,10.9333389 C4.9632887,11.3328536 4.68811715,11.8888703 4.64654393,12.4988368 C4.60497071,13.1089038 4.80206695,13.6971046 5.20178243,14.1552636 L5.23208368,14.1898828 C5.68278661,14.7066862 6.31697908,14.9712636 6.95420921,14.9712636 C7.48690377,14.9712636 8.02183264,14.7863933 8.45380753,14.4095481 L11.201205,12.0129372 C12.1500837,11.185364 12.2486192,9.74009205 11.4204686,8.79061088 L11.3904686,8.75639331 Z" id="Fill-2" fill="#FFFFFF" mask="url(#mask-2)"></path>
                                <path d="M10.0000368,1 C5.03154745,1 1,5.01455762 1,9.9377024 C1,14.8607741 5.03864624,18.8682876 10.0000368,18.8682876 C11.7815628,18.8682876 13.5133727,18.3470998 14.9897489,17.3681451 C15.2239598,17.2201953 15.2878735,16.9102807 15.131651,16.6778752 C14.9826501,16.4454454 14.670328,16.3820488 14.436117,16.5370426 C13.1230375,17.4104095 11.5899446,17.8682007 10.0000368,17.8682007 C5.58517933,17.8682007 2.00785616,14.3043659 2.00785616,9.93065833 C2.00785616,5.55687766 5.59227812,2.0000869 10.0000368,2.0000869 C14.4077219,2.0000869 17.9921438,5.55687766 17.9921438,9.93065833 C17.9921438,11.797068 17.3320056,13.6071251 16.1254079,15.0297585 C15.9479136,15.2411293 15.9763087,15.5579905 16.1893215,15.7341409 C16.4022361,15.9101694 16.721657,15.8819932 16.8990776,15.6707199 C18.2547499,14.064892 19,12.0294978 19,9.93065833 C19,5.00751356 14.9684526,1 10.0000368,1 Z" id="Fill-1" fill="#FFFFFF" mask="url(#mask-2)"></path>
                            </g>
                        </g>
                    </g>
                </g>
            </g>
        </g>
        <g id="button" transform="translate(-249.000000, -2721.000000)"></g>
    </g>
</svg>