<?xml version="1.0" encoding="UTF-8"?>
<svg width="22px" height="22px" viewBox="0 0 22 22" version="1.1" xmlns="http://www.w3.org/2000/svg" xmlns:xlink="http://www.w3.org/1999/xlink">
    <!-- Generator: Sketch 48.1 (47250) - http://www.bohemiancoding.com/sketch -->
    <title>联系方式管理1</title>
    <desc>Created with Sketch.</desc>
    <defs>
        <path d="M12.6182026,12.4603421 L13.6752137,12.4603421 C13.3443791,13.1151464 12.8365557,13.628015 12.1517282,13.9989632 C11.3676504,14.4247472 10.4115529,14.6376361 9.28340711,14.6376361 C8.19165312,14.6376361 7.24878882,14.4578095 6.45478593,14.098151 C5.66078303,13.7384925 5.07025223,13.2078832 4.68317582,12.5063072 C4.29609941,11.8047312 4.1025641,11.0410732 4.1025641,10.2153102 C4.1025641,9.30890625 4.32256577,8.46460848 4.76257571,7.68239157 C5.20258565,6.90017465 5.80469548,6.31311756 6.56892327,5.9212027 C7.33315106,5.52928783 8.20654115,5.33333333 9.18911973,5.33333333 C10.0228228,5.33333333 10.763881,5.49138716 11.4123167,5.80749957 C12.0607524,6.12361197 12.5561697,6.57277515 12.8985835,7.15500259 C13.2409972,7.73723003 13.4122015,8.37347734 13.4122015,9.06376361 C13.4122015,9.88630098 13.1525003,10.6297991 12.6330901,11.2942803 C11.981346,12.1329458 11.1460014,12.5522723 10.127031,12.5522723 C9.8524383,12.5522723 9.64566981,12.5055013 9.5067193,12.4119578 C9.3677688,12.3184144 9.27513652,12.1813269 9.22881968,12.0006912 C8.83843492,12.3684138 8.3885067,12.5522723 7.8790215,12.5522723 C7.32983617,12.5522723 6.87411842,12.3676074 6.5118546,11.998272 C6.14959078,11.6289366 5.96846158,11.1378407 5.96846158,10.5249698 C5.96846158,9.76694512 6.1868091,9.07505641 6.6235107,8.44928288 C7.15284596,7.6880326 7.8310466,7.30741317 8.65813295,7.30741317 C9.24701843,7.30741317 9.68205933,7.52675318 9.96326869,7.96543978 L10.087331,7.42837394 L11.3974293,7.42837394 L10.6480928,10.8975289 C10.6017759,11.1168722 10.5786179,11.2587981 10.5786179,11.3233109 C10.5786179,11.4039518 10.5976406,11.4644316 10.6356865,11.504752 C10.6737325,11.5450725 10.7192216,11.5652324 10.7721551,11.5652324 C10.9309557,11.5652324 11.13607,11.4716904 11.3875043,11.2846034 C11.7249555,11.039455 11.9978899,10.710445 12.2063157,10.2975635 C12.4147414,9.884682 12.5189527,9.45729154 12.5189527,9.0153793 C12.5189527,8.22187265 12.2245144,7.55820784 11.6356289,7.02436496 C11.0467434,6.49052207 10.2246319,6.22360463 9.16926976,6.22360463 C8.27270815,6.22360463 7.5126272,6.40181839 6.88900409,6.75825125 C6.26538098,7.11468412 5.79560298,7.61626311 5.47965599,8.26300328 C5.16370901,8.90974346 5.00573788,9.58308503 5.00573788,10.2830482 C5.00573788,10.9636576 5.18190463,11.5829705 5.53424342,12.1410057 C5.88658221,12.6990409 6.38117242,13.1062714 7.01802892,13.3627095 C7.65488541,13.6191476 8.38353755,13.7473648 9.20400721,13.7473648 C9.99470177,13.7473648 10.6745565,13.640114 11.243592,13.4256091 C11.8126274,13.2111043 12.2708263,12.8893518 12.6182026,12.4603421 Z M7.25374735,10.471747 C7.25374735,10.8814029 7.33893596,11.1829954 7.50931575,11.3765336 C7.67969554,11.5700718 7.8905994,11.6668395 8.14203365,11.6668395 C8.33060934,11.6668395 8.50760316,11.6216812 8.67302043,11.5313634 C8.79873756,11.4668507 8.92279865,11.3652446 9.04520743,11.2265422 C9.22054973,11.0297784 9.37190427,10.742701 9.49927556,10.3653015 C9.62664686,9.98790204 9.69033156,9.6363129 9.69033156,9.31052359 C9.69033156,8.94602663 9.60348879,8.66620684 9.42980066,8.47105581 C9.25611252,8.27590479 9.03693793,8.17833074 8.7722703,8.17833074 C8.48775259,8.17833074 8.22474308,8.28558156 7.98323386,8.5000864 C7.74172465,8.71459125 7.55976838,9.02021575 7.4373596,9.41696907 C7.31495082,9.81372239 7.25374735,10.1653115 7.25374735,10.471747 Z" id="path-1"></path>
        <filter x="-73.1%" y="-53.7%" width="246.2%" height="250.5%" filterUnits="objectBoundingBox" id="filter-2">
            <feOffset dx="0" dy="2" in="SourceAlpha" result="shadowOffsetOuter1"></feOffset>
            <feGaussianBlur stdDeviation="2" in="shadowOffsetOuter1" result="shadowBlurOuter1"></feGaussianBlur>
            <feColorMatrix values="0 0 0 0 0   0 0 0 0 0   0 0 0 0 0  0 0 0 0.160411005 0" type="matrix" in="shadowBlurOuter1"></feColorMatrix>
        </filter>
    </defs>
    <g id="企业用户界面ICON" stroke="none" stroke-width="1" fill="none" fill-rule="evenodd" transform="translate(-227.000000, -339.000000)">
        <g id="Group-15-Copy-3" transform="translate(229.000000, 340.000000)">
            <rect id="Rectangle-15" stroke="#6A6A6A" stroke-width="1.11111111" x="0.555555556" y="0.555555556" width="16.6666667" height="18.8888889" rx="2.66666667"></rect>
            <g id="@">
                <use fill="black" fill-opacity="1" filter="url(#filter-2)" xlink:href="#path-1"></use>
                <use fill="#000000" fill-rule="evenodd" xlink:href="#path-1"></use>
            </g>
        </g>
    </g>
</svg>