<?xml version="1.0" encoding="UTF-8"?>
<svg width="22px" height="22px" viewBox="0 0 22 22" version="1.1" xmlns="http://www.w3.org/2000/svg" xmlns:xlink="http://www.w3.org/1999/xlink">
    <!-- Generator: Sketch 48.1 (47250) - http://www.bohemiancoding.com/sketch -->
    <title>企业管理2</title>
    <desc>Created with Sketch.</desc>
    <defs>
        <rect id="path-1" x="0" y="0" width="18" height="13" rx="1.4000001"></rect>
    </defs>
    <g id="企业用户界面ICON" stroke="none" stroke-width="1" fill="none" fill-rule="evenodd" transform="translate(-304.000000, -514.000000)">
        <g id="Group" transform="translate(306.000000, 518.000000)">
            <g id="Rectangle-3">
                <use fill-opacity="0.254245924" fill="#FFFFFF" fill-rule="evenodd" xlink:href="#path-1"></use>
                <rect stroke="#FFFFFF" stroke-width="1" x="0.5" y="0.5" width="17" height="12" rx="1.4000001"></rect>
            </g>
            <path d="M6,7 C7.1045695,7 8,6.1045695 8,5 C8,3.8954305 7.1045695,3 6,3 C4.8954305,3 4,3.8954305 4,5 C4,6.1045695 4.8954305,7 6,7 Z" id="Oval-47" stroke="#FFFFFF"></path>
            <path d="M9,10 C9,8.34314575 7.65685425,7 6,7 C4.34314575,7 3,8.34314575 3,10" id="Oval-47-Copy" stroke="#FFFFFF"></path>
            <path d="M10.5,4.5 L13.5,4.5" id="Line-2" stroke="#FFFFFF" stroke-linecap="square"></path>
            <path d="M10.5,7.5 L13.5,7.5" id="Line-2-Copy" stroke="#FFFFFF" stroke-linecap="square"></path>
        </g>
    </g>
</svg>