<?xml version="1.0" encoding="UTF-8"?>
<svg width="22px" height="22px" viewBox="0 0 22 22" version="1.1" xmlns="http://www.w3.org/2000/svg" xmlns:xlink="http://www.w3.org/1999/xlink">
    <!-- Generator: Sketch 48.1 (47250) - http://www.bohemiancoding.com/sketch -->
    <title>发票管理1</title>
    <desc>Created with Sketch.</desc>
    <defs></defs>
    <g id="企业用户界面ICON" stroke="none" stroke-width="1" fill="none" fill-rule="evenodd" transform="translate(-227.000000, -281.000000)">
        <g id="Group-15-Copy-4" transform="translate(228.000000, 284.000000)">
            <path d="M4.32394502,-0.786817446 C4.24839617,-0.829988216 4.16288902,-0.852695875 4.07587555,-0.852695875 C3.79973318,-0.852695875 3.57587555,-0.62883825 3.57587555,-0.352695875 L3.57587555,16.2009448 C3.57587555,16.2879582 3.59858321,16.3734654 3.64175398,16.4490142 C3.77875897,16.688773 4.0841863,16.7720713 4.32394502,16.6350663 L5.83166715,15.7735108 C6.29281615,15.5099971 6.85893496,15.5099971 7.32008396,15.7735108 L9.82780608,17.2064949 C9.98152242,17.2943328 10.1702287,17.2943328 10.323945,17.2064949 L12.8316671,15.7735108 C13.2928161,15.5099971 13.858935,15.5099971 14.320084,15.7735108 L15.8278061,16.6350663 C15.9033549,16.6782371 15.9888621,16.7009448 16.0758756,16.7009448 C16.3520179,16.7009448 16.5758756,16.4770871 16.5758756,16.2009448 L16.5758756,-0.352695875 C16.5758756,-0.439709344 16.5531679,-0.525216496 16.5099971,-0.600765344 C16.3729921,-0.840524068 16.0675648,-0.923822431 15.8278061,-0.786817446 L14.320084,0.0747380528 C13.858935,0.338251769 13.2928161,0.338251769 12.8316671,0.0747380528 L10.323945,-1.35824602 C10.1702287,-1.44608392 9.98152242,-1.44608392 9.82780608,-1.35824602 L7.32008396,0.0747380528 C6.85893496,0.338251769 6.29281615,0.338251769 5.83166715,0.0747380528 L4.32394502,-0.786817446 Z" id="Rectangle-15" stroke="#6A6A6A" transform="translate(10.075876, 7.924124) rotate(-270.000000) translate(-10.075876, -7.924124) "></path>
            <path d="M13.0908203,4 L10.8618164,7.79199219 L12.6181641,7.79199219 L12.6181641,8.62988281 L10.5717773,8.62988281 L10.5717773,9.78466797 L12.6181641,9.78466797 L12.6181641,10.6333008 L10.5717773,10.6333008 L10.5717773,12.3144531 L9.51904297,12.3144531 L9.51904297,10.6333008 L7.39746094,10.6333008 L7.39746094,9.78466797 L9.51904297,9.78466797 L9.51904297,8.62988281 L7.39746094,8.62988281 L7.39746094,7.79199219 L9.20751953,7.79199219 L7,4 L8.18701172,4 C9.21826687,5.88347296 9.84488821,7.07763419 10.0668945,7.58251953 L10.0883789,7.58251953 C10.1635746,7.3748362 10.3694645,6.95589508 10.7060547,6.32568359 L11.9682617,4 L13.0908203,4 Z" id="￥" fill="#000000"></path>
        </g>
    </g>
</svg>