<?xml version="1.0" encoding="UTF-8"?>
<svg width="22px" height="22px" viewBox="0 0 22 22" version="1.1" xmlns="http://www.w3.org/2000/svg" xmlns:xlink="http://www.w3.org/1999/xlink">
    <!-- Generator: Sketch 48.1 (47250) - http://www.bohemiancoding.com/sketch -->
    <title>发票管理2</title>
    <desc>Created with Sketch.</desc>
    <defs>
        <filter x="-35.0%" y="-33.3%" width="170.0%" height="193.3%" filterUnits="objectBoundingBox" id="filter-1">
            <feOffset dx="0" dy="2" in="SourceAlpha" result="shadowOffsetOuter1"></feOffset>
            <feGaussianBlur stdDeviation="2" in="shadowOffsetOuter1" result="shadowBlurOuter1"></feGaussianBlur>
            <feColorMatrix values="0 0 0 0 0   0 0 0 0 0   0 0 0 0 0  0 0 0 0.122763813 0" type="matrix" in="shadowBlurOuter1" result="shadowMatrixOuter1"></feColorMatrix>
            <feMerge>
                <feMergeNode in="shadowMatrixOuter1"></feMergeNode>
                <feMergeNode in="SourceGraphic"></feMergeNode>
            </feMerge>
        </filter>
        <path d="M4.57201449,-1.22093902 L6.07973662,-0.359383518 C6.38716928,-0.183707708 6.76458182,-0.183707708 7.07201449,-0.359383518 L9.57973662,-1.79236759 C9.88716928,-1.9680434 10.2645818,-1.9680434 10.5720145,-1.79236759 L13.0797366,-0.359383518 C13.3871693,-0.183707708 13.7645818,-0.183707708 14.0720145,-0.359383518 L15.5797366,-1.22093902 C16.0592541,-1.49494899 16.6701087,-1.32835226 16.9441187,-0.848834813 C17.0304602,-0.697737118 17.0758756,-0.526722814 17.0758756,-0.352695875 L17.0758756,16.2009448 C17.0758756,16.7532295 16.6281603,17.2009448 16.0758756,17.2009448 C15.9018486,17.2009448 15.7308343,17.1555295 15.5797366,17.0691879 L14.0720145,16.2076324 C13.7645818,16.0319566 13.3871693,16.0319566 13.0797366,16.2076324 L10.5720145,17.6406165 C10.2645818,17.8162923 9.88716928,17.8162923 9.57973662,17.6406165 L7.07201449,16.2076324 C6.76458182,16.0319566 6.38716928,16.0319566 6.07973662,16.2076324 L4.57201449,17.0691879 C4.09249705,17.3431979 3.48164238,17.1766012 3.20763241,16.6970837 C3.12129087,16.545986 3.07587555,16.3749717 3.07587555,16.2009448 L3.07587555,-0.352695875 C3.07587555,-0.904980625 3.5235908,-1.35269588 4.07587555,-1.35269588 C4.24990249,-1.35269588 4.4209168,-1.30728056 4.57201449,-1.22093902 Z" id="path-2"></path>
    </defs>
    <g id="企业用户界面ICON" stroke="none" stroke-width="1" fill="none" fill-rule="evenodd" transform="translate(-304.000000, -281.000000)">
        <g id="3.fapiaoguanli" filter="url(#filter-1)" transform="translate(305.000000, 284.000000)">
            <g id="Group-15-Copy-4">
                <g id="Rectangle-15" transform="translate(10.075876, 7.924124) rotate(-270.000000) translate(-10.075876, -7.924124) ">
                    <use fill-opacity="0.39770154" fill="#FFFFFF" fill-rule="evenodd" xlink:href="#path-2"></use>
                    <path stroke="#FFFFFF" stroke-width="1" d="M4.32394502,-0.786817446 C4.24839617,-0.829988216 4.16288902,-0.852695875 4.07587555,-0.852695875 C3.79973318,-0.852695875 3.57587555,-0.62883825 3.57587555,-0.352695875 L3.57587555,16.2009448 C3.57587555,16.2879582 3.59858321,16.3734654 3.64175398,16.4490142 C3.77875897,16.688773 4.0841863,16.7720713 4.32394502,16.6350663 L5.83166715,15.7735108 C6.29281615,15.5099971 6.85893496,15.5099971 7.32008396,15.7735108 L9.82780608,17.2064949 C9.98152242,17.2943328 10.1702287,17.2943328 10.323945,17.2064949 L12.8316671,15.7735108 C13.2928161,15.5099971 13.858935,15.5099971 14.320084,15.7735108 L15.8278061,16.6350663 C15.9033549,16.6782371 15.9888621,16.7009448 16.0758756,16.7009448 C16.3520179,16.7009448 16.5758756,16.4770871 16.5758756,16.2009448 L16.5758756,-0.352695875 C16.5758756,-0.439709344 16.5531679,-0.525216496 16.5099971,-0.600765344 C16.3729921,-0.840524068 16.0675648,-0.923822431 15.8278061,-0.786817446 L14.320084,0.0747380528 C13.858935,0.338251769 13.2928161,0.338251769 12.8316671,0.0747380528 L10.323945,-1.35824602 C10.1702287,-1.44608392 9.98152242,-1.44608392 9.82780608,-1.35824602 L7.32008396,0.0747380528 C6.85893496,0.338251769 6.29281615,0.338251769 5.83166715,0.0747380528 L4.32394502,-0.786817446 Z"></path>
                </g>
                <path d="M13.0908203,4 L10.8618164,7.79199219 L12.6181641,7.79199219 L12.6181641,8.62988281 L10.5717773,8.62988281 L10.5717773,9.78466797 L12.6181641,9.78466797 L12.6181641,10.6333008 L10.5717773,10.6333008 L10.5717773,12.3144531 L9.51904297,12.3144531 L9.51904297,10.6333008 L7.39746094,10.6333008 L7.39746094,9.78466797 L9.51904297,9.78466797 L9.51904297,8.62988281 L7.39746094,8.62988281 L7.39746094,7.79199219 L9.20751953,7.79199219 L7,4 L8.18701172,4 C9.21826687,5.88347296 9.84488821,7.07763419 10.0668945,7.58251953 L10.0883789,7.58251953 C10.1635746,7.3748362 10.3694645,6.95589508 10.7060547,6.32568359 L11.9682617,4 L13.0908203,4 Z" id="￥" fill="#FFFFFF"></path>
            </g>
        </g>
    </g>
</svg>