<?xml version="1.0" encoding="UTF-8"?>
<svg width="22px" height="22px" viewBox="0 0 22 22" version="1.1" xmlns="http://www.w3.org/2000/svg" xmlns:xlink="http://www.w3.org/1999/xlink">
    <!-- Generator: Sketch 48.1 (47250) - http://www.bohemiancoding.com/sketch -->
    <title>资金信息2</title>
    <desc>Created with Sketch.</desc>
    <defs>
        <filter x="-44.4%" y="-31.6%" width="188.9%" height="184.2%" filterUnits="objectBoundingBox" id="filter-1">
            <feOffset dx="0" dy="2" in="SourceAlpha" result="shadowOffsetOuter1"></feOffset>
            <feGaussianBlur stdDeviation="2" in="shadowOffsetOuter1" result="shadowBlurOuter1"></feGaussianBlur>
            <feColorMatrix values="0 0 0 0 0   0 0 0 0 0   0 0 0 0 0  0 0 0 0.122763813 0" type="matrix" in="shadowBlurOuter1" result="shadowMatrixOuter1"></feColorMatrix>
            <feMerge>
                <feMergeNode in="shadowMatrixOuter1"></feMergeNode>
                <feMergeNode in="SourceGraphic"></feMergeNode>
            </feMerge>
        </filter>
    </defs>
    <g id="企业用户界面ICON" stroke="none" stroke-width="1" fill="none" fill-rule="evenodd" transform="translate(-304.000000, -457.000000)">
        <g id="6.zijinxinxi" filter="url(#filter-1)" transform="translate(306.000000, 459.000000)">
            <g id="Group-37">
                <path d="M2.56072261,13.9481049 C3.02311856,15.1139337 3.75163325,16.1452521 4.67131126,16.9671045 C6.08610503,18.2314075 7.95329531,19 10,19 C14.418278,19 18,15.418278 18,11 C18,10.2047845 17.883974,9.43666834 17.6679272,8.71165682 C17.2687409,7.37206437 16.5280902,6.17962846 15.5469344,5.23530864" id="Oval-5-Copy" stroke="#FFFFFF" stroke-linecap="round"></path>
                <circle id="Oval-5" stroke="#FFFFFF" fill-opacity="0.396767437" fill="#FFFFFF" cx="8" cy="8" r="8"></circle>
                <path d="M11.7386598,3.32667523 L9.00225096,7.58942366 L11.1584093,7.58942366 L11.1584093,8.53133408 L8.64618812,8.53133408 L8.64618812,9.82947985 L11.1584093,9.82947985 L11.1584093,10.783466 L8.64618812,10.783466 L8.64618812,12.6733248 L7.35381188,12.6733248 L7.35381188,10.783466 L4.74927815,10.783466 L4.74927815,9.82947985 L7.35381188,9.82947985 L7.35381188,8.53133408 L4.74927815,8.53133408 L4.74927815,7.58942366 L6.97137402,7.58942366 L4.26134019,3.32667523 L5.71856033,3.32667523 C6.98456786,5.44397163 7.75383174,6.78638182 8.02637503,7.35394606 L8.05275005,7.35394606 C8.1450631,7.12047992 8.39782123,6.64952942 8.81103202,5.94108043 L10.3605647,3.32667523 L11.7386598,3.32667523 Z" id="￥" fill="#FFFFFF"></path>
            </g>
        </g>
    </g>
</svg>