<?xml version="1.0" encoding="UTF-8"?>
<svg width="22px" height="22px" viewBox="0 0 22 22" version="1.1" xmlns="http://www.w3.org/2000/svg" xmlns:xlink="http://www.w3.org/1999/xlink">
    <!-- Generator: Sketch 48.1 (47250) - http://www.bohemiancoding.com/sketch -->
    <title>资金信息1</title>
    <desc>Created with Sketch.</desc>
    <defs></defs>
    <g id="企业用户界面ICON" stroke="none" stroke-width="1" fill="none" fill-rule="evenodd" transform="translate(-227.000000, -457.000000)">
        <g id="Group-37" transform="translate(229.000000, 459.000000)">
            <path d="M10,19 C14.418278,19 18,15.418278 18,11 C18,10.2047845 17.883974,9.43666834 17.6679272,8.71165682 C16.6836016,5.40844898 13.6230625,3 10,3 C5.581722,3 2,6.581722 2,11 C2,13.3715733 3.0319506,15.5021216 4.67131126,16.9671045 C6.08610503,18.2314075 7.95329531,19 10,19 Z" id="Oval-5-Copy" stroke="#6A6A6A" stroke-linecap="round"></path>
            <circle id="Oval-5" stroke="#6A6A6A" fill="#EBEBEC" cx="8" cy="8" r="8"></circle>
            <path d="M11.7386598,3.32667523 L9.00225096,7.58942366 L11.1584093,7.58942366 L11.1584093,8.53133408 L8.64618812,8.53133408 L8.64618812,9.82947985 L11.1584093,9.82947985 L11.1584093,10.783466 L8.64618812,10.783466 L8.64618812,12.6733248 L7.35381188,12.6733248 L7.35381188,10.783466 L4.74927815,10.783466 L4.74927815,9.82947985 L7.35381188,9.82947985 L7.35381188,8.53133408 L4.74927815,8.53133408 L4.74927815,7.58942366 L6.97137402,7.58942366 L4.26134019,3.32667523 L5.71856033,3.32667523 C6.98456786,5.44397163 7.75383174,6.78638182 8.02637503,7.35394606 L8.05275005,7.35394606 C8.1450631,7.12047992 8.39782123,6.64952942 8.81103202,5.94108043 L10.3605647,3.32667523 L11.7386598,3.32667523 Z" id="￥" fill="#000000"></path>
        </g>
    </g>
</svg>