<svg xmlns="http://www.w3.org/2000/svg" xmlns:xlink="http://www.w3.org/1999/xlink" width="17" height="17" viewBox="0 0 17 17">
    <defs>
        <path id="a" d="M14.36.008H3.442C2.33.008 1.42.918 1.42 2.029v.759h1.011v-.152c0-1.112.506-1.618 1.618-1.618h9.705c1.112 0 1.617.506 1.617 1.618v11.727c0 1.112-.505 1.617-1.617 1.617H4.049c-1.112 0-1.618-.505-1.618-1.617v-.152h-1.01v.758c0 1.112.91 2.022 2.021 2.022H14.36c1.112 0 2.022-.91 2.022-2.022V2.03c0-1.112-.91-2.021-2.022-2.021z"/>
    </defs>
    <g fill="none" fill-rule="evenodd">
        <g fill-rule="nonzero">
            <use fill="#6A6A6A" fill-rule="evenodd" xlink:href="#a"/>
            <path stroke="#6A6A6A" d="M1.92 2.288h.028c.116-1.162.834-1.77 2.1-1.77h9.706c1.388 0 2.117.73 2.117 2.118v11.727c0 1.388-.73 2.117-2.117 2.117H4.049c-1.267 0-1.985-.607-2.101-1.769H1.92v.258c0 .836.686 1.522 1.522 1.522H14.36c.836 0 1.522-.686 1.522-1.522V2.03c0-.835-.686-1.521-1.522-1.521H3.442c-.836 0-1.522.686-1.522 1.521v.259z"/>
        </g>
        <path fill="#6A6A6A" fill-rule="nonzero" d="M3.038 4.729H.51a.507.507 0 0 1-.506-.506c0-.273.222-.505.506-.505h2.527a.5.5 0 0 1 .505.505.5.5 0 0 1-.505.506zm0 8.552H.51a.507.507 0 0 1-.506-.506.5.5 0 0 1 .506-.505h2.527a.5.5 0 0 1 .505.505.507.507 0 0 1-.505.506zm0-4.256H.51a.507.507 0 0 1-.506-.505c0-.273.222-.506.506-.506h2.527a.5.5 0 0 1 .505.506.5.5 0 0 1-.505.505zM1.42 5.83h1.011v1.011h-1.01v-1.01zm0 4.297h1.011v1.01h-1.01v-1.01z"/>
        <path fill="#000" d="M12.086 7.782H6.424a.716.716 0 0 1-.707-.708.71.71 0 0 1 .707-.708h5.662a.71.71 0 0 1 .707.708.71.71 0 0 1-.707.708zM12.086 10.632H6.424a.71.71 0 0 1-.707-.707.71.71 0 0 1 .707-.708h5.662c.384 0 .707.324.707.708a.71.71 0 0 1-.707.707z"/>
        <path fill="#000" fill-rule="nonzero" d="M9.963 7.094v5.661a.71.71 0 0 1-.708.708.71.71 0 0 1-.708-.708v-5.66a.71.71 0 0 1 .708-.709c.394 0 .708.314.708.708z"/>
        <path fill="#000" fill-rule="nonzero" d="M8.648 7.64L7.031 5.568a.706.706 0 0 1 1.112-.87L9.76 6.771a.706.706 0 0 1-.12.99.717.717 0 0 1-.992-.121z"/>
        <path fill="#000" fill-rule="nonzero" d="M9.862 7.64l1.617-2.072a.706.706 0 0 0-1.112-.87L8.749 6.771a.706.706 0 0 0 .122.99.717.717 0 0 0 .99-.121z"/>
    </g>
</svg>
