<?xml version="1.0" encoding="UTF-8"?>
<svg width="22px" height="22px" viewBox="0 0 22 22" version="1.1" xmlns="http://www.w3.org/2000/svg" xmlns:xlink="http://www.w3.org/1999/xlink">
    <!-- Generator: Sketch 48.1 (47250) - http://www.bohemiancoding.com/sketch -->
    <title>个人资料2</title>
    <desc>Created with Sketch.</desc>
    <defs>
        <filter x="-44.4%" y="-33.3%" width="188.9%" height="183.3%" filterUnits="objectBoundingBox" id="filter-1">
            <feOffset dx="0" dy="2" in="SourceAlpha" result="shadowOffsetOuter1"></feOffset>
            <feGaussianBlur stdDeviation="2" in="shadowOffsetOuter1" result="shadowBlurOuter1"></feGaussianBlur>
            <feColorMatrix values="0 0 0 0 0   0 0 0 0 0   0 0 0 0 0  0 0 0 0.122763813 0" type="matrix" in="shadowBlurOuter1" result="shadowMatrixOuter1"></feColorMatrix>
            <feMerge>
                <feMergeNode in="shadowMatrixOuter1"></feMergeNode>
                <feMergeNode in="SourceGraphic"></feMergeNode>
            </feMerge>
        </filter>
    </defs>
    <g id="企业用户界面ICON" stroke="none" stroke-width="1" fill="none" fill-rule="evenodd" transform="translate(-304.000000, -398.000000)">
        <g id="5.gerenziliao" filter="url(#filter-1)" transform="translate(306.000000, 400.000000)">
            <g id="profile">
                <circle id="Oval-2" fill="#FFFFFF" opacity="0.400000006" cx="8.58587764" cy="8.30506909" r="2.61695891"></circle>
                <ellipse id="Oval-3" fill="#FFFFFF" opacity="0.400000006" cx="8.87273029" cy="14.3806173" rx="6.16749106" ry="2.90989161"></ellipse>
                <path d="M2.86911574,14.9 C4.43668171,16.5548043 6.61238524,17.5 9,17.5 C11.3383163,17.5 13.5374591,16.5368418 15.1179195,14.9 L2.86911574,14.9 Z" id="Oval-19" stroke="#FFFFFF"></path>
                <path d="M2.86911574,11.3 C4.43668171,12.9548043 6.61238524,13.9 9,13.9 C11.3383163,13.9 13.5374591,12.9368418 15.1179195,11.3 L2.86911574,11.3 Z" id="Oval-19-Copy" stroke="#FFFFFF" transform="translate(9.000000, 12.600000) scale(1, -1) translate(-9.000000, -12.600000) "></path>
                <path d="M9,10.8 C10.4911688,10.8 11.7,9.59116882 11.7,8.1 C11.7,6.60883118 10.4911688,5.4 9,5.4 C7.50883118,5.4 6.3,6.60883118 6.3,8.1 C6.3,9.59116882 7.50883118,10.8 9,10.8 Z" id="Oval-47" stroke="#FFFFFF"></path>
                <path d="M17.5720249,11.7502727 C17.8499436,10.8833587 18,9.95920312 18,9 C18,4.02943725 13.9705627,0 9,0 C4.02943725,0 0,4.02943725 0,9 C0,9.93780421 0.143435825,10.8421072 0.409565935,11.6921674" id="Oval" stroke="#FFFFFF" stroke-linecap="round"></path>
            </g>
        </g>
    </g>
</svg>