<?xml version="1.0" encoding="UTF-8"?>
<svg width="22px" height="22px" viewBox="0 0 22 22" version="1.1" xmlns="http://www.w3.org/2000/svg" xmlns:xlink="http://www.w3.org/1999/xlink">
    <!-- Generator: Sketch 48.1 (47250) - http://www.bohemiancoding.com/sketch -->
    <title>工作台2</title>
    <desc>Created with Sketch.</desc>
    <defs>
        <filter x="-38.9%" y="-27.8%" width="177.8%" height="183.3%" filterUnits="objectBoundingBox" id="filter-1">
            <feOffset dx="0" dy="2" in="SourceAlpha" result="shadowOffsetOuter1"></feOffset>
            <feGaussianBlur stdDeviation="2" in="shadowOffsetOuter1" result="shadowBlurOuter1"></feGaussianBlur>
            <feColorMatrix values="0 0 0 0 0   0 0 0 0 0   0 0 0 0 0  0 0 0 0.122763813 0" type="matrix" in="shadowBlurOuter1" result="shadowMatrixOuter1"></feColorMatrix>
            <feMerge>
                <feMergeNode in="shadowMatrixOuter1"></feMergeNode>
                <feMergeNode in="SourceGraphic"></feMergeNode>
            </feMerge>
        </filter>
        <rect id="path-2" x="0" y="0" width="18" height="12.4666667" rx="2.268"></rect>
    </defs>
    <g id="企业用户界面ICON" stroke="none" stroke-width="1" fill="none" fill-rule="evenodd" transform="translate(-304.000000, -162.000000)">
        <g id="1.gongzuotai" filter="url(#filter-1)" transform="translate(306.000000, 166.000000)">
            <path d="M3.9375,3.96666667 L11.8125,3.96666667" id="Line-Copy-21" stroke="#FFFFFF" stroke-linecap="round"></path>
            <path d="M3.9375,7.36666667 L7.3125,7.36666667" id="Line-Copy-22" stroke="#FFFFFF" stroke-linecap="round"></path>
            <g id="Group-16" transform="translate(5.062500, 12.466667)" stroke="#FFFFFF" stroke-linecap="round">
                <path d="M0.5625,2.83333333 L7.3125,2.83333333" id="Line"></path>
                <path d="M6.20855191,0 C6.20855191,0 6.10200029,1.01992753 6.4490517,1.77647799 C6.79610311,2.53302845 7.31813049,2.8292867 7.31813049,2.8292867" id="Line-Copy-23"></path>
                <path d="M0.577337768,0 C0.577337768,0 0.470786148,1.01992753 0.817837559,1.77647799 C1.16488897,2.53302845 1.68691635,2.8292867 1.68691635,2.8292867" id="Line-Copy-24" transform="translate(1.124416, 1.414643) scale(-1, 1) translate(-1.124416, -1.414643) "></path>
            </g>
            <g id="Rectangle-15">
                <use fill-opacity="0.402570199" fill="#FFFFFF" fill-rule="evenodd" xlink:href="#path-2"></use>
                <rect stroke="#FFFFFF" stroke-width="1" x="0.5" y="0.5" width="17" height="11.4666667" rx="2.268"></rect>
            </g>
        </g>
    </g>
</svg>