<?xml version="1.0" encoding="UTF-8"?>
<svg width="19px" height="15px" viewBox="0 0 19 15" version="1.1" xmlns="http://www.w3.org/2000/svg" xmlns:xlink="http://www.w3.org/1999/xlink">
    <!-- Generator: Sketch 46.2 (44496) - http://www.bohemiancoding.com/sketch -->
    <title>Address Card - FontAwesome</title>
    <desc>Created with Sketch.</desc>
    <defs></defs>
    <g id="2.企业管理中心" stroke="none" stroke-width="1" fill="none" fill-rule="evenodd" fill-opacity="0.987998188">
        <g id="1.企业未认证登录管理中心" transform="translate(-150.000000, -163.000000)" fill="#DBD9DB">
            <g id="企业信息" transform="translate(140.000000, 143.000000)">
                <path d="M19.142868,29.3839243 C19.142868,27.999994 18.8035819,26.4642779 17.392866,26.4642779 C16.9553654,26.7142782 16.366079,27.1428502 15.7142925,27.1428502 C15.062506,27.1428502 14.4732196,26.7142782 14.0357191,26.4642779 C12.6250031,26.4642779 12.285717,27.999994 12.285717,29.3839243 C12.285717,30.1607109 12.7946462,30.714283 13.4285755,30.714283 L18.0000095,30.714283 C18.6339389,30.714283 19.142868,30.1607109 19.142868,29.3839243 Z M17.7410807,24.7410616 C17.7410807,23.6249888 16.8303653,22.7142735 15.7142925,22.7142735 C14.5982198,22.7142735 13.6875044,23.6249888 13.6875044,24.7410616 C13.6875044,25.8660629 14.5982198,26.7678497 15.7142925,26.7678497 C16.8303653,26.7678497 17.7410807,25.8660629 17.7410807,24.7410616 Z M26.0000191,29.2857099 L26.0000191,28.7142806 C26.0000191,28.5535661 25.8750189,28.428566 25.7143044,28.428566 L20.5714412,28.428566 C20.4107267,28.428566 20.2857265,28.5535661 20.2857265,28.7142806 L20.2857265,29.2857099 C20.2857265,29.4464243 20.4107267,29.5714245 20.5714412,29.5714245 L25.7143044,29.5714245 C25.8750189,29.5714245 26.0000191,29.4464243 26.0000191,29.2857099 Z M26.0000191,26.9642785 L26.0000191,26.4642779 C26.0000191,26.2857063 25.8571618,26.142849 25.6785901,26.142849 L20.6071555,26.142849 C20.4285839,26.142849 20.2857265,26.2857063 20.2857265,26.4642779 L20.2857265,26.9642785 C20.2857265,27.1428502 20.4285839,27.2857075 20.6071555,27.2857075 L25.6785901,27.2857075 C25.8571618,27.2857075 26.0000191,27.1428502 26.0000191,26.9642785 Z M26.0000191,24.7142758 L26.0000191,24.1428466 C26.0000191,23.9821321 25.8750189,23.857132 25.7143044,23.857132 L20.5714412,23.857132 C20.4107267,23.857132 20.2857265,23.9821321 20.2857265,24.1428466 L20.2857265,24.7142758 C20.2857265,24.8749903 20.4107267,24.9999905 20.5714412,24.9999905 L25.7143044,24.9999905 C25.8750189,24.9999905 26.0000191,24.8749903 26.0000191,24.7142758 Z M28.2857361,21.8571296 L28.2857361,32.7142854 C28.2857361,33.5000006 27.6428782,34.1428585 26.857163,34.1428585 L23.7143021,34.1428585 L23.7143021,33.2857146 C23.7143021,33.1250001 23.5893019,33 23.4285874,33 L22.8571582,33 C22.6964437,33 22.5714436,33.1250001 22.5714436,33.2857146 L22.5714436,34.1428585 L15.7142925,34.1428585 L15.7142925,33.2857146 C15.7142925,33.1250001 15.5892924,33 15.4285779,33 L14.8571486,33 C14.6964342,33 14.571434,33.1250001 14.571434,33.2857146 L14.571434,34.1428585 L11.4285731,34.1428585 C10.6428579,34.1428585 10,33.5000006 10,32.7142854 L10,21.8571296 C10,21.0714144 10.6428579,20.4285564 11.4285731,20.4285564 L26.857163,20.4285564 C27.6428782,20.4285564 28.2857361,21.0714144 28.2857361,21.8571296 Z" id="Address-Card---FontAwesome"></path>
            </g>
        </g>
    </g>
</svg>