<svg xmlns="http://www.w3.org/2000/svg" xmlns:xlink="http://www.w3.org/1999/xlink" width="36" height="34" viewBox="0 0 36 34">
    <defs>
        <path id="a" d="M11.986 9.125L35.53 22.641a.93.93 0 0 1 .164 1.498l-10.577 9.616a.943.943 0 0 1-1.103.12L.47 20.359a.93.93 0 0 1-.164-1.498l10.577-9.616a.943.943 0 0 1 1.103-.12z"/>
        <path id="b" d="M12.279.566L35.53 13.64a.93.93 0 0 1 .164 1.498l-10.577 9.616a.943.943 0 0 1-1.103.12L.47 11.359A.93.93 0 0 1 .306 9.86L11.176.685a.943.943 0 0 1 1.103-.12z"/>
        <path id="c" d="M6.403.96l16.73 9.477a.447.447 0 0 1 .08.725l-5.146 4.687a.468.468 0 0 1-.541.058L.472 6.475a.447.447 0 0 1-.08-.725L5.86 1.018A.468.468 0 0 1 6.403.96z"/>
    </defs>
    <g fill="none" fill-rule="evenodd">
        <g>
            <use fill="#FFF" xlink:href="#a"/>
            <path stroke="#979797" stroke-width="3" d="M11.591 10.628l-9.699 8.818L24.41 32.372l9.699-8.818L11.59 10.628z"/>
        </g>
        <g>
            <use fill="#FFF" xlink:href="#b"/>
            <path stroke="#979797" stroke-width="3" d="M11.536 1.87l-.004-.003.004.002zm.338.189l-9.955 8.402 22.49 12.911 9.693-8.813-22.228-12.5z"/>
        </g>
        <g transform="translate(6 4)">
            <mask id="d" fill="#fff">
                <use xlink:href="#c"/>
            </mask>
            <use fill="#FFF" xlink:href="#c"/>
            <path fill="#D6D6D6" d="M16.54 19.451c2.445 0 4.877-1.444 5.43-3.225.554-1.782-.98-3.226-3.426-3.226s-4.877 1.444-5.431 3.226c-.554 1.781.98 3.225 3.426 3.225zM23.223 11.76c2.446 0 4.878-1.445 5.431-3.227.554-1.781-.98-3.225-3.426-3.225s-4.877 1.444-5.43 3.225c-.554 1.782.98 3.226 3.425 3.226zM6.645 3.144c2.445 0 4.877-1.445 5.43-3.226.554-1.782-.98-3.226-3.426-3.226S3.772-1.864 3.22-.082c-.554 1.781.98 3.226 3.426 3.226zM-2.46 9.451c2.445 0 4.877-1.444 5.43-3.225C3.524 4.444 1.99 3-.456 3s-4.877 1.444-5.431 3.226c-.554 1.781.98 3.225 3.426 3.225z" mask="url(#d)"/>
        </g>
        <path fill="#D6D6D6" d="M17.117 15c2.154 0 4.296-1.343 4.783-3 .488-1.657-.863-3-3.017-3s-4.296 1.343-4.783 3c-.488 1.657.863 3 3.017 3z"/>
    </g>
</svg>
