<svg xmlns="http://www.w3.org/2000/svg" width="38" height="36" viewBox="0 0 38 36">
    <g fill="none" fill-rule="evenodd">
        <path stroke="#7F7F7F" stroke-width="3" d="M10.974 16.11l7.5 4.035a1 1 0 0 1 .526.88v7.95a1 1 0 0 1-.526.88l-7.5 4.035a1 1 0 0 1-.948 0l-7.5-4.035a1 1 0 0 1-.526-.88v-7.95a1 1 0 0 1 .526-.88l7.5-4.035a1 1 0 0 1 .948 0zM27.974 16.11l7.5 4.035a1 1 0 0 1 .526.88v7.95a1 1 0 0 1-.526.88l-7.5 4.035a1 1 0 0 1-.948 0l-7.5-4.035a1 1 0 0 1-.526-.88v-7.95a1 1 0 0 1 .526-.88l7.5-4.035a1 1 0 0 1 .948 0z"/>
        <path fill="#FFF" stroke="#7F7F7F" stroke-width="3" d="M20.021 2.147l6.5 3.97a1 1 0 0 1 .479.854v8.041a1 1 0 0 1-.479.854l-6.5 3.97a1 1 0 0 1-1.042 0l-6.5-3.97a1 1 0 0 1-.479-.854V6.971a1 1 0 0 1 .479-.854l6.5-3.97a1 1 0 0 1 1.042 0z"/>
        <path fill="#D6D6D6" d="M24.807 8.525l-.038 5.752-4.91 2.929.125-5.833zM21.377 22.297v5.752l4.91 2.775-.126-5.68zM4.87 21.437l5.638-2.97 5.638 2.97-5.638 2.87z"/>
    </g>
</svg>
